<?xml version="1.0" standalone="no"?>
<!DOCTYPE svg PUBLIC "-//W3C//DTD SVG 1.1//EN" "http://www.w3.org/Graphics/SVG/1.1/DTD/svg11.dtd" >
<svg xmlns="http://www.w3.org/2000/svg" xmlns:xlink="http://www.w3.org/1999/xlink" version="1.1">
<metadata>
Created by FontForge 20170731 at Sun Jul 23 14:11:45 2017
 By Aleksey,,,
Copyright (c)2016. Cerebri Sans is a trademark of Alfredo Marco Pradil. All rights reserved.
</metadata>
<defs>
<font id="CerebriSans-ExtraBold" horiz-adv-x="0" >
  <font-face 
    font-family="Cerebri Sans ExtraBold"
    font-weight="800"
    font-stretch="normal"
    units-per-em="2048"
    panose-1="0 0 9 0 0 0 0 0 0 0"
    ascent="1638"
    descent="-410"
    x-height="1044"
    cap-height="1458"
    bbox="-1669 -579 2864 2411"
    underline-thickness="102"
    underline-position="-490"
    unicode-range="U+0020-FB02"
  />
<missing-glyph horiz-adv-x="1247" 
d="M146 0v1536h955v-1536h-955zM392 247h462v1042h-462v-1042z" />
    <glyph glyph-name="fi" unicode="fi" horiz-adv-x="1382" 
d="M219 1123q0 76 14 136.5t37.5 103.5t62 74.5t81.5 50t102 29.5t116 15t131 4v-258q-97 0 -137 -15q-81 -32 -81 -141v-78h218v-249h-218v-795h-326v795h-205v249h205v79zM1080 1172q-76 0 -130 53t-54 129q0 75 54 128t130 53q74 0 127.5 -53t53.5 -128t-53.5 -128.5
t-127.5 -53.5zM914 0v1044h328v-1044h-328z" />
    <glyph glyph-name="fl" unicode="fl" horiz-adv-x="1384" 
d="M219 1123q0 76 14 136.5t37.5 103.5t62 74.5t81.5 50t102 29.5t116 15t131 4v-258q-97 0 -137 -15q-81 -32 -81 -141v-78h218v-249h-218v-795h-326v795h-205v249h205v79zM914 1536h330v-1536h-330v1536z" />
    <glyph glyph-name="f_f" unicode="ff" horiz-adv-x="1490" 
d="M219 0v795h-205v249h205v79q0 76 14 136.5t37.5 103.5t62 74.5t81.5 50t102 29.5t116 15t131 4v-258q-97 0 -137 -15q-81 -32 -81 -141v-78h390v79q0 76 14 136.5t37.5 103.5t62 74.5t81.5 50t102 29.5t116 15t131 4v-258q-97 0 -137 -15q-81 -32 -81 -141v-78h218v-249
h-218v-795h-326v795h-390v-795h-326z" />
    <glyph glyph-name=".notdef" horiz-adv-x="1247" 
d="M146 0v1536h955v-1536h-955zM392 247h462v1042h-462v-1042z" />
    <glyph glyph-name=".null" 
 />
    <glyph glyph-name="nonmarkingreturn" horiz-adv-x="682" 
 />
    <glyph glyph-name="space" unicode=" " horiz-adv-x="532" 
 />
    <glyph glyph-name="exclam" unicode="!" horiz-adv-x="675" 
d="M206 481l-35 977h329l-35 -977h-259zM336 -20q-75 0 -128 53t-53 127q0 76 53 129t128 53q76 0 129 -53t53 -129q0 -74 -53 -127t-129 -53z" />
    <glyph glyph-name="quotedbl" unicode="&#x22;" horiz-adv-x="1099" 
d="M218 803l-46 655h310l-35 -655h-229zM653 803l-35 655h308l-44 -655h-229z" />
    <glyph glyph-name="numbersign" unicode="#" horiz-adv-x="1587" 
d="M305 0l44 321h-279l30 225h280l54 361h-284l39 223h275l48 329h223l-44 -329h321l46 329h225l-46 -329h282l-35 -223h-279l-50 -361h279l-32 -225h-277l-50 -321h-222l45 321h-326l-43 -321h-224zM607 546h321l53 361h-326z" />
    <glyph glyph-name="dollar" unicode="$" horiz-adv-x="1374" 
d="M1261 425q0 -107 -40 -191t-110 -136.5t-158.5 -82t-192.5 -35.5v-144h-117v144q-221 14 -370 127t-177 306l353 81q8 -96 60 -155.5t134 -77.5v348l-56 18q-42 13 -70.5 23t-69 25.5t-68 29.5t-61 35t-56.5 42t-46 49.5t-36.5 59.5t-22 70t-8.5 83q0 193 136.5 308
t357.5 123v129h117v-132q89 -9 167 -34.5t146 -71t116.5 -117.5t67.5 -165l-328 -81q-29 163 -169 192v-314q9 -2 27 -8q56 -17 94.5 -30.5t92.5 -36.5t90.5 -46t76.5 -57.5t64 -73.5t40 -91.5t16 -112.5zM493 1053q0 -45 38 -75.5t112 -58.5v279q-69 -10 -109.5 -46.5
t-40.5 -98.5zM760 256q70 9 109.5 47t38.5 103q0 55 -38 93t-110 68v-311z" />
    <glyph glyph-name="percent" unicode="%" horiz-adv-x="1763" 
d="M428 772q-147 0 -250 103t-103 251q0 145 104 248.5t249 103.5q146 0 249 -103.5t103 -248.5q0 -147 -102.5 -250.5t-249.5 -103.5zM365 0l757 1458h269l-759 -1458h-267zM428 986q60 0 99.5 40t39.5 100q0 58 -41 98.5t-98 40.5q-58 0 -99 -40t-41 -99t41 -99.5
t99 -40.5zM1337 -17q-148 0 -251 103t-103 250t103.5 250t250.5 103q146 0 248.5 -103t102.5 -250q0 -146 -103 -249.5t-248 -103.5zM1337 198q58 0 99 40t41 98q0 57 -41.5 98.5t-98.5 41.5q-59 0 -100 -40.5t-41 -99.5q0 -58 41 -98t100 -40z" />
    <glyph glyph-name="ampersand" unicode="&#x26;" horiz-adv-x="1605" 
d="M1523 0h-370l-89 111q-209 -131 -454 -131q-235 0 -382.5 117t-147.5 324q0 62 16 114t42.5 93.5t75 85t99.5 79.5t131 85l-18 23q-119 147 -119 274q0 144 118 227q108 76 289 76q193 0 304.5 -86t111.5 -222q0 -95 -64 -177.5t-213 -170.5l239 -294q106 171 106 343
h293q0 -155 -55.5 -302.5t-156.5 -269.5zM642 1244q-29 -24 -29 -71q0 -56 63 -134l27 -34q140 83 140 171q0 43 -33.5 69.5t-85.5 26.5q-51 0 -82 -28zM624 245q144 0 269 78l-290 358q-39 -24 -54 -33.5t-46 -30t-43.5 -32.5t-32.5 -32t-27.5 -37t-14 -40t-6.5 -48
q0 -88 65.5 -135.5t179.5 -47.5z" />
    <glyph glyph-name="quotesingle" unicode="'" horiz-adv-x="659" 
d="M212 803l-34 655h307l-44 -655h-229z" />
    <glyph glyph-name="parenleft" unicode="(" horiz-adv-x="708" 
d="M508 -473q-203 152 -319 457.5t-116 687.5q0 381 116 686.5t319 458.5l188 -223q-146 -103 -236 -354.5t-90 -567.5q0 -317 90 -568.5t236 -353.5z" />
    <glyph glyph-name="parenright" unicode=")" horiz-adv-x="708" 
d="M200 -473l-188 223q146 102 236 353.5t90 568.5q0 316 -90 567.5t-236 354.5l188 223q203 -153 319 -458.5t116 -686.5q0 -382 -116 -687.5t-319 -457.5z" />
    <glyph glyph-name="asterisk" unicode="*" horiz-adv-x="1007" 
d="M376 775l-152 91l164 195q25 31 13.5 51.5t-49.5 13.5l-256 -43v176l256 -43q38 -7 49.5 14t-13.5 51l-164 196l152 91l90 -244q13 -38 38 -38t38 38l89 244l156 -91l-168 -196q-25 -30 -13 -51t51 -14l254 43v-176l-254 43q-39 7 -50.5 -13.5t14.5 -51.5l166 -195
l-156 -91l-89 242q-13 38 -38 38t-38 -38z" />
    <glyph glyph-name="plus" unicode="+" horiz-adv-x="1192" 
d="M474 205v379h-379v245h379v379h244v-379h379v-245h-379v-379h-244z" />
    <glyph glyph-name="comma" unicode="," horiz-adv-x="680" 
d="M364 -370h-232l126 664h334z" />
    <glyph glyph-name="hyphen" unicode="-" horiz-adv-x="992" 
d="M138 395v275h716v-275h-716z" />
    <glyph glyph-name="period" unicode="." horiz-adv-x="661" 
d="M329 -20q-73 0 -126.5 53.5t-53.5 126.5q0 75 53.5 128.5t126.5 53.5q75 0 129 -53.5t54 -128.5q0 -74 -54 -127t-129 -53z" />
    <glyph glyph-name="slash" unicode="/" horiz-adv-x="1241" 
d="M-32 -418l998 1954h307l-998 -1954h-307z" />
    <glyph glyph-name="zero" unicode="0" horiz-adv-x="1246" 
d="M625 -20q-263 0 -403 187.5t-140 561.5q0 375 140 562t403 187q262 0 401.5 -187.5t139.5 -561.5q0 -373 -139.5 -561t-401.5 -188zM625 272q102 0 158.5 111.5t56.5 345.5t-56.5 345t-158.5 111q-216 0 -216 -456q0 -457 216 -457z" />
    <glyph glyph-name="one" unicode="1" horiz-adv-x="1246" 
d="M566 1458h313v-1458h-326v1127l-330 -316v334z" />
    <glyph glyph-name="two" unicode="2" horiz-adv-x="1246" 
d="M554 289h588v-289h-1042v246l578 588q113 113 113 228q0 73 -45 116t-132 43q-186 0 -186 -211v-107l-324 32v69q0 226 136 351t371 125q223 0 363 -112.5t140 -309.5q0 -107 -45.5 -196t-142.5 -190z" />
    <glyph glyph-name="three" unicode="3" horiz-adv-x="1246" 
d="M623 -20q-281 0 -408 133.5t-127 413.5l335 15q0 -62 3 -100.5t14.5 -76.5t33 -58t58.5 -32.5t91 -12.5q103 0 154.5 52t51.5 137q0 95 -49 142t-137 47h-51v250h46q67 0 108.5 46t41.5 119q0 72 -47 108.5t-125 36.5q-52 0 -86.5 -18.5t-50 -53t-21 -68t-5.5 -78.5
l-330 17q0 233 130 356t359 123q209 0 344 -113t135 -281q0 -109 -55 -187t-122 -109q36 -10 69.5 -27.5t66.5 -47t57 -67.5t39 -92t15 -117q0 -209 -145.5 -333t-392.5 -124z" />
    <glyph glyph-name="four" unicode="4" horiz-adv-x="1246" 
d="M1192 560v-289h-160v-271h-326v271h-662v291l487 896h501v-898h160zM337 560h369v710z" />
    <glyph glyph-name="five" unicode="5" horiz-adv-x="1246" 
d="M595 948q571 0 571 -459q0 -235 -143 -373t-379 -138q-147 0 -267.5 55.5t-193 162t-72.5 244.5q0 23 6 71l322 13q-6 -33 -6 -60q0 -93 58 -140.5t146 -47.5q100 0 151.5 53.5t51.5 147.5q0 99 -68 151t-233 52h-386l51 778h891v-290h-594l-13 -220h107z" />
    <glyph glyph-name="six" unicode="6" horiz-adv-x="1246" 
d="M1169 490q0 -144 -76.5 -262.5t-202.5 -183t-273 -64.5q-230 0 -387 148.5t-157 364.5q0 175 131 358l443 607h367l-371 -491q24 3 50 3q127 0 235 -58.5t174.5 -169.5t66.5 -252zM851 499q2 102 -63.5 169.5t-175.5 67.5q-103 0 -167 -65t-67 -165q-3 -103 59 -168.5
t171 -65.5q106 0 173.5 63.5t69.5 163.5z" />
    <glyph glyph-name="seven" unicode="7" horiz-adv-x="1246" 
d="M115 1458h1036v-249l-642 -1209h-369l642 1169h-667v289z" />
    <glyph glyph-name="eight" unicode="8" horiz-adv-x="1246" 
d="M625 -20q-155 0 -277 53.5t-193 157t-71 242.5q0 124 57 219t159 152q-154 110 -154 285q0 174 134 281.5t345 107.5q209 0 342 -107.5t133 -281.5t-149 -285q101 -57 158 -152t57 -219q0 -208 -152 -330.5t-389 -122.5zM625 897q74 0 126.5 49.5t52.5 122.5
q0 71 -52.5 120t-126.5 49q-75 0 -127 -48.5t-52 -120.5q0 -73 52 -122.5t127 -49.5zM625 271q94 0 154.5 55t60.5 150q0 92 -61 147.5t-154 55.5q-94 0 -154.5 -55t-60.5 -148q0 -95 60.5 -150t154.5 -55z" />
    <glyph glyph-name="nine" unicode="9" horiz-adv-x="1246" 
d="M628 1477q151 0 275.5 -67.5t196 -185.5t71.5 -259q0 -178 -131 -358l-443 -607h-367l371 490q-34 -2 -50 -2q-195 0 -335 134t-141 346q0 145 76.5 262.5t203 182t273.5 64.5zM394 959q-2 -101 63.5 -169t174.5 -68q104 0 167.5 65t66.5 165q4 103 -58 168.5t-171 65.5
q-106 0 -173.5 -64t-69.5 -163z" />
    <glyph glyph-name="colon" unicode=":" horiz-adv-x="639" 
d="M317 622q-73 0 -126.5 53.5t-53.5 128.5q0 73 53.5 127t126.5 54q75 0 129 -53.5t54 -127.5q0 -75 -54 -128.5t-129 -53.5zM317 -20q-73 0 -126.5 53.5t-53.5 126.5q0 75 53.5 128.5t126.5 53.5q75 0 129 -53.5t54 -128.5q0 -74 -54 -127t-129 -53z" />
    <glyph glyph-name="semicolon" unicode=";" horiz-adv-x="671" 
d="M365 622q-74 0 -127.5 53.5t-53.5 128.5q0 74 54 127.5t127 53.5q74 0 128 -53.5t54 -127.5q0 -75 -54 -128.5t-128 -53.5zM95 -370l126 664h334l-229 -664h-231z" />
    <glyph glyph-name="less" unicode="&#x3c;" horiz-adv-x="1328" 
d="M1209 1486v-270l-879 -444l879 -444v-275l-1130 572v294z" />
    <glyph glyph-name="equal" unicode="=" horiz-adv-x="1343" 
d="M210 810v245h923v-245h-923zM210 362v244h923v-244h-923z" />
    <glyph glyph-name="greater" unicode="&#x3e;" horiz-adv-x="1328" 
d="M119 1486l1131 -567v-294l-1131 -572v275l879 444l-879 444v270z" />
    <glyph glyph-name="question" unicode="?" horiz-adv-x="1081" 
d="M406 464v102q0 94 45.5 148t147.5 105q123 61 123 199q0 96 -52.5 144t-138.5 48q-88 0 -140 -49.5t-52 -130.5q0 -34 13 -90l-292 39q-5 40 -5 71q0 190 130 309t341 119q212 0 348 -121.5t136 -329.5q0 -85 -23 -153.5t-63 -114.5t-84 -76t-97 -50q-77 -29 -77 -103
v-66h-260zM540 -20q-76 0 -129 52.5t-53 127.5t53.5 128t128.5 53q73 0 125.5 -53t52.5 -128t-52 -127.5t-126 -52.5z" />
    <glyph glyph-name="at" unicode="@" horiz-adv-x="1771" 
d="M889 -225q-161 0 -306.5 62t-251 167t-168 251.5t-62.5 308.5q0 159 60 303.5t163.5 250.5t250.5 169t314 63q134 0 256 -40t218 -113t167 -170t109 -215t38 -244q0 -107 -27.5 -186.5t-75 -124t-104 -66t-121.5 -21.5q-94 0 -158.5 20.5t-116.5 88.5h-17
q-45 -57 -112 -86t-142 -29q-108 0 -185 56.5t-77 156.5q0 44 17.5 81t42.5 60.5t63 43t69 29.5t71 20l202 51v33q0 54 -29 76t-82 22q-59 0 -93 -24t-45 -86l-211 48q26 101 115.5 157t233.5 56q51 0 95.5 -7t90 -27t77.5 -51t52 -82.5t20 -118.5v-184q0 -72 28.5 -105.5
t94.5 -33.5q69 0 105 47.5t36 163.5q0 131 -45.5 246t-125 197t-192 129.5t-240.5 47.5q-172 0 -312 -81.5t-217 -218.5t-77 -300q0 -125 48 -238t129 -194.5t193 -129t236 -47.5q174 0 333 97l85 -159q-187 -120 -420 -120zM852 320q27 0 55 7.5t56.5 24t46.5 50.5t18 81
v52l-149 -41q-67 -19 -91.5 -41t-24.5 -58q0 -75 89 -75z" />
    <glyph glyph-name="A" unicode="A" horiz-adv-x="1531" 
d="M1164 0l-100 285h-597l-100 -285h-347l536 1458h419l536 -1458h-347zM566 568h399l-199 571z" />
    <glyph glyph-name="B" unicode="B" horiz-adv-x="1327" 
d="M992 771q265 -77 265 -359q0 -194 -117 -303t-354 -109h-611v1458h482q245 0 370.5 -105t125.5 -299q0 -200 -161 -283zM662 1178h-159v-301h166q90 0 131 42t41 113q0 67 -44 106.5t-135 39.5zM721 289q112 0 159.5 45.5t47.5 115.5q0 168 -209 168h-216v-329h218z" />
    <glyph glyph-name="C" unicode="C" horiz-adv-x="1581" 
d="M828 -20q-216 0 -386.5 91.5t-267.5 263t-97 394.5t97 394.5t267.5 263t386.5 91.5q252 0 439.5 -123t263.5 -338l-318 -114q-42 124 -145 194t-240 70q-180 0 -296 -119t-116 -319t116 -319t296 -119q137 0 240 70t145 194l318 -114q-76 -215 -263.5 -338t-439.5 -123z
" />
    <glyph glyph-name="D" unicode="D" horiz-adv-x="1506" 
d="M175 0v1458h546q345 0 523.5 -195t178.5 -534t-178.5 -534t-523.5 -195h-546zM516 300h188q361 0 361 429q0 431 -361 431h-188v-860z" />
    <glyph glyph-name="E" unicode="E" horiz-adv-x="1163" 
d="M1041 1160h-524v-284h466v-294h-466v-282h524v-300h-866v1458h866v-298z" />
    <glyph glyph-name="F" unicode="F" horiz-adv-x="1123" 
d="M1058 1160h-541v-284h466v-294h-466v-582h-342v1458h883v-298z" />
    <glyph glyph-name="G" unicode="G" horiz-adv-x="1647" 
d="M809 -20q-211 0 -377 91.5t-260.5 261.5t-94.5 392q0 225 97 397t267.5 264t386.5 92q214 0 383.5 -90.5t265.5 -253.5l-299 -159q-52 104 -142 157t-208 53q-181 0 -295.5 -120t-114.5 -331q0 -209 113.5 -335t309.5 -126q86 0 159 25.5t131.5 86.5t79.5 151h-369v271
h689v-807h-265v179q-150 -199 -457 -199z" />
    <glyph glyph-name="H" unicode="H" horiz-adv-x="1609" 
d="M1093 1458h340v-1458h-340v584h-577v-584h-341v1458h341v-580h577v580z" />
    <glyph glyph-name="I" unicode="I" horiz-adv-x="691" 
d="M175 0v1458h341v-1458h-341z" />
    <glyph glyph-name="J" unicode="J" horiz-adv-x="1029" 
d="M424 -20q-204 0 -408 105l144 279q113 -79 220 -79q81 0 118 50.5t37 171.5v951h341v-1016q0 -223 -123 -342.5t-329 -119.5z" />
    <glyph glyph-name="K" unicode="K" horiz-adv-x="1500" 
d="M1047 0l-432 602h-99v-602h-341v1458h341v-560h94l442 560h415l-561 -698l575 -760h-434z" />
    <glyph glyph-name="L" unicode="L" horiz-adv-x="994" 
d="M516 300h442v-300h-783v1458h341v-1158z" />
    <glyph glyph-name="M" unicode="M" horiz-adv-x="2001" 
d="M1887 0h-340l-95 1064l-339 -1064h-223l-339 1067l-96 -1067h-341l124 1458h493l269 -833l273 833h491z" />
    <glyph glyph-name="N" unicode="N" horiz-adv-x="1691" 
d="M1176 1458h340v-1458h-400l-601 996v-996h-340v1458h396l605 -989v989z" />
    <glyph glyph-name="O" unicode="O" horiz-adv-x="1656" 
d="M828 -20q-162 0 -300.5 53.5t-238 150t-156 237.5t-56.5 308q0 223 97 394.5t267.5 263t386.5 91.5t386.5 -91.5t267.5 -263t97 -394.5q0 -167 -56.5 -308t-156 -237.5t-238 -150t-300.5 -53.5zM828 291q180 0 297 119t117 319t-117 319t-297 119t-296 -119t-116 -319
t116 -319t296 -119z" />
    <glyph glyph-name="P" unicode="P" horiz-adv-x="1327" 
d="M800 1458q142 0 250.5 -65t165 -173.5t56.5 -241.5q0 -206 -128.5 -338t-343.5 -132h-284v-508h-341v1458h625zM742 791q204 0 204 193q0 89 -50.5 140t-153.5 51h-226v-384h226z" />
    <glyph glyph-name="Q" unicode="Q" horiz-adv-x="1693" 
d="M1632 -57l-280 -107l-183 208q-151 -64 -332 -64q-164 0 -304.5 53.5t-241.5 150t-158.5 237.5t-57.5 308q0 223 98.5 394.5t271.5 263t392 91.5q220 0 393 -91.5t271.5 -263t98.5 -394.5q0 -317 -193 -521zM414 729q0 -212 118.5 -334t304.5 -122q187 0 305.5 122
t118.5 334q0 200 -119.5 319t-304.5 119t-304 -119t-119 -319z" />
    <glyph glyph-name="R" unicode="R" horiz-adv-x="1359" 
d="M939 0l-382 637h-41v-637h-341v1458h544q124 0 217.5 -34.5t149.5 -95.5t83.5 -139.5t27.5 -173.5q0 -148 -79.5 -240.5t-222.5 -123.5l448 -651h-404zM516 1178v-320h148q209 0 209 159q0 161 -209 161h-148z" />
    <glyph glyph-name="S" unicode="S" horiz-adv-x="1306" 
d="M670 -20q-159 0 -288 49t-215 148.5t-107 237.5l353 81q11 -117 84.5 -179t187.5 -62q86 0 137 39t50 114q0 25 -9 47t-21 38t-38 33t-44.5 27t-58 24.5t-60 21.5t-68.5 22q-14 5 -22 7q-43 14 -70.5 23.5t-68.5 25.5t-68 30t-61 35t-56.5 42t-46 49.5t-37 59.5t-22 70
t-8.5 83q0 200 145.5 316t378.5 116q101 0 192 -21.5t172.5 -66t139.5 -122.5t80 -183l-328 -81q-34 199 -235 199q-89 0 -145 -37.5t-56 -110.5q0 -43 41.5 -76.5t84 -49.5t137.5 -45q21 -7 32 -10q57 -18 94.5 -31t92 -36t90.5 -46t76.5 -57.5t64 -73t39.5 -91t16 -112.5
q0 -114 -45.5 -202t-124 -140.5t-176 -78.5t-209.5 -26z" />
    <glyph glyph-name="T" unicode="T" horiz-adv-x="1083" 
d="M1048 1458v-298h-337v-1160h-337v1160h-340v298h1014z" />
    <glyph glyph-name="U" unicode="U" horiz-adv-x="1458" 
d="M729 -20q-100 0 -186.5 19t-160 61t-126 104.5t-82 152.5t-29.5 202v939h340v-893q0 -151 66.5 -218.5t177.5 -67.5t177.5 67.5t66.5 218.5v893h340v-939q0 -112 -29.5 -202t-82 -152.5t-126 -104.5t-160 -61t-186.5 -19z" />
    <glyph glyph-name="V" unicode="V" horiz-adv-x="1494" 
d="M1112 1458h362l-539 -1458h-379l-536 1458h362l365 -1065z" />
    <glyph glyph-name="W" unicode="W" horiz-adv-x="2219" 
d="M404 0l-369 1458h354l265 -1073l313 1073h285l311 -1073l267 1073h353l-368 -1458h-445l-261 829l-260 -829h-445z" />
    <glyph glyph-name="X" unicode="X" horiz-adv-x="1579" 
d="M20 0l568 760l-555 698h413l344 -450l343 450h413l-555 -698l568 -760h-433l-336 482l-337 -482h-433z" />
    <glyph glyph-name="Y" unicode="Y" horiz-adv-x="1317" 
d="M1310 1458l-479 -761v-697h-341v692l-483 766h375l277 -463l278 463h373z" />
    <glyph glyph-name="Z" unicode="Z" horiz-adv-x="1233" 
d="M494 300h651v-300h-1057v267l648 893h-647v298h1048v-267z" />
    <glyph glyph-name="bracketleft" unicode="[" horiz-adv-x="729" 
d="M140 -512v2048h550v-229h-264v-1590h264v-229h-550z" />
    <glyph glyph-name="backslash" unicode="\" horiz-adv-x="1241" 
d="M966 -418l-998 1954h307l998 -1954h-307z" />
    <glyph glyph-name="bracketright" unicode="]" horiz-adv-x="720" 
d="M580 -512h-550v229h264v1590h-264v229h550v-2048z" />
    <glyph glyph-name="asciicircum" unicode="^" horiz-adv-x="1434" 
d="M1377 327h-274l-386 850l-386 -850h-274l512 1131h296z" />
    <glyph glyph-name="underscore" unicode="_" horiz-adv-x="1299" 
d="M138 -275v275h1024v-275h-1024z" />
    <glyph glyph-name="grave" unicode="`" horiz-adv-x="488" 
d="M269 1191l-227 270l158 112l266 -382h-197z" />
    <glyph glyph-name="a" unicode="a" horiz-adv-x="1148" 
d="M1026 274q0 -161 25 -244v-30h-301l-23 111q-53 -65 -144.5 -98t-189.5 -33q-51 0 -96.5 9t-88.5 30t-74 53.5t-49.5 83t-18.5 114.5t19.5 114.5t51 85t82.5 62t102.5 45t122.5 33.5l169 41q57 13 80 32t23 51q0 41 -26.5 66.5t-59.5 33.5t-74 8q-167 0 -191 -150
l-288 50q35 166 157 243.5t342 77.5q70 0 128 -8t120 -32.5t104.5 -64.5t70 -110.5t27.5 -164.5v-409zM496 197q96 0 166.5 69.5t70.5 198.5l-241 -74q-56 -16 -85.5 -37.5t-29.5 -61.5q0 -45 34 -70t85 -25z" />
    <glyph glyph-name="b" unicode="b" horiz-adv-x="1336" 
d="M772 1064q104 0 195.5 -37.5t161 -105.5t109.5 -172t40 -230t-40 -229.5t-109.5 -172t-161 -105.5t-195.5 -37q-105 0 -189 37t-127 106l-7 -118h-309v1536h326v-600q44 61 126 94.5t180 33.5zM695 244q111 0 184 74.5t73 200.5q0 127 -73 201.5t-184 74.5t-183.5 -75
t-72.5 -201q0 -125 72.5 -200t183.5 -75z" />
    <glyph glyph-name="c" unicode="c" horiz-adv-x="1196" 
d="M625 -20q-254 0 -413 150.5t-159 392.5t159 391.5t413 149.5q209 0 348.5 -103.5t173.5 -292.5l-301 -30q-39 171 -225 171q-110 0 -176 -79t-66 -207q0 -129 66 -207.5t176 -78.5q186 0 225 171l301 -30q-34 -188 -176 -293t-346 -105z" />
    <glyph glyph-name="d" unicode="d" horiz-adv-x="1336" 
d="M870 1536h326v-1536h-308l-8 117q-42 -68 -126.5 -105t-188.5 -37t-196 37t-161 105.5t-109 172t-40 229.5t40 230t109.5 172t161 105.5t195.5 37.5q98 0 179 -33t126 -94v599zM641 244q111 0 183.5 75t72.5 200q0 126 -72.5 201t-183.5 75t-183.5 -74.5t-72.5 -201.5
t72.5 -201t183.5 -74z" />
    <glyph glyph-name="e" unicode="e" horiz-adv-x="1205" 
d="M1143 535l-4 -77h-759q10 -109 77.5 -166t167.5 -57q152 0 204 125l300 -41q-50 -161 -184 -250t-318 -89q-264 0 -417 143t-153 398q0 254 153.5 399.5t405.5 145.5q115 0 209 -31.5t166 -94.5t111.5 -166.5t40.5 -238.5zM618 838q-189 0 -229 -170h433q-13 82 -68 126
t-136 44z" />
    <glyph glyph-name="f" unicode="f" horiz-adv-x="774" 
d="M763 1278q-97 0 -137 -15q-81 -32 -81 -141v-78h218v-249h-218v-795h-326v795h-205v249h205v79q0 76 14 136.5t37.5 103.5t62 74.5t81.5 50t102 29.5t116 15t131 4v-258z" />
    <glyph glyph-name="g" unicode="g" horiz-adv-x="1297" 
d="M846 1044h311v-959q0 -577 -568 -577q-424 0 -548 326l271 112q45 -97 106.5 -141.5t157.5 -44.5q253 0 253 301v102q-46 -56 -126.5 -90.5t-175.5 -34.5q-129 0 -236.5 62.5t-173 181.5t-65.5 272q0 115 38 211.5t103.5 161.5t152.5 101t184 36q103 0 185 -38.5
t124 -103.5zM613 300q106 0 177 73t71 181t-70.5 180.5t-177.5 72.5t-177 -72t-70 -181t71 -181.5t176 -72.5z" />
    <glyph glyph-name="h" unicode="h" horiz-adv-x="1310" 
d="M812 1064q184 0 282 -100t98 -297v-667h-328v615q0 189 -177 189q-42 0 -77.5 -10.5t-69 -36t-53.5 -76t-21 -121.5v-560h-326v1536h326v-616q125 144 346 144z" />
    <glyph glyph-name="i" unicode="i" horiz-adv-x="608" 
d="M306 1172q-76 0 -130 53t-54 129q0 75 54 128t130 53q74 0 127.5 -53t53.5 -128t-53.5 -128.5t-127.5 -53.5zM140 0v1044h328v-1044h-328z" />
    <glyph glyph-name="j" unicode="j" horiz-adv-x="612" 
d="M308 1172q-76 0 -130 53t-54 129q0 75 54 128t130 53q74 0 127.5 -53t53.5 -128t-53.5 -128.5t-127.5 -53.5zM-64 -490v252q66 0 106 14.5t62 51.5t29 85t7 129v1002h332v-1002q0 -272 -126.5 -402t-409.5 -130z" />
    <glyph glyph-name="k" unicode="k" horiz-adv-x="1226" 
d="M840 0l-318 424h-52v-424h-330v1536h330v-889h46l319 397h365l-409 -488l442 -556h-393z" />
    <glyph glyph-name="l" unicode="l" horiz-adv-x="610" 
d="M140 0v1536h330v-1536h-330z" />
    <glyph glyph-name="m" unicode="m" horiz-adv-x="1929" 
d="M1429 1064q177 0 277.5 -84.5t100.5 -241.5v-738h-327v644q0 79 -43 119.5t-109 40.5q-83 0 -136 -54t-53 -179v-571h-330v642q0 81 -43.5 121.5t-111.5 40.5q-82 0 -135.5 -57t-53.5 -194v-553h-325v1044h325v-120q112 140 307 140q118 0 202.5 -39t126.5 -113
q113 152 328 152z" />
    <glyph glyph-name="n" unicode="n" horiz-adv-x="1312" 
d="M795 1064q194 0 295.5 -94t101.5 -268v-702h-328v633q0 89 -48 130t-126 41q-45 0 -82.5 -11.5t-70.5 -38t-51.5 -76t-19.5 -118.5v-560h-326v1044h326v-112q119 132 329 132z" />
    <glyph glyph-name="o" unicode="o" horiz-adv-x="1283" 
d="M641 -20q-262 0 -424 145t-162 398q0 252 161.5 396.5t424.5 144.5q264 0 425.5 -144.5t161.5 -396.5q0 -253 -162 -398t-425 -145zM637 236q120 0 193.5 79t73.5 208q0 128 -73.5 207t-193.5 79q-115 0 -186.5 -79t-71.5 -207t71.5 -207.5t186.5 -79.5z" />
    <glyph glyph-name="p" unicode="p" horiz-adv-x="1336" 
d="M772 1064q104 0 195.5 -37t161 -105.5t109.5 -172.5t40 -230t-40 -230t-109.5 -172t-161 -105t-195.5 -37q-98 0 -180 33.5t-126 94.5v-605h-326v1546h309l8 -122q42 68 126 105t189 37zM696 244q111 0 183 74t72 201t-72.5 201.5t-182.5 74.5q-111 0 -184 -75t-73 -201
q0 -125 73 -200t184 -75z" />
    <glyph glyph-name="q" unicode="q" horiz-adv-x="1336" 
d="M887 1044h309v-1546h-326v604q-45 -61 -126 -94t-179 -33q-104 0 -196 37t-161 105t-109 172t-40 230t40 230t109 172.5t161 105.5t196 37t188 -36.5t127 -104.5zM640 244q111 0 184 75t73 200q0 126 -73 201t-184 75q-110 0 -182.5 -74.5t-72.5 -201.5t72 -201t183 -74z
" />
    <glyph glyph-name="r" unicode="r" horiz-adv-x="813" 
d="M452 883q42 69 138.5 120.5t205.5 52.5v-289q-176 0 -251 -58.5t-75 -215.5v-493h-330v1044h312v-161z" />
    <glyph glyph-name="s" unicode="s" horiz-adv-x="1008" 
d="M518 -20q-187 0 -311 72.5t-152 217.5l271 76q45 -142 194 -142q55 0 92.5 19.5t36.5 66.5q0 30 -18.5 51.5t-54.5 36t-74 25.5t-94 26.5t-97 31.5q-50 19 -87 40t-72 54t-53.5 81t-18.5 110q0 156 116 236.5t305 80.5q167 0 280 -66.5t143 -210.5l-250 -55
q-45 119 -172 119q-56 0 -91 -18.5t-35 -55.5q0 -15 6.5 -27.5t21 -22.5t29.5 -17.5t40.5 -14.5t45.5 -12.5t52.5 -13.5t54.5 -14q55 -15 97 -31t90 -44t78.5 -62.5t51 -87.5t20.5 -118q0 -89 -36 -154.5t-99.5 -103t-140.5 -55.5t-169 -18z" />
    <glyph glyph-name="t" unicode="t" horiz-adv-x="827" 
d="M545 0q-159 0 -245 88.5t-86 250.5v456h-202v249h62q90 0 134.5 45t44.5 165v122h293v-332h207v-249h-207v-420q0 -130 114 -130h93v-245h-208z" />
    <glyph glyph-name="u" unicode="u" horiz-adv-x="1310" 
d="M844 1044h326v-1044h-308l-8 123q-119 -143 -338 -143q-195 0 -296.5 94t-101.5 267v703h328v-633q0 -89 48.5 -130t125.5 -41q46 0 83.5 11.5t70 38t51 76t19.5 118.5v560z" />
    <glyph glyph-name="v" unicode="v" horiz-adv-x="1166" 
d="M828 1044h345l-450 -1044h-285l-445 1044h343l244 -677z" />
    <glyph glyph-name="w" unicode="w" horiz-adv-x="1804" 
d="M1465 1044h336l-366 -1046h-305l-228 654l-231 -654h-308l-360 1046h336l202 -641l234 641h251l233 -638z" />
    <glyph glyph-name="x" unicode="x" horiz-adv-x="1263" 
d="M-1 0l436 523l-436 521h408l225 -308l226 308h406l-438 -523l438 -521h-406l-224 304l-225 -304h-410z" />
    <glyph glyph-name="y" unicode="y" horiz-adv-x="1161" 
d="M835 1044h333l-656 -1535h-329l247 540l-437 995h355l234 -646z" />
    <glyph glyph-name="z" unicode="z" horiz-adv-x="963" 
d="M921 1044l-431 -795h411v-249h-868l428 794h-390v250h850z" />
    <glyph glyph-name="braceleft" unicode="{" horiz-adv-x="709" 
d="M523 -488q-157 0 -247 81.5t-90 206.5v397q0 48 -2 80t-10 56t-16.5 37.5t-27.5 25t-36 18t-49 16.5q-9 3 -13 4v178q81 26 102 41q39 28 48 104q4 36 4 95v396q0 125 90 206.5t247 81.5h136v-230h-73q-43 0 -69 -25t-26 -76v-349q0 -72 -9 -120t-35.5 -92t-79 -73
t-134.5 -47q82 -18 134.5 -47.5t79 -73.5t35.5 -92t9 -119v-353q0 -54 21.5 -76t73.5 -22h73v-229h-136z" />
    <glyph glyph-name="bar" unicode="|" horiz-adv-x="622" 
d="M210 -307v1843h202v-1843h-202z" />
    <glyph glyph-name="braceright" unicode="}" horiz-adv-x="706" 
d="M183 -488h-136v229h73q52 0 73.5 22t21.5 76v353q0 71 9 119t35.5 92t79 73.5t134.5 47.5q-82 18 -134.5 47t-79 73t-35.5 92t-9 120v349q0 51 -26 76t-69 25h-73v230h136q157 0 247 -81.5t90 -206.5v-396q0 -95 14.5 -140t38 -60t89.5 -36q2 -1 3.5 -1.5t4 -1t4.5 -1.5
v-178q-82 -26 -103 -41q-39 -28 -47 -105q-4 -36 -4 -91v-397q0 -125 -90 -206.5t-247 -81.5z" />
    <glyph glyph-name="asciitilde" unicode="~" horiz-adv-x="1366" 
d="M888 306q-48 0 -90 11t-78 34t-55.5 38t-49 44.5l-31.5 31.5q-44 42 -83 42q-62 0 -92.5 -55t-32.5 -132h-228q-8 187 88 301t272 114q90 0 149.5 -34.5t115.5 -111.5q16 -20 25 -30t28.5 -21t40.5 -11q53 0 89 50.5t30 134.5h225q18 -173 -75 -289.5t-248 -116.5z" />
    <glyph glyph-name="exclamdown" unicode="&#xa1;" horiz-adv-x="675" 
d="M336 1060q76 0 129 -53t53 -127q0 -76 -53 -129t-129 -53q-75 0 -128 53t-53 129q0 74 53 127t128 53zM206 559h259l35 -977h-329z" />
    <glyph glyph-name="cent" unicode="&#xa2;" horiz-adv-x="1125" 
d="M642 494q114 0 181 108l223 -198q-129 -152 -331 -178v-226h-189v232q-189 37 -304.5 182.5t-115.5 355.5t115.5 355.5t304.5 182.5v228h189v-222q202 -26 331 -178l-223 -197q-68 108 -181 108q-96 0 -160.5 -76t-64.5 -201t64.5 -200.5t160.5 -75.5z" />
    <glyph glyph-name="sterling" unicode="&#xa3;" horiz-adv-x="1330" 
d="M127 0v192l58 14q91 23 91 128v252h-149v232h149v131q0 234 141.5 383.5t366.5 149.5q80 0 152 -21.5t134.5 -65.5t99.5 -121.5t37 -178.5q0 -32 -5 -74l-281 -64q14 55 14 100q0 79 -43 118.5t-116 39.5q-97 0 -149.5 -67t-52.5 -199v-131h269v-232h-269v-309h600v-277
h-1047z" />
    <glyph glyph-name="currency" unicode="&#xa4;" horiz-adv-x="1394" 
d="M324 196l-171 181l109 109q-71 116 -71 256t72 259l-108 107l172 180l112 -112q120 72 260 72q139 0 256 -72l111 111l174 -175l-109 -109q71 -117 71 -260q0 -142 -71 -259l107 -107l-171 -181l-112 113q-119 -70 -258 -70q-138 0 -260 70zM697 482q110 0 185 79t75 184
q0 107 -76.5 182.5t-183.5 75.5q-108 0 -184 -77.5t-76 -186.5q0 -110 77 -183.5t183 -73.5z" />
    <glyph glyph-name="yen" unicode="&#xa5;" horiz-adv-x="1440" 
d="M552 0v196h-324v190h324v186h-324v190h279l-441 696h374l280 -463l282 463h373l-441 -696h278v-190h-320v-186h320v-190h-320v-196h-340z" />
    <glyph glyph-name="brokenbar" unicode="&#xa6;" horiz-adv-x="622" 
d="M210 799v737h202v-737h-202zM210 -307v737h202v-737h-202z" />
    <glyph glyph-name="section" unicode="&#xa7;" horiz-adv-x="1285" 
d="M1050 233q103 -96 103 -247q0 -82 -27 -149.5t-73.5 -113.5t-110.5 -77t-137 -45.5t-154 -14.5q-217 0 -366 101.5t-178 284.5l283 65q15 -110 88.5 -168.5t183.5 -58.5q94 0 151.5 41t56.5 123q0 44 -21 77t-75.5 59.5t-89 39t-119.5 37.5l-9 3q-50 15 -84.5 26.5
t-80 31t-76.5 39t-64 48.5t-52.5 61.5t-32.5 76.5t-13 95q0 162 113 264q-113 91 -113 246q0 182 131 285t339 103q92 0 174.5 -19.5t155 -59.5t123.5 -109t69 -161l-265 -67q-36 192 -241 192q-91 0 -150 -39t-59 -118q0 -29 15.5 -53.5t35.5 -40.5t61.5 -33t70 -26
t84.5 -26q11 -3 17 -5q56 -17 89 -28t85.5 -32t84.5 -41t70 -51t59.5 -66t36 -82.5t14.5 -103.5q0 -163 -103 -264zM430 575q0 -29 15.5 -53.5t35.5 -40.5t61.5 -33t70 -26t84.5 -26q11 -3 17 -5q62 -18 93 -29q64 38 63 122q0 29 -8.5 53t-34.5 44.5t-42 33t-64 30.5
t-65 23.5t-78 24.5q-7 2 -12 3.5t-10 3.5l-18 6q-108 -32 -108 -131z" />
    <glyph glyph-name="dieresis" unicode="&#xa8;" horiz-adv-x="1001" 
d="M276 1172q-76 0 -130 53t-54 129q0 75 54 128t130 53q74 0 127.5 -53t53.5 -128t-53.5 -128.5t-127.5 -53.5zM726 1172q-76 0 -130 53t-54 129q0 75 54 128t130 53q74 0 127.5 -53t53.5 -128t-53.5 -128.5t-127.5 -53.5z" />
    <glyph glyph-name="copyright" unicode="&#xa9;" horiz-adv-x="1707" 
d="M853 -20q-152 0 -291 59.5t-239.5 160t-160 239.5t-59.5 291t59.5 291t160 239.5t239.5 160t291 59.5t291 -59.5t240 -160t160.5 -239.5t59.5 -291t-59.5 -291t-160.5 -239.5t-240 -160t-291 -59.5zM853 147q161 0 295 77t211 211t77 295q0 120 -45.5 228t-123 186
t-185.5 123.5t-229 45.5q-120 0 -228 -45.5t-186 -123.5t-123.5 -186t-45.5 -228q0 -121 45.5 -229t123.5 -185.5t186 -123t228 -45.5zM858 310q-173 0 -296 123t-123 296q0 174 122.5 296.5t296.5 122.5q99 0 186.5 -43t145.5 -118l-144 -111q-65 95 -188 95
q-100 0 -167.5 -68.5t-67.5 -173.5q0 -104 67.5 -172t167.5 -68q122 0 188 94l144 -110q-58 -76 -145.5 -119.5t-186.5 -43.5z" />
    <glyph glyph-name="ordfeminine" unicode="&#xaa;" horiz-adv-x="949" 
d="M601 1458h182v-615h-182v79q-78 -91 -200 -91q-126 0 -214.5 93.5t-88.5 226.5t88.5 226t214.5 93q123 0 200 -91v79zM440 990q66 0 113.5 47t47.5 114t-47.5 113.5t-113.5 46.5q-67 0 -114 -46.5t-47 -113.5t47 -114t114 -47z" />
    <glyph glyph-name="guillemotleft" unicode="&#xab;" horiz-adv-x="1141" 
d="M344 290l-312 377l312 377h259l-312 -377l312 -377h-259zM836 290l-311 377l311 377h261l-311 -377l311 -377h-261z" />
    <glyph glyph-name="logicalnot" unicode="&#xac;" horiz-adv-x="1686" 
d="M1214 256v524h-1112v264h1374v-788h-262z" />
    <glyph glyph-name="uni00AD" unicode="&#xad;" horiz-adv-x="992" 
d="M138 398v279h716v-279h-716z" />
    <glyph glyph-name="registered" unicode="&#xae;" horiz-adv-x="1760" 
d="M879 1480q152 0 291.5 -59.5t240 -160t160 -239.5t59.5 -291t-59.5 -291t-160 -239.5t-240 -160t-291.5 -59.5t-290.5 59.5t-239.5 160t-160.5 239.5t-59.5 291t59.5 291t160.5 239.5t239.5 160t290.5 59.5zM879 147q161 0 295 77t211.5 211t77.5 295q0 120 -45.5 228
t-123.5 186t-186 123.5t-229 45.5q-120 0 -228 -45.5t-185.5 -123.5t-123 -186t-45.5 -228q0 -161 77 -295t210.5 -211t294.5 -77zM1207 893q0 -70 -34.5 -126t-92.5 -87l151 -358h-199l-127 330h-108v-330h-182v816h348q102 0 173 -71.5t71 -173.5zM797 978v-177h137
q41 0 69.5 25.5t28.5 63.5q0 39 -28 63.5t-70 24.5h-137z" />
    <glyph glyph-name="macron" unicode="&#xaf;" horiz-adv-x="942" 
d="M136 1219v189h670v-189h-670z" />
    <glyph glyph-name="degree" unicode="&#xb0;" horiz-adv-x="906" 
d="M453 852q-131 0 -222 90.5t-91 222.5q0 131 91 222t222 91t222 -91t91 -222q0 -132 -91 -222.5t-222 -90.5zM453 1030q57 0 95 39t38 96t-38 95.5t-95 38.5t-95.5 -38.5t-38.5 -95.5t38.5 -96t95.5 -39z" />
    <glyph glyph-name="plusminus" unicode="&#xb1;" horiz-adv-x="1254" 
d="M509 377v380h-379v244h379v379h245v-379h379v-244h-379v-380h-245zM118 -1v245h1012v-245h-1012z" />
    <glyph glyph-name="acute" unicode="&#xb4;" horiz-adv-x="488" 
d="M22 1191l266 382l158 -112l-227 -270h-197z" />
    <glyph glyph-name="uni00B5" unicode="&#xb5;" horiz-adv-x="1350" 
d="M913 1044h280v-1044h-280v120q-122 -140 -302 -140q-75 0 -142 26v-518h-259v1556h280v-617q0 -85 59 -143.5t144 -58.5q93 0 156.5 58.5t63.5 143.5v617z" />
    <glyph glyph-name="paragraph" unicode="&#xb6;" horiz-adv-x="1192" 
d="M463 -307v1079h-31q-171 0 -268 89.5t-97 254.5t96.5 253.5t268.5 88.5h194v-1765h-163zM817 -307v1765h165v-1765h-165z" />
    <glyph glyph-name="periodcentered" unicode="&#xb7;" horiz-adv-x="580" 
d="M290 605q-54 0 -93 38.5t-39 93.5q0 53 39.5 92.5t92.5 39.5q52 0 92 -39.5t40 -92.5q0 -55 -39.5 -93.5t-92.5 -38.5z" />
    <glyph glyph-name="cedilla" unicode="&#xb8;" horiz-adv-x="583" 
d="M293 -532q-88 0 -152.5 44.5t-87.5 113.5l142 47q11 -29 36.5 -45t54.5 -16q35 0 60.5 22.5t25.5 60.5q0 39 -25 61t-62 22q-47 0 -71 -33l-115 65l125 224h151l-91 -152q23 5 43 5q84 0 138.5 -54t54.5 -138q0 -95 -66 -161t-161 -66z" />
    <glyph glyph-name="ordmasculine" unicode="&#xba;" horiz-adv-x="871" 
d="M434 839q-144 0 -242.5 93t-98.5 227t98.5 226.5t242.5 92.5t244 -92.5t100 -226.5t-100 -227t-244 -93zM434 998q67 0 114 47t47 114t-47 113.5t-114 46.5q-66 0 -113 -46.5t-47 -113.5t47 -114t113 -47z" />
    <glyph glyph-name="guillemotright" unicode="&#xbb;" horiz-adv-x="1141" 
d="M44 290l312 377l-312 377h259l312 -377l-312 -377h-259zM537 290l311 377l-311 377h261l311 -377l-311 -377h-261z" />
    <glyph glyph-name="onequarter" unicode="&#xbc;" horiz-adv-x="1631" 
d="M370 536h-189l2 749l-185 -145l-2 177l199 141h175v-922zM1023 1458h202l-822 -1458h-203zM1593 334v-139h-95v-195h-182v195h-418v165l354 562h246v-588h95zM1049 334h267v446z" />
    <glyph glyph-name="onehalf" unicode="&#xbd;" horiz-adv-x="1664" 
d="M370 536h-189l2 749l-185 -145l-2 177l199 141h175v-922zM1023 1458h202l-822 -1458h-203zM1188 147h426v-147h-633v178q112 70 194 132.5t128 108t72.5 88t34 71t7.5 58.5q0 84 -36 116.5t-88 28.5q-64 -5 -90 -47.5t-23 -104.5h-196q-4 133 88 220t234 87
q132 0 212.5 -78t81.5 -203q1 -135 -102 -268.5t-310 -239.5z" />
    <glyph glyph-name="threequarters" unicode="&#xbe;" horiz-adv-x="1847" 
d="M659 830q0 -125 -91 -211.5t-229 -86.5q-135 0 -225.5 77t-90.5 194h196q0 -58 33 -87t87 -29q60 0 93.5 35t33.5 101q0 129 -151 129h-39v143h26q67 0 98.5 30.5t31.5 93.5q0 54 -27.5 83t-72.5 29q-102 0 -102 -123l-190 1q0 123 82 196t210 73q121 0 198.5 -71
t77.5 -184q0 -112 -82 -175q133 -70 133 -218zM1239 1458h202l-822 -1458h-203zM1809 334v-139h-95v-195h-182v195h-418v165l354 562h246v-588h95zM1265 334h267v446z" />
    <glyph glyph-name="questiondown" unicode="&#xbf;" horiz-adv-x="1081" 
d="M525 1064q76 0 129 -52.5t53 -127.5t-53.5 -128t-128.5 -53q-73 0 -125.5 53t-52.5 128t52 127.5t126 52.5zM659 580v-102q0 -94 -45.5 -148t-147.5 -105q-123 -61 -123 -199q0 -96 52.5 -144t138.5 -48q88 0 140 49.5t52 130.5q0 34 -13 90l292 -39q5 -40 5 -71
q0 -190 -130 -309t-341 -119q-212 0 -348 121.5t-136 329.5q0 85 23 153.5t63 114.5t84 76t97 50q77 29 77 103v66h260z" />
    <glyph glyph-name="Agrave" unicode="&#xc0;" horiz-adv-x="1531" 
d="M865 1589h-197l-227 269l158 112zM1164 0l-100 285h-597l-100 -285h-347l536 1458h419l536 -1458h-347zM566 568h399l-199 571z" />
    <glyph glyph-name="Aacute" unicode="&#xc1;" horiz-adv-x="1531" 
d="M1093 1858l-227 -269h-197l266 381zM1164 0l-100 285h-597l-100 -285h-347l536 1458h419l536 -1458h-347zM566 568h399l-199 571z" />
    <glyph glyph-name="Acircumflex" unicode="&#xc2;" horiz-adv-x="1531" 
d="M766 1739l-130 -150h-197l232 300h190l232 -300h-198zM1164 0l-100 285h-597l-100 -285h-347l536 1458h419l536 -1458h-347zM566 568h399l-199 571z" />
    <glyph glyph-name="Atilde" unicode="&#xc3;" horiz-adv-x="1531" 
d="M655 1748q-38 0 -57 -36.5t-19 -94.5h-170q0 122 64 198t175 76q105 0 169 -66q10 -9 25 -26.5t23.5 -26.5t23 -16.5t29.5 -7.5q68 0 68 130h172q0 -120 -63 -197t-177 -77q-64 0 -102 20t-68 55q-3 4 -16 20t-18 20.5t-15.5 13.5t-21 12t-22.5 3zM1164 0l-100 285h-597
l-100 -285h-347l536 1458h419l536 -1458h-347zM566 568h399l-199 571z" />
    <glyph glyph-name="Adieresis" unicode="&#xc4;" horiz-adv-x="1531" 
d="M541 1536q-76 0 -130 53t-54 129q0 75 54 128t130 53q74 0 127.5 -53t53.5 -128t-53.5 -128.5t-127.5 -53.5zM991 1536q-76 0 -130 53t-54 129q0 75 54 128t130 53q74 0 127.5 -53t53.5 -128t-53.5 -128.5t-127.5 -53.5zM1164 0l-100 285h-597l-100 -285h-347l536 1458
h419l536 -1458h-347zM566 568h399l-199 571z" />
    <glyph glyph-name="Aring" unicode="&#xc5;" horiz-adv-x="1531" 
d="M766 1589q-104 0 -177 73.5t-73 176.5q0 101 73.5 173.5t176.5 72.5q102 0 174.5 -72.5t72.5 -173.5q0 -103 -72.5 -176.5t-174.5 -73.5zM766 1956q-48 0 -80.5 -35t-32.5 -82q0 -52 32 -84.5t81 -32.5t82 32.5t33 84.5q0 47 -33.5 82t-81.5 35zM1164 0l-100 285h-597
l-100 -285h-347l536 1458h419l536 -1458h-347zM566 568h399l-199 571z" />
    <glyph glyph-name="AE" unicode="&#xc6;" horiz-adv-x="1922" 
d="M20 0l491 1458h1288v-299h-547v-281h471v-298h-471v-280h547v-300h-888v285h-448l-88 -285h-355zM555 568h356v592h-180z" />
    <glyph glyph-name="Ccedilla" unicode="&#xc7;" horiz-adv-x="1581" 
d="M828 291q137 0 240 70t145 194l318 -114q-70 -200 -239 -321t-397 -138l-60 -100q23 5 43 5q84 0 138.5 -54t54.5 -138q0 -95 -66 -161t-161 -66q-88 0 -152.5 44.5t-87.5 113.5l142 47q11 -29 36.5 -45t54.5 -16q35 0 60.5 22.5t25.5 60.5q0 39 -25 61t-62 22
q-47 0 -71 -33l-115 65l97 174q-298 26 -484 228t-186 517q0 223 97 394.5t267.5 263t386.5 91.5q252 0 439.5 -123t263.5 -338l-318 -114q-42 124 -145 194t-240 70q-180 0 -296 -119t-116 -319t116 -319t296 -119z" />
    <glyph glyph-name="Egrave" unicode="&#xc8;" horiz-adv-x="1163" 
d="M716 1589h-197l-227 269l158 112zM1041 1160h-524v-284h466v-294h-466v-282h524v-300h-866v1458h866v-298z" />
    <glyph glyph-name="Eacute" unicode="&#xc9;" horiz-adv-x="1163" 
d="M944 1858l-227 -269h-197l266 381zM1041 1160h-524v-284h466v-294h-466v-282h524v-300h-866v1458h866v-298z" />
    <glyph glyph-name="Ecircumflex" unicode="&#xca;" horiz-adv-x="1163" 
d="M617 1739l-130 -150h-197l232 300h190l232 -300h-198zM1041 1160h-524v-284h466v-294h-466v-282h524v-300h-866v1458h866v-298z" />
    <glyph glyph-name="Edieresis" unicode="&#xcb;" horiz-adv-x="1163" 
d="M392 1536q-76 0 -130 53t-54 129q0 75 54 128t130 53q74 0 127.5 -53t53.5 -128t-53.5 -128.5t-127.5 -53.5zM842 1536q-76 0 -130 53t-54 129q0 75 54 128t130 53q74 0 127.5 -53t53.5 -128t-53.5 -128.5t-127.5 -53.5zM1041 1160h-524v-284h466v-294h-466v-282h524
v-300h-866v1458h866v-298z" />
    <glyph glyph-name="Igrave" unicode="&#xcc;" horiz-adv-x="691" 
d="M246 1589l-227 269l158 112l266 -381h-197zM175 0v1458h341v-1458h-341z" />
    <glyph glyph-name="Iacute" unicode="&#xcd;" horiz-adv-x="691" 
d="M247 1589l266 381l158 -112l-227 -269h-197zM175 0v1458h341v-1458h-341z" />
    <glyph glyph-name="Icircumflex" unicode="&#xce;" horiz-adv-x="691" 
d="M214 1589h-197l232 300h190l232 -300h-198l-129 150zM175 0v1458h341v-1458h-341z" />
    <glyph glyph-name="Idieresis" unicode="&#xcf;" horiz-adv-x="691" 
d="M119 1536q-76 0 -130 53t-54 129q0 75 54 128t130 53q74 0 127.5 -53t53.5 -128t-53.5 -128.5t-127.5 -53.5zM569 1536q-76 0 -130 53t-54 129q0 75 54 128t130 53q74 0 127.5 -53t53.5 -128t-53.5 -128.5t-127.5 -53.5zM175 0v1458h341v-1458h-341z" />
    <glyph glyph-name="Eth" unicode="&#xd0;" horiz-adv-x="1506" 
d="M721 1458q345 0 523.5 -195t178.5 -534t-178.5 -534t-523.5 -195h-546v631h-151v196h151v631h546zM704 300q361 0 361 429q0 431 -361 431h-188v-333h225v-196h-225v-331h188z" />
    <glyph glyph-name="Ntilde" unicode="&#xd1;" horiz-adv-x="1691" 
d="M735 1748q-38 0 -57 -36.5t-19 -94.5h-170q0 122 64 198t175 76q105 0 169 -66q10 -9 25 -26.5t23.5 -26.5t23 -16.5t29.5 -7.5q68 0 68 130h172q0 -120 -63 -197t-177 -77q-64 0 -102 20t-68 55q-3 4 -16 20t-18 20.5t-15.5 13.5t-21 12t-22.5 3zM1176 1458h340v-1458
h-400l-601 996v-996h-340v1458h396l605 -989v989z" />
    <glyph glyph-name="Ograve" unicode="&#xd2;" horiz-adv-x="1656" 
d="M730 1589l-227 269l158 112l266 -381h-197zM828 -20q-162 0 -300.5 53.5t-238 150t-156 237.5t-56.5 308q0 223 97 394.5t267.5 263t386.5 91.5t386.5 -91.5t267.5 -263t97 -394.5q0 -167 -56.5 -308t-156 -237.5t-238 -150t-300.5 -53.5zM828 291q180 0 297 119t117 319
t-117 319t-297 119t-296 -119t-116 -319t116 -319t296 -119z" />
    <glyph glyph-name="Oacute" unicode="&#xd3;" horiz-adv-x="1656" 
d="M731 1589l266 381l158 -112l-227 -269h-197zM828 -20q-162 0 -300.5 53.5t-238 150t-156 237.5t-56.5 308q0 223 97 394.5t267.5 263t386.5 91.5t386.5 -91.5t267.5 -263t97 -394.5q0 -167 -56.5 -308t-156 -237.5t-238 -150t-300.5 -53.5zM828 291q180 0 297 119
t117 319t-117 319t-297 119t-296 -119t-116 -319t116 -319t296 -119z" />
    <glyph glyph-name="Ocircumflex" unicode="&#xd4;" horiz-adv-x="1656" 
d="M698 1589h-197l232 300h190l232 -300h-198l-129 150zM828 -20q-162 0 -300.5 53.5t-238 150t-156 237.5t-56.5 308q0 223 97 394.5t267.5 263t386.5 91.5t386.5 -91.5t267.5 -263t97 -394.5q0 -167 -56.5 -308t-156 -237.5t-238 -150t-300.5 -53.5zM828 291
q180 0 297 119t117 319t-117 319t-297 119t-296 -119t-116 -319t116 -319t296 -119z" />
    <glyph glyph-name="Otilde" unicode="&#xd5;" horiz-adv-x="1656" 
d="M980 1604q-64 0 -102 20t-68 55q-3 4 -16 20t-18 20.5t-15.5 13.5t-21 12t-22.5 3q-38 0 -57 -36.5t-19 -94.5h-170q0 122 64 198t175 76q105 0 169 -66q10 -9 25 -26.5t23.5 -26.5t23 -16.5t29.5 -7.5q68 0 68 130h172q0 -120 -63 -197t-177 -77zM828 -20
q-162 0 -300.5 53.5t-238 150t-156 237.5t-56.5 308q0 223 97 394.5t267.5 263t386.5 91.5t386.5 -91.5t267.5 -263t97 -394.5q0 -167 -56.5 -308t-156 -237.5t-238 -150t-300.5 -53.5zM828 291q180 0 297 119t117 319t-117 319t-297 119t-296 -119t-116 -319t116 -319
t296 -119z" />
    <glyph glyph-name="Odieresis" unicode="&#xd6;" horiz-adv-x="1656" 
d="M603 1536q-76 0 -130 53t-54 129q0 75 54 128t130 53q74 0 127.5 -53t53.5 -128t-53.5 -128.5t-127.5 -53.5zM1053 1536q-76 0 -130 53t-54 129q0 75 54 128t130 53q74 0 127.5 -53t53.5 -128t-53.5 -128.5t-127.5 -53.5zM828 -20q-162 0 -300.5 53.5t-238 150
t-156 237.5t-56.5 308q0 223 97 394.5t267.5 263t386.5 91.5t386.5 -91.5t267.5 -263t97 -394.5q0 -167 -56.5 -308t-156 -237.5t-238 -150t-300.5 -53.5zM828 291q180 0 297 119t117 319t-117 319t-297 119t-296 -119t-116 -319t116 -319t296 -119z" />
    <glyph glyph-name="multiply" unicode="&#xd7;" horiz-adv-x="1075" 
d="M271 261l-174 174l267 268l-267 267l174 174l267 -267l266 267l174 -174l-267 -267l267 -268l-174 -174l-266 268z" />
    <glyph glyph-name="Oslash" unicode="&#xd8;" horiz-adv-x="1656" 
d="M1323 1313q122 -100 189 -249.5t67 -334.5q0 -167 -56.5 -308t-156 -237.5t-238 -150t-300.5 -53.5q-207 0 -373 86l-120 -172l-126 75l123 177q-121 100 -188 249.5t-67 333.5q0 223 97 394.5t267.5 263t386.5 91.5q206 0 373 -85l120 172l126 -75zM416 729
q0 -189 107 -309l492 707q-85 40 -187 40q-180 0 -296 -119t-116 -319zM828 291q180 0 297 119t117 319q0 190 -109 310l-493 -707q85 -41 188 -41z" />
    <glyph glyph-name="Ugrave" unicode="&#xd9;" horiz-adv-x="1458" 
d="M631 1589l-227 269l158 112l266 -381h-197zM729 -20q-100 0 -186.5 19t-160 61t-126 104.5t-82 152.5t-29.5 202v939h340v-893q0 -151 66.5 -218.5t177.5 -67.5t177.5 67.5t66.5 218.5v893h340v-939q0 -112 -29.5 -202t-82 -152.5t-126 -104.5t-160 -61t-186.5 -19z" />
    <glyph glyph-name="Uacute" unicode="&#xda;" horiz-adv-x="1458" 
d="M632 1589l266 381l158 -112l-227 -269h-197zM729 -20q-100 0 -186.5 19t-160 61t-126 104.5t-82 152.5t-29.5 202v939h340v-893q0 -151 66.5 -218.5t177.5 -67.5t177.5 67.5t66.5 218.5v893h340v-939q0 -112 -29.5 -202t-82 -152.5t-126 -104.5t-160 -61t-186.5 -19z" />
    <glyph glyph-name="Ucircumflex" unicode="&#xdb;" horiz-adv-x="1458" 
d="M599 1589h-197l232 300h190l232 -300h-198l-129 150zM729 -20q-100 0 -186.5 19t-160 61t-126 104.5t-82 152.5t-29.5 202v939h340v-893q0 -151 66.5 -218.5t177.5 -67.5t177.5 67.5t66.5 218.5v893h340v-939q0 -112 -29.5 -202t-82 -152.5t-126 -104.5t-160 -61
t-186.5 -19z" />
    <glyph glyph-name="Udieresis" unicode="&#xdc;" horiz-adv-x="1458" 
d="M504 1536q-76 0 -130 53t-54 129q0 75 54 128t130 53q74 0 127.5 -53t53.5 -128t-53.5 -128.5t-127.5 -53.5zM954 1536q-76 0 -130 53t-54 129q0 75 54 128t130 53q74 0 127.5 -53t53.5 -128t-53.5 -128.5t-127.5 -53.5zM729 -20q-100 0 -186.5 19t-160 61t-126 104.5
t-82 152.5t-29.5 202v939h340v-893q0 -151 66.5 -218.5t177.5 -67.5t177.5 67.5t66.5 218.5v893h340v-939q0 -112 -29.5 -202t-82 -152.5t-126 -104.5t-160 -61t-186.5 -19z" />
    <glyph glyph-name="Yacute" unicode="&#xdd;" horiz-adv-x="1317" 
d="M986 1858l-227 -269h-197l266 381zM1310 1458l-479 -761v-697h-341v692l-483 766h375l277 -463l278 463h373z" />
    <glyph glyph-name="Thorn" unicode="&#xde;" horiz-adv-x="1248" 
d="M779 1311q175 0 295.5 -135t120.5 -331q0 -188 -120.5 -317.5t-295.5 -129.5h-274v-398h-330v1536h330v-225h274zM767 688q55 0 93.5 49t38.5 118q0 71 -38 118.5t-94 47.5h-262v-333h262z" />
    <glyph glyph-name="germandbls" unicode="&#xdf;" horiz-adv-x="1315" 
d="M140 0v939q0 143 31.5 253t82.5 177.5t123 110.5t145.5 59.5t157.5 16.5q226 0 365 -113t139 -288q0 -61 -18.5 -109.5t-45 -77.5t-53.5 -52.5t-45.5 -47.5t-18.5 -50q0 -30 27.5 -55.5t66.5 -51t78.5 -60.5t67 -101t27.5 -156q0 -59 -12.5 -113.5t-42.5 -106.5t-76 -90
t-117.5 -61t-161.5 -23h-203v237h105q98 0 140 47.5t42 116.5q0 43 -13.5 75.5t-35 53t-47 38t-51.5 35.5t-47.5 40t-35 57.5t-13.5 82.5q0 60 18 104.5t44.5 71t52.5 50.5t44 57t18 77q0 74 -50 115.5t-142 41.5q-107 0 -164 -64.5t-57 -226.5v-1009h-325z" />
    <glyph glyph-name="agrave" unicode="&#xe0;" horiz-adv-x="1148" 
d="M674 1176h-197l-227 270l158 112zM1026 274q0 -161 25 -244v-30h-301l-23 111q-53 -65 -144.5 -98t-189.5 -33q-51 0 -96.5 9t-88.5 30t-74 53.5t-49.5 83t-18.5 114.5t19.5 114.5t51 85t82.5 62t102.5 45t122.5 33.5l169 41q57 13 80 32t23 51q0 41 -26.5 66.5
t-59.5 33.5t-74 8q-167 0 -191 -150l-288 50q35 166 157 243.5t342 77.5q70 0 128 -8t120 -32.5t104.5 -64.5t70 -110.5t27.5 -164.5v-409zM496 197q96 0 166.5 69.5t70.5 198.5l-241 -74q-56 -16 -85.5 -37.5t-29.5 -61.5q0 -45 34 -70t85 -25z" />
    <glyph glyph-name="aacute" unicode="&#xe1;" horiz-adv-x="1148" 
d="M902 1446l-227 -270h-197l266 382zM1026 274q0 -161 25 -244v-30h-301l-23 111q-53 -65 -144.5 -98t-189.5 -33q-51 0 -96.5 9t-88.5 30t-74 53.5t-49.5 83t-18.5 114.5t19.5 114.5t51 85t82.5 62t102.5 45t122.5 33.5l169 41q57 13 80 32t23 51q0 41 -26.5 66.5
t-59.5 33.5t-74 8q-167 0 -191 -150l-288 50q35 166 157 243.5t342 77.5q70 0 128 -8t120 -32.5t104.5 -64.5t70 -110.5t27.5 -164.5v-409zM496 197q96 0 166.5 69.5t70.5 198.5l-241 -74q-56 -16 -85.5 -37.5t-29.5 -61.5q0 -45 34 -70t85 -25z" />
    <glyph glyph-name="acircumflex" unicode="&#xe2;" horiz-adv-x="1148" 
d="M575 1372l-130 -151h-197l232 300h190l232 -300h-198zM1026 274q0 -161 25 -244v-30h-301l-23 111q-53 -65 -144.5 -98t-189.5 -33q-51 0 -96.5 9t-88.5 30t-74 53.5t-49.5 83t-18.5 114.5t19.5 114.5t51 85t82.5 62t102.5 45t122.5 33.5l169 41q57 13 80 32t23 51
q0 41 -26.5 66.5t-59.5 33.5t-74 8q-167 0 -191 -150l-288 50q35 166 157 243.5t342 77.5q70 0 128 -8t120 -32.5t104.5 -64.5t70 -110.5t27.5 -164.5v-409zM496 197q96 0 166.5 69.5t70.5 198.5l-241 -74q-56 -16 -85.5 -37.5t-29.5 -61.5q0 -45 34 -70t85 -25z" />
    <glyph glyph-name="atilde" unicode="&#xe3;" horiz-adv-x="1148" 
d="M480 1307q-32 0 -47.5 -34.5t-15.5 -92.5h-150q0 122 56 198t152 76q114 0 180 -105q21 -34 52 -34q60 0 60 126h152q0 -120 -54.5 -196.5t-153.5 -76.5q-115 0 -180 104q-22 35 -51 35zM1026 274q0 -161 25 -244v-30h-301l-23 111q-53 -65 -144.5 -98t-189.5 -33
q-51 0 -96.5 9t-88.5 30t-74 53.5t-49.5 83t-18.5 114.5t19.5 114.5t51 85t82.5 62t102.5 45t122.5 33.5l169 41q57 13 80 32t23 51q0 41 -26.5 66.5t-59.5 33.5t-74 8q-167 0 -191 -150l-288 50q35 166 157 243.5t342 77.5q70 0 128 -8t120 -32.5t104.5 -64.5t70 -110.5
t27.5 -164.5v-409zM496 197q96 0 166.5 69.5t70.5 198.5l-241 -74q-56 -16 -85.5 -37.5t-29.5 -61.5q0 -45 34 -70t85 -25z" />
    <glyph glyph-name="adieresis" unicode="&#xe4;" horiz-adv-x="1148" 
d="M350 1172q-76 0 -130 53t-54 129q0 75 54 128t130 53q74 0 127.5 -53t53.5 -128t-53.5 -128.5t-127.5 -53.5zM800 1172q-76 0 -130 53t-54 129q0 75 54 128t130 53q74 0 127.5 -53t53.5 -128t-53.5 -128.5t-127.5 -53.5zM1026 274q0 -161 25 -244v-30h-301l-23 111
q-53 -65 -144.5 -98t-189.5 -33q-51 0 -96.5 9t-88.5 30t-74 53.5t-49.5 83t-18.5 114.5t19.5 114.5t51 85t82.5 62t102.5 45t122.5 33.5l169 41q57 13 80 32t23 51q0 41 -26.5 66.5t-59.5 33.5t-74 8q-167 0 -191 -150l-288 50q35 166 157 243.5t342 77.5q70 0 128 -8
t120 -32.5t104.5 -64.5t70 -110.5t27.5 -164.5v-409zM496 197q96 0 166.5 69.5t70.5 198.5l-241 -74q-56 -16 -85.5 -37.5t-29.5 -61.5q0 -45 34 -70t85 -25z" />
    <glyph glyph-name="aring" unicode="&#xe5;" horiz-adv-x="1148" 
d="M575 1149q-103 0 -176.5 73.5t-73.5 176.5q0 101 73.5 174t176.5 73q102 0 174.5 -73t72.5 -174q0 -103 -72.5 -176.5t-174.5 -73.5zM575 1517q-48 0 -80.5 -35t-32.5 -83q0 -52 32 -84t81 -32q50 0 82.5 32t32.5 84q0 47 -33.5 82.5t-81.5 35.5zM1026 274
q0 -161 25 -244v-30h-301l-23 111q-53 -65 -144.5 -98t-189.5 -33q-51 0 -96.5 9t-88.5 30t-74 53.5t-49.5 83t-18.5 114.5t19.5 114.5t51 85t82.5 62t102.5 45t122.5 33.5l169 41q57 13 80 32t23 51q0 41 -26.5 66.5t-59.5 33.5t-74 8q-167 0 -191 -150l-288 50
q35 166 157 243.5t342 77.5q70 0 128 -8t120 -32.5t104.5 -64.5t70 -110.5t27.5 -164.5v-409zM496 197q96 0 166.5 69.5t70.5 198.5l-241 -74q-56 -16 -85.5 -37.5t-29.5 -61.5q0 -45 34 -70t85 -25z" />
    <glyph glyph-name="ae" unicode="&#xe6;" horiz-adv-x="1843" 
d="M1784 535l-4 -86h-759q13 -105 80.5 -159.5t165.5 -54.5q149 0 203 125l299 -41q-52 -165 -185 -252t-325 -87q-272 0 -425 161h-3q-174 -161 -420 -161q-72 0 -132 15.5t-108.5 47.5t-75.5 88.5t-27 131.5q0 49 12.5 91t32.5 72.5t52.5 56t64.5 43t77 33t81.5 24.5
t86.5 20l140 30q57 12 80 34t23 58q0 43 -26 70.5t-60.5 37t-76.5 9.5q-173 0 -190 -167l-290 46q31 177 153.5 259.5t349.5 82.5q226 0 331 -96q142 99 349 99q114 0 208 -31.5t166 -94.5t111.5 -166.5t40.5 -238.5zM1250 841q-179 0 -220 -170h432q-13 82 -67.5 126
t-144.5 44zM504 231q63 0 123 31.5t93 86.5q-13 46 -19 104l-181 -44q-67 -16 -100 -38.5t-33 -59.5q0 -39 32.5 -59.5t84.5 -20.5z" />
    <glyph glyph-name="ccedilla" unicode="&#xe7;" horiz-adv-x="1196" 
d="M621 237q186 0 225 171l301 -30q-32 -177 -159.5 -280.5t-314.5 -115.5l-60 -100q23 5 43 5q84 0 138.5 -54t54.5 -138q0 -95 -66 -161t-161 -66q-88 0 -152.5 44.5t-87.5 113.5l142 47q11 -29 36.5 -45t54.5 -16q35 0 60.5 22.5t25.5 60.5q0 39 -25 61t-62 22
q-47 0 -71 -33l-115 65l98 177q-214 29 -343.5 174t-129.5 362q0 242 159 391.5t413 149.5q209 0 348.5 -103.5t173.5 -292.5l-301 -30q-39 171 -225 171q-110 0 -176 -79t-66 -207q0 -129 66 -207.5t176 -78.5z" />
    <glyph glyph-name="egrave" unicode="&#xe8;" horiz-adv-x="1205" 
d="M724 1178h-197l-227 270l158 112zM1143 535l-4 -77h-759q10 -109 77.5 -166t167.5 -57q152 0 204 125l300 -41q-50 -161 -184 -250t-318 -89q-264 0 -417 143t-153 398q0 254 153.5 399.5t405.5 145.5q115 0 209 -31.5t166 -94.5t111.5 -166.5t40.5 -238.5zM618 838
q-189 0 -229 -170h433q-13 82 -68 126t-136 44z" />
    <glyph glyph-name="eacute" unicode="&#xe9;" horiz-adv-x="1205" 
d="M952 1448l-227 -270h-197l266 382zM1143 535l-4 -77h-759q10 -109 77.5 -166t167.5 -57q152 0 204 125l300 -41q-50 -161 -184 -250t-318 -89q-264 0 -417 143t-153 398q0 254 153.5 399.5t405.5 145.5q115 0 209 -31.5t166 -94.5t111.5 -166.5t40.5 -238.5zM618 838
q-189 0 -229 -170h433q-13 82 -68 126t-136 44z" />
    <glyph glyph-name="ecircumflex" unicode="&#xea;" horiz-adv-x="1205" 
d="M625 1374l-130 -151h-197l232 300h190l232 -300h-198zM1143 535l-4 -77h-759q10 -109 77.5 -166t167.5 -57q152 0 204 125l300 -41q-50 -161 -184 -250t-318 -89q-264 0 -417 143t-153 398q0 254 153.5 399.5t405.5 145.5q115 0 209 -31.5t166 -94.5t111.5 -166.5
t40.5 -238.5zM618 838q-189 0 -229 -170h433q-13 82 -68 126t-136 44z" />
    <glyph glyph-name="edieresis" unicode="&#xeb;" horiz-adv-x="1205" 
d="M400 1174q-76 0 -130 53t-54 129q0 75 54 128t130 53q74 0 127.5 -53t53.5 -128t-53.5 -128.5t-127.5 -53.5zM850 1174q-76 0 -130 53t-54 129q0 75 54 128t130 53q74 0 127.5 -53t53.5 -128t-53.5 -128.5t-127.5 -53.5zM1143 535l-4 -77h-759q10 -109 77.5 -166
t167.5 -57q152 0 204 125l300 -41q-50 -161 -184 -250t-318 -89q-264 0 -417 143t-153 398q0 254 153.5 399.5t405.5 145.5q115 0 209 -31.5t166 -94.5t111.5 -166.5t40.5 -238.5zM618 838q-189 0 -229 -170h433q-13 82 -68 126t-136 44z" />
    <glyph glyph-name="igrave" unicode="&#xec;" horiz-adv-x="608" 
d="M207 1176l-227 270l158 112l266 -382h-197zM140 0v1044h328v-1044h-328z" />
    <glyph glyph-name="iacute" unicode="&#xed;" horiz-adv-x="608" 
d="M208 1176l266 382l158 -112l-227 -270h-197zM140 0v1044h328v-1044h-328z" />
    <glyph glyph-name="icircumflex" unicode="&#xee;" horiz-adv-x="608" 
d="M175 1221h-197l232 300h190l232 -300h-198l-129 151zM140 0v1044h328v-1044h-328z" />
    <glyph glyph-name="idieresis" unicode="&#xef;" horiz-adv-x="608" 
d="M80 1172q-76 0 -130 53t-54 129q0 75 54 128t130 53q74 0 127.5 -53t53.5 -128t-53.5 -128.5t-127.5 -53.5zM530 1172q-76 0 -130 53t-54 129q0 75 54 128t130 53q74 0 127.5 -53t53.5 -128t-53.5 -128.5t-127.5 -53.5zM140 0v1044h328v-1044h-328z" />
    <glyph glyph-name="eth" unicode="&#xf0;" horiz-adv-x="1195" 
d="M1014 886q131 -189 129 -371q0 -149 -71 -272t-195 -193t-275 -70q-108 0 -208 40t-175 109t-120.5 169t-45.5 214q-1 230 122.5 369.5t322.5 170.5q24 3 50 2l-123 171l-232 -59l-25 90l198 50l-166 230h364l106 -153l197 50l23 -90l-164 -42zM613 269q107 0 168 72
t59 187q-2 109 -66 181t-167 72q-109 0 -171.5 -73t-61.5 -187q0 -111 67 -181.5t172 -70.5z" />
    <glyph glyph-name="ntilde" unicode="&#xf1;" horiz-adv-x="1312" 
d="M557 1307q-32 0 -47.5 -34.5t-15.5 -92.5h-150q0 122 56 198t152 76q114 0 180 -105q21 -34 52 -34q60 0 60 126h152q0 -120 -54.5 -196.5t-153.5 -76.5q-115 0 -180 104q-22 35 -51 35zM795 1064q194 0 295.5 -94t101.5 -268v-702h-328v633q0 89 -48 130t-126 41
q-45 0 -82.5 -11.5t-70.5 -38t-51.5 -76t-19.5 -118.5v-560h-326v1044h326v-112q119 132 329 132z" />
    <glyph glyph-name="ograve" unicode="&#xf2;" horiz-adv-x="1283" 
d="M543 1174l-227 270l158 112l266 -382h-197zM641 -20q-262 0 -424 145t-162 398q0 252 161.5 396.5t424.5 144.5q264 0 425.5 -144.5t161.5 -396.5q0 -253 -162 -398t-425 -145zM637 236q120 0 193.5 79t73.5 208q0 128 -73.5 207t-193.5 79q-115 0 -186.5 -79t-71.5 -207
t71.5 -207.5t186.5 -79.5z" />
    <glyph glyph-name="oacute" unicode="&#xf3;" horiz-adv-x="1283" 
d="M544 1174l266 382l158 -112l-227 -270h-197zM641 -20q-262 0 -424 145t-162 398q0 252 161.5 396.5t424.5 144.5q264 0 425.5 -144.5t161.5 -396.5q0 -253 -162 -398t-425 -145zM637 236q120 0 193.5 79t73.5 208q0 128 -73.5 207t-193.5 79q-115 0 -186.5 -79
t-71.5 -207t71.5 -207.5t186.5 -79.5z" />
    <glyph glyph-name="ocircumflex" unicode="&#xf4;" horiz-adv-x="1283" 
d="M511 1219h-197l232 300h190l232 -300h-198l-129 151zM641 -20q-262 0 -424 145t-162 398q0 252 161.5 396.5t424.5 144.5q264 0 425.5 -144.5t161.5 -396.5q0 -253 -162 -398t-425 -145zM637 236q120 0 193.5 79t73.5 208q0 128 -73.5 207t-193.5 79q-115 0 -186.5 -79
t-71.5 -207t71.5 -207.5t186.5 -79.5z" />
    <glyph glyph-name="otilde" unicode="&#xf5;" horiz-adv-x="1283" 
d="M777 1166q-115 0 -180 104q-22 35 -51 35q-32 0 -47.5 -34.5t-15.5 -92.5h-150q0 122 56 198t152 76q114 0 180 -105q21 -34 52 -34q60 0 60 126h152q0 -120 -54.5 -196.5t-153.5 -76.5zM641 -20q-262 0 -424 145t-162 398q0 252 161.5 396.5t424.5 144.5
q264 0 425.5 -144.5t161.5 -396.5q0 -253 -162 -398t-425 -145zM637 236q120 0 193.5 79t73.5 208q0 128 -73.5 207t-193.5 79q-115 0 -186.5 -79t-71.5 -207t71.5 -207.5t186.5 -79.5z" />
    <glyph glyph-name="odieresis" unicode="&#xf6;" horiz-adv-x="1283" 
d="M416 1170q-76 0 -130 53t-54 129q0 75 54 128t130 53q74 0 127.5 -53t53.5 -128t-53.5 -128.5t-127.5 -53.5zM866 1170q-76 0 -130 53t-54 129q0 75 54 128t130 53q74 0 127.5 -53t53.5 -128t-53.5 -128.5t-127.5 -53.5zM641 -20q-262 0 -424 145t-162 398
q0 252 161.5 396.5t424.5 144.5q264 0 425.5 -144.5t161.5 -396.5q0 -253 -162 -398t-425 -145zM637 236q120 0 193.5 79t73.5 208q0 128 -73.5 207t-193.5 79q-115 0 -186.5 -79t-71.5 -207t71.5 -207.5t186.5 -79.5z" />
    <glyph glyph-name="divide" unicode="&#xf7;" horiz-adv-x="1103" 
d="M542 929q-65 0 -113 47t-48 114q0 64 48.5 113t112.5 49t113 -49t49 -113q0 -67 -48.5 -114t-113.5 -47zM90 584v245h923v-245h-923zM542 161q-65 0 -113 47t-48 115q0 64 48.5 112.5t112.5 48.5t113 -48.5t49 -112.5q0 -68 -48 -115t-114 -47z" />
    <glyph glyph-name="oslash" unicode="&#xf8;" horiz-adv-x="1283" 
d="M1027 952q96 -71 148.5 -180t52.5 -249q0 -253 -162 -398t-425 -145q-145 0 -260 45l-82 -118l-125 74l79 114q-198 148 -198 428q0 252 161.5 396.5t424.5 144.5q142 0 257 -44l81 116l125 -74zM379 523q0 -106 49 -178l311 446q-47 18 -102 18q-115 0 -186.5 -79
t-71.5 -207zM637 236q120 0 193.5 79t73.5 208q0 106 -51 179l-313 -449q46 -17 97 -17z" />
    <glyph glyph-name="ugrave" unicode="&#xf9;" horiz-adv-x="1310" 
d="M756 1176h-197l-227 270l158 112zM844 1044h326v-1044h-308l-8 123q-119 -143 -338 -143q-195 0 -296.5 94t-101.5 267v703h328v-633q0 -89 48.5 -130t125.5 -41q46 0 83.5 11.5t70 38t51 76t19.5 118.5v560z" />
    <glyph glyph-name="uacute" unicode="&#xfa;" horiz-adv-x="1310" 
d="M984 1446l-227 -270h-197l266 382zM844 1044h326v-1044h-308l-8 123q-119 -143 -338 -143q-195 0 -296.5 94t-101.5 267v703h328v-633q0 -89 48.5 -130t125.5 -41q46 0 83.5 11.5t70 38t51 76t19.5 118.5v560z" />
    <glyph glyph-name="ucircumflex" unicode="&#xfb;" horiz-adv-x="1310" 
d="M657 1372l-130 -151h-197l232 300h190l232 -300h-198zM844 1044h326v-1044h-308l-8 123q-119 -143 -338 -143q-195 0 -296.5 94t-101.5 267v703h328v-633q0 -89 48.5 -130t125.5 -41q46 0 83.5 11.5t70 38t51 76t19.5 118.5v560z" />
    <glyph glyph-name="udieresis" unicode="&#xfc;" horiz-adv-x="1310" 
d="M432 1172q-76 0 -130 53t-54 129q0 75 54 128t130 53q74 0 127.5 -53t53.5 -128t-53.5 -128.5t-127.5 -53.5zM882 1172q-76 0 -130 53t-54 129q0 75 54 128t130 53q74 0 127.5 -53t53.5 -128t-53.5 -128.5t-127.5 -53.5zM844 1044h326v-1044h-308l-8 123
q-119 -143 -338 -143q-195 0 -296.5 94t-101.5 267v703h328v-633q0 -89 48.5 -130t125.5 -41q46 0 83.5 11.5t70 38t51 76t19.5 118.5v560z" />
    <glyph glyph-name="yacute" unicode="&#xfd;" horiz-adv-x="1161" 
d="M909 1446l-227 -270h-197l266 382zM835 1044h333l-656 -1535h-329l247 540l-437 995h355l234 -646z" />
    <glyph glyph-name="thorn" unicode="&#xfe;" horiz-adv-x="1336" 
d="M772 1064q104 0 195.5 -37t161 -105.5t109.5 -172.5t40 -230t-40 -230t-109.5 -172t-161 -105t-195.5 -37q-98 0 -180 33.5t-126 94.5v-605h-326v2038h326v-600q44 61 126 94.5t180 33.5zM696 244q111 0 183 74t72 201t-72.5 201.5t-182.5 74.5q-111 0 -184 -75t-73 -201
q0 -125 73 -200t184 -75z" />
    <glyph glyph-name="ydieresis" unicode="&#xff;" horiz-adv-x="1161" 
d="M357 1172q-76 0 -130 53t-54 129q0 75 54 128t130 53q74 0 127.5 -53t53.5 -128t-53.5 -128.5t-127.5 -53.5zM807 1172q-76 0 -130 53t-54 129q0 75 54 128t130 53q74 0 127.5 -53t53.5 -128t-53.5 -128.5t-127.5 -53.5zM835 1044h333l-656 -1535h-329l247 540l-437 995
h355l234 -646z" />
    <glyph glyph-name="Amacron" unicode="&#x100;" horiz-adv-x="1531" 
d="M1101 1778v-189h-670v189h670zM1164 0l-100 285h-597l-100 -285h-347l536 1458h419l536 -1458h-347zM566 568h399l-199 571z" />
    <glyph glyph-name="amacron" unicode="&#x101;" horiz-adv-x="1148" 
d="M910 1393v-189h-670v189h670zM1026 274q0 -161 25 -244v-30h-301l-23 111q-53 -65 -144.5 -98t-189.5 -33q-51 0 -96.5 9t-88.5 30t-74 53.5t-49.5 83t-18.5 114.5t19.5 114.5t51 85t82.5 62t102.5 45t122.5 33.5l169 41q57 13 80 32t23 51q0 41 -26.5 66.5t-59.5 33.5
t-74 8q-167 0 -191 -150l-288 50q35 166 157 243.5t342 77.5q70 0 128 -8t120 -32.5t104.5 -64.5t70 -110.5t27.5 -164.5v-409zM496 197q96 0 166.5 69.5t70.5 198.5l-241 -74q-56 -16 -85.5 -37.5t-29.5 -61.5q0 -45 34 -70t85 -25z" />
    <glyph glyph-name="Abreve" unicode="&#x102;" horiz-adv-x="1531" 
d="M766 1589q-177 0 -275 70.5t-98 232.5h186q0 -154 187 -154q189 0 189 154h185q0 -162 -97.5 -232.5t-276.5 -70.5zM1164 0l-100 285h-597l-100 -285h-347l536 1458h419l536 -1458h-347zM566 568h399l-199 571z" />
    <glyph glyph-name="abreve" unicode="&#x103;" horiz-adv-x="1148" 
d="M575 1159q-171 0 -271.5 92t-100.5 270h202q0 -97 43 -154.5t127 -57.5q85 0 128.5 57.5t43.5 154.5h203q0 -178 -101 -270t-274 -92zM1026 274q0 -161 25 -244v-30h-301l-23 111q-53 -65 -144.5 -98t-189.5 -33q-51 0 -96.5 9t-88.5 30t-74 53.5t-49.5 83t-18.5 114.5
t19.5 114.5t51 85t82.5 62t102.5 45t122.5 33.5l169 41q57 13 80 32t23 51q0 41 -26.5 66.5t-59.5 33.5t-74 8q-167 0 -191 -150l-288 50q35 166 157 243.5t342 77.5q70 0 128 -8t120 -32.5t104.5 -64.5t70 -110.5t27.5 -164.5v-409zM496 197q96 0 166.5 69.5t70.5 198.5
l-241 -74q-56 -16 -85.5 -37.5t-29.5 -61.5q0 -45 34 -70t85 -25z" />
    <glyph glyph-name="Aogonek" unicode="&#x104;" horiz-adv-x="1531" 
d="M1339 -218q0 -33 54 -33q30 0 64 12t54 32v-201q-68 -30 -155 -30t-143 29.5t-56 84.5q0 117 224 324h-217l-100 285h-597l-100 -285h-347l536 1458h419l536 -1458q-68 -58 -120 -120t-52 -98zM566 568h399l-199 571z" />
    <glyph glyph-name="aogonek" unicode="&#x105;" horiz-adv-x="1148" 
d="M1051 0q-68 -58 -120 -120t-52 -98q0 -33 54 -33q30 0 64 12t54 32v-201q-68 -30 -155 -30t-143 29.5t-56 84.5q0 117 224 324h-171l-23 111q-53 -65 -144.5 -98t-189.5 -33q-51 0 -96.5 9t-88.5 30t-74 53.5t-49.5 83t-18.5 114.5t19.5 114.5t51 85t82.5 62t102.5 45
t122.5 33.5l169 41q57 13 80 32t23 51q0 41 -26.5 66.5t-59.5 33.5t-74 8q-167 0 -191 -150l-288 50q35 166 157 243.5t342 77.5q70 0 128 -8t120 -32.5t104.5 -64.5t70 -110.5t27.5 -164.5v-409q0 -161 25 -244v-30zM496 197q96 0 166.5 69.5t70.5 198.5l-241 -74
q-56 -16 -85.5 -37.5t-29.5 -61.5q0 -45 34 -70t85 -25z" />
    <glyph glyph-name="Cacute" unicode="&#x106;" horiz-adv-x="1581" 
d="M733 1589l266 381l158 -112l-227 -269h-197zM828 -20q-216 0 -386.5 91.5t-267.5 263t-97 394.5t97 394.5t267.5 263t386.5 91.5q252 0 439.5 -123t263.5 -338l-318 -114q-42 124 -145 194t-240 70q-180 0 -296 -119t-116 -319t116 -319t296 -119q137 0 240 70t145 194
l318 -114q-76 -215 -263.5 -338t-439.5 -123z" />
    <glyph glyph-name="cacute" unicode="&#x107;" horiz-adv-x="1196" 
d="M511 1176l266 382l158 -112l-227 -270h-197zM625 -20q-254 0 -413 150.5t-159 392.5t159 391.5t413 149.5q209 0 348.5 -103.5t173.5 -292.5l-301 -30q-39 171 -225 171q-110 0 -176 -79t-66 -207q0 -129 66 -207.5t176 -78.5q186 0 225 171l301 -30q-34 -188 -176 -293
t-346 -105z" />
    <glyph glyph-name="Cdotaccent" unicode="&#x10a;" horiz-adv-x="1581" 
d="M831 1536q-76 0 -130 53t-54 129q0 75 54 128t130 53q74 0 127.5 -53t53.5 -128t-53.5 -128.5t-127.5 -53.5zM828 -20q-216 0 -386.5 91.5t-267.5 263t-97 394.5t97 394.5t267.5 263t386.5 91.5q252 0 439.5 -123t263.5 -338l-318 -114q-42 124 -145 194t-240 70
q-180 0 -296 -119t-116 -319t116 -319t296 -119q137 0 240 70t145 194l318 -114q-76 -215 -263.5 -338t-439.5 -123z" />
    <glyph glyph-name="cdotaccent" unicode="&#x10b;" horiz-adv-x="1196" 
d="M609 1172q-76 0 -130 53t-54 129q0 75 54 128t130 53q74 0 127.5 -53t53.5 -128t-53.5 -128.5t-127.5 -53.5zM625 -20q-254 0 -413 150.5t-159 392.5t159 391.5t413 149.5q209 0 348.5 -103.5t173.5 -292.5l-301 -30q-39 171 -225 171q-110 0 -176 -79t-66 -207
q0 -129 66 -207.5t176 -78.5q186 0 225 171l301 -30q-34 -188 -176 -293t-346 -105z" />
    <glyph glyph-name="Ccaron" unicode="&#x10c;" horiz-adv-x="1581" 
d="M736 1589l-233 300h198l129 -151l130 151h197l-232 -300h-189zM828 -20q-216 0 -386.5 91.5t-267.5 263t-97 394.5t97 394.5t267.5 263t386.5 91.5q252 0 439.5 -123t263.5 -338l-318 -114q-42 124 -145 194t-240 70q-180 0 -296 -119t-116 -319t116 -319t296 -119
q137 0 240 70t145 194l318 -114q-76 -215 -263.5 -338t-439.5 -123z" />
    <glyph glyph-name="ccaron" unicode="&#x10d;" horiz-adv-x="1196" 
d="M514 1221l-233 300h198l129 -151l130 151h197l-232 -300h-189zM625 -20q-254 0 -413 150.5t-159 392.5t159 391.5t413 149.5q209 0 348.5 -103.5t173.5 -292.5l-301 -30q-39 171 -225 171q-110 0 -176 -79t-66 -207q0 -129 66 -207.5t176 -78.5q186 0 225 171l301 -30
q-34 -188 -176 -293t-346 -105z" />
    <glyph glyph-name="Dcaron" unicode="&#x10e;" horiz-adv-x="1506" 
d="M551 1589l-233 300h198l129 -151l130 151h197l-232 -300h-189zM175 0v1458h546q345 0 523.5 -195t178.5 -534t-178.5 -534t-523.5 -195h-546zM516 300h188q361 0 361 429q0 431 -361 431h-188v-860z" />
    <glyph glyph-name="dcaron" unicode="&#x10f;" horiz-adv-x="1590" 
d="M521 -20q-201 0 -329 146.5t-128 398.5q0 251 128.5 397.5t328.5 146.5q201 0 323 -144v611h326v-1536h-326v124q-122 -144 -323 -144zM1305 871l127 665h334l-229 -665h-232zM641 249q108 0 177.5 75t69.5 201q0 125 -70 200t-177 75q-109 0 -180 -74t-71 -201
t71 -201.5t180 -74.5z" />
    <glyph glyph-name="Dcroat" unicode="&#x110;" horiz-adv-x="1506" 
d="M721 1458q345 0 523.5 -195t178.5 -534t-178.5 -534t-523.5 -195h-546v631h-151v196h151v631h546zM704 300q361 0 361 429q0 431 -361 431h-188v-333h225v-196h-225v-331h188z" />
    <glyph glyph-name="dcroat" unicode="&#x111;" horiz-adv-x="1336" 
d="M1327 1384v-196h-131v-1188h-308l-8 117q-42 -68 -126.5 -105t-188.5 -37t-196 37t-161 105.5t-109 172t-40 229.5t40 230t109.5 172t161 105.5t195.5 37.5q98 0 179 -33t126 -94v251h-260v196h260v152h326v-152h131zM641 244q111 0 183.5 75t72.5 200q0 126 -72.5 201
t-183.5 75t-183.5 -74.5t-72.5 -201.5t72.5 -201t183.5 -74z" />
    <glyph glyph-name="Emacron" unicode="&#x112;" horiz-adv-x="1163" 
d="M952 1778v-189h-670v189h670zM1041 1160h-524v-284h466v-294h-466v-282h524v-300h-866v1458h866v-298z" />
    <glyph glyph-name="emacron" unicode="&#x113;" horiz-adv-x="1205" 
d="M960 1395v-189h-670v189h670zM1143 535l-4 -77h-759q10 -109 77.5 -166t167.5 -57q152 0 204 125l300 -41q-50 -161 -184 -250t-318 -89q-264 0 -417 143t-153 398q0 254 153.5 399.5t405.5 145.5q115 0 209 -31.5t166 -94.5t111.5 -166.5t40.5 -238.5zM618 838
q-189 0 -229 -170h433q-13 82 -68 126t-136 44z" />
    <glyph glyph-name="Edotaccent" unicode="&#x116;" horiz-adv-x="1163" 
d="M618 1536q-76 0 -130 53t-54 129q0 75 54 128t130 53q74 0 127.5 -53t53.5 -128t-53.5 -128.5t-127.5 -53.5zM1041 1160h-524v-284h466v-294h-466v-282h524v-300h-866v1458h866v-298z" />
    <glyph glyph-name="edotaccent" unicode="&#x117;" horiz-adv-x="1205" 
d="M626 1174q-76 0 -130 53t-54 129q0 75 54 128t130 53q74 0 127.5 -53t53.5 -128t-53.5 -128.5t-127.5 -53.5zM1143 535l-4 -77h-759q10 -109 77.5 -166t167.5 -57q152 0 204 125l300 -41q-50 -161 -184 -250t-318 -89q-264 0 -417 143t-153 398q0 254 153.5 399.5
t405.5 145.5q115 0 209 -31.5t166 -94.5t111.5 -166.5t40.5 -238.5zM618 838q-189 0 -229 -170h433q-13 82 -68 126t-136 44z" />
    <glyph glyph-name="Eogonek" unicode="&#x118;" horiz-adv-x="1163" 
d="M1041 1160h-524v-284h466v-294h-466v-282h524v-300q-68 -58 -120 -120t-52 -98q0 -33 54 -33q30 0 64 12t54 32v-201q-68 -30 -155 -30t-143 29.5t-56 84.5q0 117 224 324h-736v1458h866v-298z" />
    <glyph glyph-name="eogonek" unicode="&#x119;" horiz-adv-x="1205" 
d="M1143 535l-4 -77h-759q10 -109 77.5 -166t167.5 -57q152 0 204 125l300 -41q-30 -97 -92 -168l2 -1l-10 -9q-25 -29 -54 -50q-108 -108 -108 -159q0 -33 54 -33q30 0 64 12t54 32v-201q-68 -30 -155 -30t-143 29.5t-56 84.5q0 67 78 168q-67 -14 -136 -14
q-264 0 -417 143t-153 398q0 254 153.5 399.5t405.5 145.5q115 0 209 -31.5t166 -94.5t111.5 -166.5t40.5 -238.5zM618 838q-189 0 -229 -170h433q-13 82 -68 126t-136 44z" />
    <glyph glyph-name="Ecaron" unicode="&#x11a;" horiz-adv-x="1163" 
d="M712 1589h-189l-233 300h198l129 -151l130 151h197zM1041 1160h-524v-284h466v-294h-466v-282h524v-300h-866v1458h866v-298z" />
    <glyph glyph-name="ecaron" unicode="&#x11b;" horiz-adv-x="1205" 
d="M720 1223h-189l-233 300h198l129 -151l130 151h197zM1143 535l-4 -77h-759q10 -109 77.5 -166t167.5 -57q152 0 204 125l300 -41q-50 -161 -184 -250t-318 -89q-264 0 -417 143t-153 398q0 254 153.5 399.5t405.5 145.5q115 0 209 -31.5t166 -94.5t111.5 -166.5
t40.5 -238.5zM618 838q-189 0 -229 -170h433q-13 82 -68 126t-136 44z" />
    <glyph glyph-name="Gbreve" unicode="&#x11e;" horiz-adv-x="1647" 
d="M823 1589q-177 0 -275 70.5t-98 232.5h186q0 -154 187 -154q189 0 189 154h185q0 -162 -97.5 -232.5t-276.5 -70.5zM809 -20q-211 0 -377 91.5t-260.5 261.5t-94.5 392q0 225 97 397t267.5 264t386.5 92q214 0 383.5 -90.5t265.5 -253.5l-299 -159q-52 104 -142 157
t-208 53q-181 0 -295.5 -120t-114.5 -331q0 -209 113.5 -335t309.5 -126q86 0 159 25.5t131.5 86.5t79.5 151h-369v271h689v-807h-265v179q-150 -199 -457 -199z" />
    <glyph glyph-name="gbreve" unicode="&#x11f;" horiz-adv-x="1297" 
d="M642 1159q-171 0 -271.5 92t-100.5 270h202q0 -97 43 -154.5t127 -57.5q85 0 128.5 57.5t43.5 154.5h203q0 -178 -101 -270t-274 -92zM846 1044h311v-959q0 -577 -568 -577q-424 0 -548 326l271 112q45 -97 106.5 -141.5t157.5 -44.5q253 0 253 301v102
q-46 -56 -126.5 -90.5t-175.5 -34.5q-129 0 -236.5 62.5t-173 181.5t-65.5 272q0 115 38 211.5t103.5 161.5t152.5 101t184 36q103 0 185 -38.5t124 -103.5zM613 300q106 0 177 73t71 181t-70.5 180.5t-177.5 72.5t-177 -72t-70 -181t71 -181.5t176 -72.5z" />
    <glyph glyph-name="Gdotaccent" unicode="&#x120;" horiz-adv-x="1647" 
d="M824 1536q-76 0 -130 53t-54 129q0 75 54 128t130 53q74 0 127.5 -53t53.5 -128t-53.5 -128.5t-127.5 -53.5zM809 -20q-211 0 -377 91.5t-260.5 261.5t-94.5 392q0 225 97 397t267.5 264t386.5 92q214 0 383.5 -90.5t265.5 -253.5l-299 -159q-52 104 -142 157t-208 53
q-181 0 -295.5 -120t-114.5 -331q0 -209 113.5 -335t309.5 -126q86 0 159 25.5t131.5 86.5t79.5 151h-369v271h689v-807h-265v179q-150 -199 -457 -199z" />
    <glyph glyph-name="gdotaccent" unicode="&#x121;" horiz-adv-x="1297" 
d="M643 1172q-76 0 -130 53t-54 129q0 75 54 128t130 53q74 0 127.5 -53t53.5 -128t-53.5 -128.5t-127.5 -53.5zM846 1044h311v-959q0 -577 -568 -577q-424 0 -548 326l271 112q45 -97 106.5 -141.5t157.5 -44.5q253 0 253 301v102q-46 -56 -126.5 -90.5t-175.5 -34.5
q-129 0 -236.5 62.5t-173 181.5t-65.5 272q0 115 38 211.5t103.5 161.5t152.5 101t184 36q103 0 185 -38.5t124 -103.5zM613 300q106 0 177 73t71 181t-70.5 180.5t-177.5 72.5t-177 -72t-70 -181t71 -181.5t176 -72.5z" />
    <glyph glyph-name="Gcommaaccent" unicode="&#x122;" horiz-adv-x="1647" 
d="M809 -20q-211 0 -377 91.5t-260.5 261.5t-94.5 392q0 225 97 397t267.5 264t386.5 92q214 0 383.5 -90.5t265.5 -253.5l-299 -159q-52 104 -142 157t-208 53q-181 0 -295.5 -120t-114.5 -331q0 -209 113.5 -335t309.5 -126q86 0 159 25.5t131.5 86.5t79.5 151h-369v271
h689v-807h-265v179q-150 -199 -457 -199zM668 -579l-157 74l169 376h283z" />
    <glyph glyph-name="gcommaaccent" unicode="&#x123;" horiz-adv-x="1297" 
d="M880 1519l-126 -334h-334l228 334h232zM846 1044h311v-959q0 -577 -568 -577q-424 0 -548 326l271 112q45 -97 106.5 -141.5t157.5 -44.5q253 0 253 301v102q-46 -56 -126.5 -90.5t-175.5 -34.5q-129 0 -236.5 62.5t-173 181.5t-65.5 272q0 115 38 211.5t103.5 161.5
t152.5 101t184 36q103 0 185 -38.5t124 -103.5zM613 300q106 0 177 73t71 181t-70.5 180.5t-177.5 72.5t-177 -72t-70 -181t71 -181.5t176 -72.5z" />
    <glyph glyph-name="Hbar" unicode="&#x126;" horiz-adv-x="1609" 
d="M1560 1216v-127h-127v-1089h-340v584h-577v-584h-341v1089h-124v127h124v242h341v-242h577v242h340v-242h127zM1093 878v211h-577v-211h577z" />
    <glyph glyph-name="hbar" unicode="&#x127;" horiz-adv-x="1310" 
d="M812 1064q184 0 282 -100t98 -297v-667h-328v615q0 189 -177 189q-42 0 -77.5 -10.5t-69 -36t-53.5 -76t-21 -121.5v-560h-326v1189h-118v196h118v151h326v-151h273v-196h-273v-269q125 144 346 144z" />
    <glyph glyph-name="Itilde" unicode="&#x128;" horiz-adv-x="691" 
d="M496 1604q-64 0 -102 20t-68 55q-3 4 -16 20t-18 20.5t-15.5 13.5t-21 12t-22.5 3q-38 0 -57 -36.5t-19 -94.5h-170q0 122 64 198t175 76q105 0 169 -66q10 -9 25 -26.5t23.5 -26.5t23 -16.5t29.5 -7.5q68 0 68 130h172q0 -120 -63 -197t-177 -77zM175 0v1458h341v-1458
h-341z" />
    <glyph glyph-name="itilde" unicode="&#x129;" horiz-adv-x="608" 
d="M441 1168q-115 0 -180 104q-22 35 -51 35q-32 0 -47.5 -34.5t-15.5 -92.5h-150q0 122 56 198t152 76q114 0 180 -105q21 -34 52 -34q60 0 60 126h152q0 -120 -54.5 -196.5t-153.5 -76.5zM140 0v1044h328v-1044h-328z" />
    <glyph glyph-name="Imacron" unicode="&#x12a;" horiz-adv-x="691" 
d="M9 1589v189h670v-189h-670zM175 0v1458h341v-1458h-341z" />
    <glyph glyph-name="imacron" unicode="&#x12b;" horiz-adv-x="608" 
d="M-30 1204v189h670v-189h-670zM140 0v1044h328v-1044h-328z" />
    <glyph glyph-name="Iogonek" unicode="&#x12e;" horiz-adv-x="691" 
d="M516 0q-68 -58 -120 -120t-52 -98q0 -33 54 -33q30 0 64 12t54 32v-201q-68 -30 -155 -30t-143 29.5t-56 84.5q0 117 224 324h-211v1458h341v-1458z" />
    <glyph glyph-name="iogonek" unicode="&#x12f;" horiz-adv-x="608" 
d="M306 1172q-76 0 -130 53t-54 129q0 75 54 128t130 53q74 0 127.5 -53t53.5 -128t-53.5 -128.5t-127.5 -53.5zM140 0v1044h328v-1044q-68 -58 -120 -120t-52 -98q0 -33 54 -33q30 0 64 12t54 32v-201q-68 -30 -155 -30t-143 29.5t-56 84.5q0 117 224 324h-198z" />
    <glyph glyph-name="Idotaccent" unicode="&#x130;" horiz-adv-x="691" 
d="M345 1536q-76 0 -130 53t-54 129q0 75 54 128t130 53q74 0 127.5 -53t53.5 -128t-53.5 -128.5t-127.5 -53.5zM175 0v1458h341v-1458h-341z" />
    <glyph glyph-name="dotlessi" unicode="&#x131;" horiz-adv-x="608" 
d="M140 0v1044h328v-1044h-328z" />
    <glyph glyph-name="Kcommaaccent" unicode="&#x136;" horiz-adv-x="1500" 
d="M906 760l575 -760h-434l-432 602h-99v-602h-341v1458h341v-560h94l442 560h415zM423 -505l169 376h283l-295 -450z" />
    <glyph glyph-name="kcommaaccent" unicode="&#x137;" horiz-adv-x="1226" 
d="M791 556l442 -556h-393l-318 424h-52v-424h-330v1536h330v-889h46l319 397h365zM300 -505l169 376h283l-295 -450z" />
    <glyph glyph-name="Lacute" unicode="&#x139;" horiz-adv-x="994" 
d="M673 1858l-227 -269h-197l266 381zM516 300h442v-300h-783v1458h341v-1158z" />
    <glyph glyph-name="lacute" unicode="&#x13a;" horiz-adv-x="610" 
d="M208 1668l266 382l158 -112l-227 -270h-197zM140 0v1536h330v-1536h-330z" />
    <glyph glyph-name="Lcommaaccent" unicode="&#x13b;" horiz-adv-x="994" 
d="M516 300h442v-300h-783v1458h341v-1158zM256 -505l169 376h283l-295 -450z" />
    <glyph glyph-name="lcommaaccent" unicode="&#x13c;" horiz-adv-x="610" 
d="M140 0v1536h330v-1536h-330zM150 -579l-157 74l169 376h283z" />
    <glyph glyph-name="Lcaron" unicode="&#x13d;" horiz-adv-x="1150" 
d="M516 1458v-1158h442v-300h-783v1458h341zM1120 1458l-228 -664h-232l126 664h334z" />
    <glyph glyph-name="lcaron" unicode="&#x13e;" horiz-adv-x="869" 
d="M140 0v1536h329v-1536h-329zM585 871l126 665h334l-228 -665h-232z" />
    <glyph glyph-name="Lslash" unicode="&#x141;" horiz-adv-x="994" 
d="M516 300h442v-300h-783v508l-170 -126v200l170 126v750h341v-497l155 115v-201l-155 -115v-460z" />
    <glyph glyph-name="lslash" unicode="&#x142;" horiz-adv-x="610" 
d="M637 1148v-201l-167 -124v-823h-330v579l-169 -125v200l169 125v757h330v-512z" />
    <glyph glyph-name="Nacute" unicode="&#x143;" horiz-adv-x="1691" 
d="M1173 1858l-227 -269h-197l266 381zM1176 1458h340v-1458h-400l-601 996v-996h-340v1458h396l605 -989v989z" />
    <glyph glyph-name="nacute" unicode="&#x144;" horiz-adv-x="1312" 
d="M979 1446l-227 -270h-197l266 382zM795 1064q194 0 295.5 -94t101.5 -268v-702h-328v633q0 89 -48 130t-126 41q-45 0 -82.5 -11.5t-70.5 -38t-51.5 -76t-19.5 -118.5v-560h-326v1044h326v-112q119 132 329 132z" />
    <glyph glyph-name="Ncommaaccent" unicode="&#x145;" horiz-adv-x="1691" 
d="M1176 1458h340v-1458h-400l-601 996v-996h-340v1458h396l605 -989v989zM534 -505l169 376h283l-295 -450z" />
    <glyph glyph-name="ncommaaccent" unicode="&#x146;" horiz-adv-x="1312" 
d="M795 1064q194 0 295.5 -94t101.5 -268v-702h-328v633q0 89 -48 130t-126 41q-45 0 -82.5 -11.5t-70.5 -38t-51.5 -76t-19.5 -118.5v-560h-326v1044h326v-112q119 132 329 132zM340 -505l169 376h283l-295 -450z" />
    <glyph glyph-name="Ncaron" unicode="&#x147;" horiz-adv-x="1691" 
d="M941 1589h-189l-233 300h198l129 -151l130 151h197zM1176 1458h340v-1458h-400l-601 996v-996h-340v1458h396l605 -989v989z" />
    <glyph glyph-name="ncaron" unicode="&#x148;" horiz-adv-x="1312" 
d="M747 1221h-189l-233 300h198l129 -151l130 151h197zM795 1064q194 0 295.5 -94t101.5 -268v-702h-328v633q0 89 -48 130t-126 41q-45 0 -82.5 -11.5t-70.5 -38t-51.5 -76t-19.5 -118.5v-560h-326v1044h326v-112q119 132 329 132z" />
    <glyph glyph-name="Eng" unicode="&#x14a;" horiz-adv-x="1698" 
d="M1183 1458h340v-1458q0 -220 -142 -346t-379 -126v251q54 0 92 25t50 74t-21 122l-608 998v-998h-340v1458h396l612 -992v992z" />
    <glyph glyph-name="eng" unicode="&#x14b;" horiz-adv-x="1312" 
d="M812 1064q183 0 282 -95t99 -269v-832q0 -164 -96 -261.5t-265 -97.5h-196v228h102q60 0 93.5 24.5t33.5 88.5v783q0 89 -49 130t-127 41q-45 0 -82.5 -11.5t-70 -37.5t-51 -75t-19.5 -118v-562h-326v1044h326v-122q124 142 346 142z" />
    <glyph glyph-name="Omacron" unicode="&#x14c;" horiz-adv-x="1656" 
d="M493 1589v189h670v-189h-670zM828 -20q-162 0 -300.5 53.5t-238 150t-156 237.5t-56.5 308q0 223 97 394.5t267.5 263t386.5 91.5t386.5 -91.5t267.5 -263t97 -394.5q0 -167 -56.5 -308t-156 -237.5t-238 -150t-300.5 -53.5zM828 291q180 0 297 119t117 319t-117 319
t-297 119t-296 -119t-116 -319t116 -319t296 -119z" />
    <glyph glyph-name="omacron" unicode="&#x14d;" horiz-adv-x="1283" 
d="M306 1202v189h670v-189h-670zM641 -20q-262 0 -424 145t-162 398q0 252 161.5 396.5t424.5 144.5q264 0 425.5 -144.5t161.5 -396.5q0 -253 -162 -398t-425 -145zM637 236q120 0 193.5 79t73.5 208q0 128 -73.5 207t-193.5 79q-115 0 -186.5 -79t-71.5 -207t71.5 -207.5
t186.5 -79.5z" />
    <glyph glyph-name="Ohungarumlaut" unicode="&#x150;" horiz-adv-x="1656" 
d="M538 1589l266 381l158 -112l-227 -269h-197zM921 1589l267 381l157 -112l-226 -269h-198zM828 -20q-162 0 -300.5 53.5t-238 150t-156 237.5t-56.5 308q0 223 97 394.5t267.5 263t386.5 91.5t386.5 -91.5t267.5 -263t97 -394.5q0 -167 -56.5 -308t-156 -237.5t-238 -150
t-300.5 -53.5zM828 291q180 0 297 119t117 319t-117 319t-297 119t-296 -119t-116 -319t116 -319t296 -119z" />
    <glyph glyph-name="ohungarumlaut" unicode="&#x151;" horiz-adv-x="1283" 
d="M351 1174l266 382l158 -112l-227 -270h-197zM734 1174l267 382l157 -112l-226 -270h-198zM641 -20q-262 0 -424 145t-162 398q0 252 161.5 396.5t424.5 144.5q264 0 425.5 -144.5t161.5 -396.5q0 -253 -162 -398t-425 -145zM637 236q120 0 193.5 79t73.5 208
q0 128 -73.5 207t-193.5 79q-115 0 -186.5 -79t-71.5 -207t71.5 -207.5t186.5 -79.5z" />
    <glyph glyph-name="OE" unicode="&#x152;" horiz-adv-x="2014" 
d="M801 0q-191 0 -331.5 52t-225.5 150.5t-126 230t-41 300.5q0 134 25 244t80.5 200.5t139.5 152t205 95t274 33.5h1090v-300h-558v-275h472v-300h-472v-283h558v-300h-1090zM819 300h174v858h-174q-112 0 -187.5 -26.5t-119 -82.5t-61.5 -131.5t-18 -184.5t18.5 -186
t61.5 -134t119 -85t187 -28z" />
    <glyph glyph-name="oe" unicode="&#x153;" horiz-adv-x="2052" 
d="M1992 535l-4 -77h-759q10 -109 77.5 -166t167.5 -57q152 0 204 125l300 -41q-50 -161 -184 -250t-318 -89q-263 0 -415 141q-158 -141 -420 -141t-424 145t-162 398q0 252 161.5 396.5t424.5 144.5t421 -141q151 143 403 143q115 0 209 -31.5t166 -94.5t111.5 -166.5
t40.5 -238.5zM1467 838q-189 0 -229 -170h433q-13 82 -68 126t-136 44zM637 236q120 0 193.5 79t73.5 208q0 128 -73.5 207t-193.5 79q-115 0 -186.5 -79t-71.5 -207t71.5 -207.5t186.5 -79.5z" />
    <glyph glyph-name="Racute" unicode="&#x154;" horiz-adv-x="1359" 
d="M995 1858l-227 -269h-197l266 381zM939 0l-382 637h-41v-637h-341v1458h544q124 0 217.5 -34.5t149.5 -95.5t83.5 -139.5t27.5 -173.5q0 -148 -79.5 -240.5t-222.5 -123.5l448 -651h-404zM516 1178v-320h148q209 0 209 159q0 161 -209 161h-148z" />
    <glyph glyph-name="racute" unicode="&#x155;" horiz-adv-x="813" 
d="M702 1446l-227 -270h-197l266 382zM452 883q42 69 138.5 120.5t205.5 52.5v-289q-176 0 -251 -58.5t-75 -215.5v-493h-330v1044h312v-161z" />
    <glyph glyph-name="Rcommaaccent" unicode="&#x156;" horiz-adv-x="1359" 
d="M895 651l448 -651h-404l-382 637h-41v-637h-341v1458h544q124 0 217.5 -34.5t149.5 -95.5t83.5 -139.5t27.5 -173.5q0 -148 -79.5 -240.5t-222.5 -123.5zM516 1178v-320h148q209 0 209 159q0 161 -209 161h-148zM356 -505l169 376h283l-295 -450z" />
    <glyph glyph-name="rcommaaccent" unicode="&#x157;" horiz-adv-x="813" 
d="M452 883q42 69 138.5 120.5t205.5 52.5v-289q-176 0 -251 -58.5t-75 -215.5v-493h-330v1044h312v-161zM-9 -505l169 376h283l-295 -450z" />
    <glyph glyph-name="Rcaron" unicode="&#x158;" horiz-adv-x="1359" 
d="M763 1589h-189l-233 300h198l129 -151l130 151h197zM939 0l-382 637h-41v-637h-341v1458h544q124 0 217.5 -34.5t149.5 -95.5t83.5 -139.5t27.5 -173.5q0 -148 -79.5 -240.5t-222.5 -123.5l448 -651h-404zM516 1178v-320h148q209 0 209 159q0 161 -209 161h-148z" />
    <glyph glyph-name="rcaron" unicode="&#x159;" horiz-adv-x="813" 
d="M470 1221h-189l-233 300h198l129 -151l130 151h197zM452 883q42 69 138.5 120.5t205.5 52.5v-289q-176 0 -251 -58.5t-75 -215.5v-493h-330v1044h312v-161z" />
    <glyph glyph-name="Sacute" unicode="&#x15a;" horiz-adv-x="1306" 
d="M561 1589l266 381l158 -112l-227 -269h-197zM670 -20q-159 0 -288 49t-215 148.5t-107 237.5l353 81q11 -117 84.5 -179t187.5 -62q86 0 137 39t50 114q0 25 -9 47t-21 38t-38 33t-44.5 27t-58 24.5t-60 21.5t-68.5 22q-14 5 -22 7q-43 14 -70.5 23.5t-68.5 25.5t-68 30
t-61 35t-56.5 42t-46 49.5t-37 59.5t-22 70t-8.5 83q0 200 145.5 316t378.5 116q101 0 192 -21.5t172.5 -66t139.5 -122.5t80 -183l-328 -81q-34 199 -235 199q-89 0 -145 -37.5t-56 -110.5q0 -43 41.5 -76.5t84 -49.5t137.5 -45q21 -7 32 -10q57 -18 94.5 -31t92 -36
t90.5 -46t76.5 -57.5t64 -73t39.5 -91t16 -112.5q0 -114 -45.5 -202t-124 -140.5t-176 -78.5t-209.5 -26z" />
    <glyph glyph-name="sacute" unicode="&#x15b;" horiz-adv-x="1008" 
d="M411 1177l266 382l158 -112l-227 -270h-197zM518 -20q-187 0 -311 72.5t-152 217.5l271 76q45 -142 194 -142q55 0 92.5 19.5t36.5 66.5q0 30 -18.5 51.5t-54.5 36t-74 25.5t-94 26.5t-97 31.5q-50 19 -87 40t-72 54t-53.5 81t-18.5 110q0 156 116 236.5t305 80.5
q167 0 280 -66.5t143 -210.5l-250 -55q-45 119 -172 119q-56 0 -91 -18.5t-35 -55.5q0 -15 6.5 -27.5t21 -22.5t29.5 -17.5t40.5 -14.5t45.5 -12.5t52.5 -13.5t54.5 -14q55 -15 97 -31t90 -44t78.5 -62.5t51 -87.5t20.5 -118q0 -89 -36 -154.5t-99.5 -103t-140.5 -55.5
t-169 -18z" />
    <glyph glyph-name="Scedilla" unicode="&#x15e;" horiz-adv-x="1306" 
d="M1225 427q0 -107 -40 -191.5t-111 -137t-159 -82t-192 -35.5l-60 -99q23 5 43 5q84 0 138.5 -54t54.5 -138q0 -95 -66 -161t-161 -66q-88 0 -152.5 44.5t-87.5 113.5l142 47q11 -29 36.5 -45t54.5 -16q35 0 60.5 22.5t25.5 60.5q0 39 -25 61t-62 22q-47 0 -71 -33
l-115 65l98 175q-208 21 -347.5 132.5t-168.5 297.5l353 81q11 -117 84.5 -179t187.5 -62q86 0 137 39t50 114q0 25 -9 47t-21 38t-38 33t-44.5 27t-58 24.5t-60 21.5t-68.5 22q-14 5 -22 7q-43 14 -70.5 23.5t-68.5 25.5t-68 30t-61 35t-56.5 42t-46 49.5t-37 59.5t-22 70
t-8.5 83q0 200 145.5 316t378.5 116q101 0 192 -21.5t172.5 -66t139.5 -122.5t80 -183l-328 -81q-34 199 -235 199q-89 0 -145 -37.5t-56 -110.5q0 -43 41.5 -76.5t84 -49.5t137.5 -45q21 -7 32 -10q57 -18 94.5 -31t92 -36t90.5 -46t76.5 -57.5t64 -73t39.5 -91t16 -112.5z
" />
    <glyph glyph-name="scedilla" unicode="&#x15f;" horiz-adv-x="1008" 
d="M963 311q0 -82 -31 -144.5t-86 -100.5t-123.5 -58.5t-151.5 -25.5l-58 -98q23 5 43 5q84 0 138.5 -54t54.5 -138q0 -95 -66 -161t-161 -66q-88 0 -152.5 44.5t-87.5 113.5l142 47q11 -29 36.5 -45t54.5 -16q35 0 60.5 22.5t25.5 60.5q0 39 -25 61t-62 22q-47 0 -71 -33
l-115 65l97 173q-151 16 -248 87.5t-122 197.5l271 76q45 -142 194 -142q55 0 92.5 19.5t36.5 66.5q0 30 -18.5 51.5t-54.5 36t-74 25.5t-94 26.5t-97 31.5q-50 19 -87 40t-72 54t-53.5 81t-18.5 110q0 156 116 236.5t305 80.5q167 0 280 -66.5t143 -210.5l-250 -55
q-45 119 -172 119q-56 0 -91 -18.5t-35 -55.5q0 -15 6.5 -27.5t21 -22.5t29.5 -17.5t40.5 -14.5t45.5 -12.5t52.5 -13.5t54.5 -14q55 -15 97 -31t90 -44t78.5 -62.5t51 -87.5t20.5 -118z" />
    <glyph glyph-name="Scaron" unicode="&#x160;" horiz-adv-x="1306" 
d="M564 1589l-233 300h198l129 -151l130 151h197l-232 -300h-189zM670 -20q-159 0 -288 49t-215 148.5t-107 237.5l353 81q11 -117 84.5 -179t187.5 -62q86 0 137 39t50 114q0 25 -9 47t-21 38t-38 33t-44.5 27t-58 24.5t-60 21.5t-68.5 22q-14 5 -22 7q-43 14 -70.5 23.5
t-68.5 25.5t-68 30t-61 35t-56.5 42t-46 49.5t-37 59.5t-22 70t-8.5 83q0 200 145.5 316t378.5 116q101 0 192 -21.5t172.5 -66t139.5 -122.5t80 -183l-328 -81q-34 199 -235 199q-89 0 -145 -37.5t-56 -110.5q0 -43 41.5 -76.5t84 -49.5t137.5 -45q21 -7 32 -10
q57 -18 94.5 -31t92 -36t90.5 -46t76.5 -57.5t64 -73t39.5 -91t16 -112.5q0 -114 -45.5 -202t-124 -140.5t-176 -78.5t-209.5 -26z" />
    <glyph glyph-name="scaron" unicode="&#x161;" horiz-adv-x="1008" 
d="M414 1222l-233 300h198l129 -151l130 151h197l-232 -300h-189zM518 -20q-187 0 -311 72.5t-152 217.5l271 76q45 -142 194 -142q55 0 92.5 19.5t36.5 66.5q0 30 -18.5 51.5t-54.5 36t-74 25.5t-94 26.5t-97 31.5q-50 19 -87 40t-72 54t-53.5 81t-18.5 110
q0 156 116 236.5t305 80.5q167 0 280 -66.5t143 -210.5l-250 -55q-45 119 -172 119q-56 0 -91 -18.5t-35 -55.5q0 -15 6.5 -27.5t21 -22.5t29.5 -17.5t40.5 -14.5t45.5 -12.5t52.5 -13.5t54.5 -14q55 -15 97 -31t90 -44t78.5 -62.5t51 -87.5t20.5 -118q0 -89 -36 -154.5
t-99.5 -103t-140.5 -55.5t-169 -18z" />
    <glyph glyph-name="uni0162" unicode="&#x162;" horiz-adv-x="1083" 
d="M711 0h-93l-71 -118q23 5 43 5q84 0 138.5 -54t54.5 -138q0 -95 -66 -161t-161 -66q-88 0 -152.5 44.5t-87.5 113.5l142 47q11 -29 36.5 -45t54.5 -16q35 0 60.5 22.5t25.5 60.5q0 39 -25 61t-62 22q-47 0 -71 -33l-115 65l106 190h-94v1160h-340v298h1014v-298h-337
v-1160z" />
    <glyph glyph-name="uni0163" unicode="&#x163;" horiz-adv-x="827" 
d="M650 -113q84 0 138.5 -54t54.5 -138q0 -95 -66 -161t-161 -66q-88 0 -152.5 44.5t-87.5 113.5l142 47q11 -29 36.5 -45t54.5 -16q35 0 60.5 22.5t25.5 60.5q0 39 -25 61t-62 22q-47 0 -71 -33l-115 65l106 190q-151 5 -232.5 93t-81.5 246v456h-202v249h62q90 0 134.5 45
t44.5 165v122h293v-332h207v-249h-207v-420q0 -130 114 -130h93v-245h-75l-71 -118q23 5 43 5z" />
    <glyph glyph-name="Tcaron" unicode="&#x164;" horiz-adv-x="1083" 
d="M637 1589h-189l-233 300h198l129 -151l130 151h197zM1048 1458v-298h-337v-1160h-337v1160h-340v298h1014z" />
    <glyph glyph-name="tcaron" unicode="&#x165;" horiz-adv-x="791" 
d="M646 1199l126 664h335l-229 -664h-232zM517 0q-159 0 -245 88.5t-86 250.5v456h-202v249h62q90 0 134.5 45t44.5 165v122h293v-332h207v-249h-207v-420q0 -130 114 -130h93v-245h-208z" />
    <glyph glyph-name="Tbar" unicode="&#x166;" horiz-adv-x="1083" 
d="M1048 1160h-337v-333h190v-196h-190v-631h-337v631h-190v196h190v333h-340v298h1014v-298z" />
    <glyph glyph-name="tbar" unicode="&#x167;" horiz-adv-x="827" 
d="M753 795h-207v-174h143v-196h-143v-50q0 -130 114 -130h93v-245h-208q-159 0 -245 88.5t-86 250.5v86h-139v196h139v174h-202v249h62q90 0 134.5 45t44.5 165v122h293v-332h207v-249z" />
    <glyph glyph-name="Utilde" unicode="&#x168;" horiz-adv-x="1458" 
d="M881 1604q-64 0 -102 20t-68 55q-3 4 -16 20t-18 20.5t-15.5 13.5t-21 12t-22.5 3q-38 0 -57 -36.5t-19 -94.5h-170q0 122 64 198t175 76q105 0 169 -66q10 -9 25 -26.5t23.5 -26.5t23 -16.5t29.5 -7.5q68 0 68 130h172q0 -120 -63 -197t-177 -77zM729 -20
q-100 0 -186.5 19t-160 61t-126 104.5t-82 152.5t-29.5 202v939h340v-893q0 -151 66.5 -218.5t177.5 -67.5t177.5 67.5t66.5 218.5v893h340v-939q0 -112 -29.5 -202t-82 -152.5t-126 -104.5t-160 -61t-186.5 -19z" />
    <glyph glyph-name="utilde" unicode="&#x169;" horiz-adv-x="1310" 
d="M562 1307q-32 0 -47.5 -34.5t-15.5 -92.5h-150q0 122 56 198t152 76q114 0 180 -105q21 -34 52 -34q60 0 60 126h152q0 -120 -54.5 -196.5t-153.5 -76.5q-115 0 -180 104q-22 35 -51 35zM844 1044h326v-1044h-308l-8 123q-119 -143 -338 -143q-195 0 -296.5 94
t-101.5 267v703h328v-633q0 -89 48.5 -130t125.5 -41q46 0 83.5 11.5t70 38t51 76t19.5 118.5v560z" />
    <glyph glyph-name="Umacron" unicode="&#x16a;" horiz-adv-x="1458" 
d="M394 1589v189h670v-189h-670zM729 -20q-100 0 -186.5 19t-160 61t-126 104.5t-82 152.5t-29.5 202v939h340v-893q0 -151 66.5 -218.5t177.5 -67.5t177.5 67.5t66.5 218.5v893h340v-939q0 -112 -29.5 -202t-82 -152.5t-126 -104.5t-160 -61t-186.5 -19z" />
    <glyph glyph-name="umacron" unicode="&#x16b;" horiz-adv-x="1310" 
d="M992 1393v-189h-670v189h670zM844 1044h326v-1044h-308l-8 123q-119 -143 -338 -143q-195 0 -296.5 94t-101.5 267v703h328v-633q0 -89 48.5 -130t125.5 -41q46 0 83.5 11.5t70 38t51 76t19.5 118.5v560z" />
    <glyph glyph-name="Uring" unicode="&#x16e;" horiz-adv-x="1458" 
d="M729 1589q-103 0 -176.5 73.5t-73.5 176.5q0 101 73.5 173.5t176.5 72.5q102 0 174.5 -72.5t72.5 -173.5q0 -103 -72.5 -176.5t-174.5 -73.5zM729 1722q49 0 82 32.5t33 84.5q0 47 -33.5 82t-81.5 35t-80.5 -35t-32.5 -82q0 -52 32 -84.5t81 -32.5zM729 -20
q-100 0 -186.5 19t-160 61t-126 104.5t-82 152.5t-29.5 202v939h340v-893q0 -151 66.5 -218.5t177.5 -67.5t177.5 67.5t66.5 218.5v893h340v-939q0 -112 -29.5 -202t-82 -152.5t-126 -104.5t-160 -61t-186.5 -19z" />
    <glyph glyph-name="uring" unicode="&#x16f;" horiz-adv-x="1310" 
d="M657 1149q-103 0 -176.5 73.5t-73.5 176.5q0 101 73.5 174t176.5 73q102 0 174.5 -73t72.5 -174q0 -103 -72.5 -176.5t-174.5 -73.5zM657 1517q-48 0 -80.5 -35t-32.5 -83q0 -52 32 -84t81 -32q50 0 82.5 32t32.5 84q0 47 -33.5 82.5t-81.5 35.5zM844 1044h326v-1044
h-308l-8 123q-119 -143 -338 -143q-195 0 -296.5 94t-101.5 267v703h328v-633q0 -89 48.5 -130t125.5 -41q46 0 83.5 11.5t70 38t51 76t19.5 118.5v560z" />
    <glyph glyph-name="Uhungarumlaut" unicode="&#x170;" horiz-adv-x="1458" 
d="M439 1589l266 381l158 -112l-227 -269h-197zM822 1589l267 381l157 -112l-226 -269h-198zM729 -20q-100 0 -186.5 19t-160 61t-126 104.5t-82 152.5t-29.5 202v939h340v-893q0 -151 66.5 -218.5t177.5 -67.5t177.5 67.5t66.5 218.5v893h340v-939q0 -112 -29.5 -202
t-82 -152.5t-126 -104.5t-160 -61t-186.5 -19z" />
    <glyph glyph-name="uhungarumlaut" unicode="&#x171;" horiz-adv-x="1310" 
d="M791 1446l-227 -270h-197l266 382zM948 1176h-198l267 382l157 -112zM844 484v560h326v-1044h-308l-8 123q-119 -143 -338 -143q-195 0 -296.5 94t-101.5 267v703h328v-633q0 -89 48.5 -130t125.5 -41q46 0 83.5 11.5t70 38t51 76t19.5 118.5z" />
    <glyph glyph-name="Uogonek" unicode="&#x172;" horiz-adv-x="1458" 
d="M973 1458h340v-939q0 -335 -252 -467q-148 -135 -148 -197q0 -33 54 -33q30 0 64 12t54 32v-201q-68 -30 -155 -30t-143 29.5t-56 84.5q0 91 141 242q-71 -11 -143 -11q-100 0 -186.5 19t-160 61t-126 104.5t-82 152.5t-29.5 202v939h340v-893q0 -151 66.5 -218.5
t177.5 -67.5t177.5 67.5t66.5 218.5v893z" />
    <glyph glyph-name="uogonek" unicode="&#x173;" horiz-adv-x="1310" 
d="M1170 0q-68 -58 -120 -120t-52 -98q0 -33 54 -33q30 0 64 12t54 32v-201q-68 -30 -155 -30t-143 29.5t-56 84.5q0 117 224 324h-178l-8 123q-119 -143 -338 -143q-195 0 -296.5 94t-101.5 267v703h328v-633q0 -89 48.5 -130t125.5 -41q46 0 83.5 11.5t70 38t51 76
t19.5 118.5v560h326v-1044z" />
    <glyph glyph-name="Wcircumflex" unicode="&#x174;" horiz-adv-x="2219" 
d="M979 1589h-197l232 300h190l232 -300h-198l-129 150zM404 0l-369 1458h354l265 -1073l313 1073h285l311 -1073l267 1073h353l-368 -1458h-445l-261 829l-260 -829h-445z" />
    <glyph glyph-name="wcircumflex" unicode="&#x175;" horiz-adv-x="1804" 
d="M915 1372l-130 -151h-197l232 300h190l232 -300h-198zM1465 1044h336l-366 -1046h-305l-228 654l-231 -654h-308l-360 1046h336l202 -641l234 641h251l233 -638z" />
    <glyph glyph-name="Ycircumflex" unicode="&#x176;" horiz-adv-x="1317" 
d="M659 1739l-130 -150h-197l232 300h190l232 -300h-198zM1310 1458l-479 -761v-697h-341v692l-483 766h375l277 -463l278 463h373z" />
    <glyph glyph-name="ycircumflex" unicode="&#x177;" horiz-adv-x="1161" 
d="M582 1372l-130 -151h-197l232 300h190l232 -300h-198zM835 1044h333l-656 -1535h-329l247 540l-437 995h355l234 -646z" />
    <glyph glyph-name="Ydieresis" unicode="&#x178;" horiz-adv-x="1317" 
d="M434 1536q-76 0 -130 53t-54 129q0 75 54 128t130 53q74 0 127.5 -53t53.5 -128t-53.5 -128.5t-127.5 -53.5zM884 1536q-76 0 -130 53t-54 129q0 75 54 128t130 53q74 0 127.5 -53t53.5 -128t-53.5 -128.5t-127.5 -53.5zM1310 1458l-479 -761v-697h-341v692l-483 766h375
l277 -463l278 463h373z" />
    <glyph glyph-name="Zacute" unicode="&#x179;" horiz-adv-x="1233" 
d="M972 1858l-227 -269h-197l266 381zM494 300h651v-300h-1057v267l648 893h-647v298h1048v-267z" />
    <glyph glyph-name="zacute" unicode="&#x17a;" horiz-adv-x="963" 
d="M826 1446l-227 -270h-197l266 382zM921 1044l-431 -795h411v-249h-868l428 794h-390v250h850z" />
    <glyph glyph-name="Zdotaccent" unicode="&#x17b;" horiz-adv-x="1233" 
d="M646 1536q-76 0 -130 53t-54 129q0 75 54 128t130 53q74 0 127.5 -53t53.5 -128t-53.5 -128.5t-127.5 -53.5zM494 300h651v-300h-1057v267l648 893h-647v298h1048v-267z" />
    <glyph glyph-name="zdotaccent" unicode="&#x17c;" horiz-adv-x="963" 
d="M500 1172q-76 0 -130 53t-54 129q0 75 54 128t130 53q74 0 127.5 -53t53.5 -128t-53.5 -128.5t-127.5 -53.5zM921 1044l-431 -795h411v-249h-868l428 794h-390v250h850z" />
    <glyph glyph-name="Zcaron" unicode="&#x17d;" horiz-adv-x="1233" 
d="M740 1589h-189l-233 300h198l129 -151l130 151h197zM494 300h651v-300h-1057v267l648 893h-647v298h1048v-267z" />
    <glyph glyph-name="zcaron" unicode="&#x17e;" horiz-adv-x="963" 
d="M594 1221h-189l-233 300h198l129 -151l130 151h197zM921 1044l-431 -795h411v-249h-868l428 794h-390v250h850z" />
    <glyph glyph-name="florin" unicode="&#x192;" horiz-adv-x="1068" 
d="M119 -434l195 1229h-171l39 249h173l19 135q24 161 155 269t294 108q53 0 99 -11.5t64 -26.5l-26 -227q-36 32 -102 32q-78 0 -129 -50t-65 -138l-14 -91h274l-39 -249h-274l-196 -1229h-296z" />
    <glyph glyph-name="Ohorn" unicode="&#x1a0;" horiz-adv-x="1656" 
d="M1502 1562h151v-186q0 -226 -184 -230q110 -181 110 -417q0 -167 -56.5 -308t-156 -237.5t-238 -150t-300.5 -53.5t-300.5 53.5t-238 150t-156 237.5t-56.5 308q0 223 97 394.5t267.5 263t386.5 91.5q298 0 502 -171q42 -17 75 -17q56 0 76.5 28t20.5 109v135zM828 291
q180 0 297 119t117 319t-117 319t-297 119t-296 -119t-116 -319t116 -319t296 -119z" />
    <glyph glyph-name="ohorn" unicode="&#x1a1;" horiz-adv-x="1283" 
d="M1162 1216h151v-186q0 -205 -153 -227q68 -121 68 -280q0 -253 -162 -398t-425 -145q-262 0 -424 145t-162 398q0 252 161.5 396.5t424.5 144.5q235 0 391 -116q16 -4 33 -4q56 0 76.5 28t20.5 109v135zM637 236q120 0 193.5 79t73.5 208q0 128 -73.5 207t-193.5 79
q-115 0 -186.5 -79t-71.5 -207t71.5 -207.5t186.5 -79.5z" />
    <glyph glyph-name="Uhorn" unicode="&#x1af;" horiz-adv-x="1458" 
d="M1464 1644h151v-186q0 -230 -191 -230q-49 0 -111 20v-729q0 -112 -29.5 -202t-82 -152.5t-126 -104.5t-160 -61t-186.5 -19t-186.5 19t-160 61t-126 104.5t-82 152.5t-29.5 202v939h340v-893q0 -151 66.5 -218.5t177.5 -67.5t177.5 67.5t66.5 218.5v893h340v-77
q31 -9 54 -9q56 0 76.5 28t20.5 109v135z" />
    <glyph glyph-name="uhorn" unicode="&#x1b0;" horiz-adv-x="1310" 
d="M1311 1230h151v-186q0 -230 -191 -230q-45 0 -101 17v-831h-308l-8 123q-119 -143 -338 -143q-195 0 -296.5 94t-101.5 267v703h328v-633q0 -89 48.5 -130t125.5 -41q46 0 83.5 11.5t70 38t51 76t19.5 118.5v560h326v-80q25 -6 44 -6q56 0 76.5 28t20.5 109v135z" />
    <glyph glyph-name="uni01CD" unicode="&#x1cd;" horiz-adv-x="1531" 
d="M861 1589h-189l-233 300h198l129 -151l130 151h197zM1164 0l-100 285h-597l-100 -285h-347l536 1458h419l536 -1458h-347zM566 568h399l-199 571z" />
    <glyph glyph-name="uni01CE" unicode="&#x1ce;" horiz-adv-x="1148" 
d="M670 1221h-189l-233 300h198l129 -151l130 151h197zM1026 274q0 -161 25 -244v-30h-301l-23 111q-53 -65 -144.5 -98t-189.5 -33q-51 0 -96.5 9t-88.5 30t-74 53.5t-49.5 83t-18.5 114.5t19.5 114.5t51 85t82.5 62t102.5 45t122.5 33.5l169 41q57 13 80 32t23 51
q0 41 -26.5 66.5t-59.5 33.5t-74 8q-167 0 -191 -150l-288 50q35 166 157 243.5t342 77.5q70 0 128 -8t120 -32.5t104.5 -64.5t70 -110.5t27.5 -164.5v-409zM496 197q96 0 166.5 69.5t70.5 198.5l-241 -74q-56 -16 -85.5 -37.5t-29.5 -61.5q0 -45 34 -70t85 -25z" />
    <glyph glyph-name="uni01CF" unicode="&#x1cf;" horiz-adv-x="691" 
d="M250 1589l-233 300h198l129 -151l130 151h197l-232 -300h-189zM175 0v1458h341v-1458h-341z" />
    <glyph glyph-name="uni01D0" unicode="&#x1d0;" horiz-adv-x="608" 
d="M211 1221l-233 300h198l129 -151l130 151h197l-232 -300h-189zM140 0v1044h328v-1044h-328z" />
    <glyph glyph-name="uni01D1" unicode="&#x1d1;" horiz-adv-x="1656" 
d="M734 1589l-233 300h198l129 -151l130 151h197l-232 -300h-189zM828 -20q-162 0 -300.5 53.5t-238 150t-156 237.5t-56.5 308q0 223 97 394.5t267.5 263t386.5 91.5t386.5 -91.5t267.5 -263t97 -394.5q0 -167 -56.5 -308t-156 -237.5t-238 -150t-300.5 -53.5zM828 291
q180 0 297 119t117 319t-117 319t-297 119t-296 -119t-116 -319t116 -319t296 -119z" />
    <glyph glyph-name="uni01D2" unicode="&#x1d2;" horiz-adv-x="1283" 
d="M547 1219l-233 300h198l129 -151l130 151h197l-232 -300h-189zM641 -20q-262 0 -424 145t-162 398q0 252 161.5 396.5t424.5 144.5q264 0 425.5 -144.5t161.5 -396.5q0 -253 -162 -398t-425 -145zM637 236q120 0 193.5 79t73.5 208q0 128 -73.5 207t-193.5 79
q-115 0 -186.5 -79t-71.5 -207t71.5 -207.5t186.5 -79.5z" />
    <glyph glyph-name="uni01D3" unicode="&#x1d3;" horiz-adv-x="1458" 
d="M635 1589l-233 300h198l129 -151l130 151h197l-232 -300h-189zM729 -20q-100 0 -186.5 19t-160 61t-126 104.5t-82 152.5t-29.5 202v939h340v-893q0 -151 66.5 -218.5t177.5 -67.5t177.5 67.5t66.5 218.5v893h340v-939q0 -112 -29.5 -202t-82 -152.5t-126 -104.5
t-160 -61t-186.5 -19z" />
    <glyph glyph-name="uni01D4" unicode="&#x1d4;" horiz-adv-x="1310" 
d="M752 1221h-189l-233 300h198l129 -151l130 151h197zM844 1044h326v-1044h-308l-8 123q-119 -143 -338 -143q-195 0 -296.5 94t-101.5 267v703h328v-633q0 -89 48.5 -130t125.5 -41q46 0 83.5 11.5t70 38t51 76t19.5 118.5v560z" />
    <glyph glyph-name="uni01D5" unicode="&#x1d5;" horiz-adv-x="1458" 
d="M394 2030v189h670v-189h-670zM504 1536q-76 0 -130 53t-54 129q0 75 54 128t130 53q74 0 127.5 -53t53.5 -128t-53.5 -128.5t-127.5 -53.5zM954 1536q-76 0 -130 53t-54 129q0 75 54 128t130 53q74 0 127.5 -53t53.5 -128t-53.5 -128.5t-127.5 -53.5zM729 -20
q-100 0 -186.5 19t-160 61t-126 104.5t-82 152.5t-29.5 202v939h340v-893q0 -151 66.5 -218.5t177.5 -67.5t177.5 67.5t66.5 218.5v893h340v-939q0 -112 -29.5 -202t-82 -152.5t-126 -104.5t-160 -61t-186.5 -19z" />
    <glyph glyph-name="uni01D6" unicode="&#x1d6;" horiz-adv-x="1310" 
d="M992 1863v-189h-670v189h670zM432 1172q-76 0 -130 53t-54 129q0 75 54 128t130 53q74 0 127.5 -53t53.5 -128t-53.5 -128.5t-127.5 -53.5zM698 1354q0 75 54 128t130 53q74 0 127.5 -53t53.5 -128t-53.5 -128.5t-127.5 -53.5q-76 0 -130 53t-54 129zM844 1044h326v-1044
h-308l-8 123q-119 -143 -338 -143q-195 0 -296.5 94t-101.5 267v703h328v-633q0 -89 48.5 -130t125.5 -41q46 0 83.5 11.5t70 38t51 76t19.5 118.5v560z" />
    <glyph glyph-name="uni01D7" unicode="&#x1d7;" horiz-adv-x="1458" 
d="M632 2030l266 381l158 -112l-227 -269h-197zM504 1536q-76 0 -130 53t-54 129q0 75 54 128t130 53q74 0 127.5 -53t53.5 -128t-53.5 -128.5t-127.5 -53.5zM954 1536q-76 0 -130 53t-54 129q0 75 54 128t130 53q74 0 127.5 -53t53.5 -128t-53.5 -128.5t-127.5 -53.5z
M729 -20q-100 0 -186.5 19t-160 61t-126 104.5t-82 152.5t-29.5 202v939h340v-893q0 -151 66.5 -218.5t177.5 -67.5t177.5 67.5t66.5 218.5v893h340v-939q0 -112 -29.5 -202t-82 -152.5t-126 -104.5t-160 -61t-186.5 -19z" />
    <glyph glyph-name="uni01D8" unicode="&#x1d8;" horiz-adv-x="1310" 
d="M984 1916l-227 -270h-197l266 382zM432 1172q-76 0 -130 53t-54 129q0 75 54 128t130 53q74 0 127.5 -53t53.5 -128t-53.5 -128.5t-127.5 -53.5zM698 1354q0 75 54 128t130 53q74 0 127.5 -53t53.5 -128t-53.5 -128.5t-127.5 -53.5q-76 0 -130 53t-54 129zM844 1044h326
v-1044h-308l-8 123q-119 -143 -338 -143q-195 0 -296.5 94t-101.5 267v703h328v-633q0 -89 48.5 -130t125.5 -41q46 0 83.5 11.5t70 38t51 76t19.5 118.5v560z" />
    <glyph glyph-name="uni01D9" unicode="&#x1d9;" horiz-adv-x="1458" 
d="M635 2030l-233 300h198l129 -151l130 151h197l-232 -300h-189zM504 1536q-76 0 -130 53t-54 129q0 75 54 128t130 53q74 0 127.5 -53t53.5 -128t-53.5 -128.5t-127.5 -53.5zM954 1536q-76 0 -130 53t-54 129q0 75 54 128t130 53q74 0 127.5 -53t53.5 -128t-53.5 -128.5
t-127.5 -53.5zM729 -20q-100 0 -186.5 19t-160 61t-126 104.5t-82 152.5t-29.5 202v939h340v-893q0 -151 66.5 -218.5t177.5 -67.5t177.5 67.5t66.5 218.5v893h340v-939q0 -112 -29.5 -202t-82 -152.5t-126 -104.5t-160 -61t-186.5 -19z" />
    <glyph glyph-name="uni01DA" unicode="&#x1da;" horiz-adv-x="1310" 
d="M752 1691h-189l-233 300h198l129 -151l130 151h197zM432 1172q-76 0 -130 53t-54 129q0 75 54 128t130 53q74 0 127.5 -53t53.5 -128t-53.5 -128.5t-127.5 -53.5zM698 1354q0 75 54 128t130 53q74 0 127.5 -53t53.5 -128t-53.5 -128.5t-127.5 -53.5q-76 0 -130 53
t-54 129zM844 1044h326v-1044h-308l-8 123q-119 -143 -338 -143q-195 0 -296.5 94t-101.5 267v703h328v-633q0 -89 48.5 -130t125.5 -41q46 0 83.5 11.5t70 38t51 76t19.5 118.5v560z" />
    <glyph glyph-name="uni01DB" unicode="&#x1db;" horiz-adv-x="1458" 
d="M631 2030l-227 269l158 112l266 -381h-197zM504 1536q-76 0 -130 53t-54 129q0 75 54 128t130 53q74 0 127.5 -53t53.5 -128t-53.5 -128.5t-127.5 -53.5zM954 1536q-76 0 -130 53t-54 129q0 75 54 128t130 53q74 0 127.5 -53t53.5 -128t-53.5 -128.5t-127.5 -53.5z
M729 -20q-100 0 -186.5 19t-160 61t-126 104.5t-82 152.5t-29.5 202v939h340v-893q0 -151 66.5 -218.5t177.5 -67.5t177.5 67.5t66.5 218.5v893h340v-939q0 -112 -29.5 -202t-82 -152.5t-126 -104.5t-160 -61t-186.5 -19z" />
    <glyph glyph-name="uni01DC" unicode="&#x1dc;" horiz-adv-x="1310" 
d="M756 1646h-197l-227 270l158 112zM432 1172q-76 0 -130 53t-54 129q0 75 54 128t130 53q74 0 127.5 -53t53.5 -128t-53.5 -128.5t-127.5 -53.5zM698 1354q0 75 54 128t130 53q74 0 127.5 -53t53.5 -128t-53.5 -128.5t-127.5 -53.5q-76 0 -130 53t-54 129zM844 1044h326
v-1044h-308l-8 123q-119 -143 -338 -143q-195 0 -296.5 94t-101.5 267v703h328v-633q0 -89 48.5 -130t125.5 -41q46 0 83.5 11.5t70 38t51 76t19.5 118.5v560z" />
    <glyph glyph-name="Scommaaccent" unicode="&#x218;" horiz-adv-x="1306" 
d="M670 -20q-159 0 -288 49t-215 148.5t-107 237.5l353 81q11 -117 84.5 -179t187.5 -62q86 0 137 39t50 114q0 25 -9 47t-21 38t-38 33t-44.5 27t-58 24.5t-60 21.5t-68.5 22q-14 5 -22 7q-43 14 -70.5 23.5t-68.5 25.5t-68 30t-61 35t-56.5 42t-46 49.5t-37 59.5t-22 70
t-8.5 83q0 200 145.5 316t378.5 116q101 0 192 -21.5t172.5 -66t139.5 -122.5t80 -183l-328 -81q-34 199 -235 199q-89 0 -145 -37.5t-56 -110.5q0 -43 41.5 -76.5t84 -49.5t137.5 -45q21 -7 32 -10q57 -18 94.5 -31t92 -36t90.5 -46t76.5 -57.5t64 -73t39.5 -91t16 -112.5
q0 -114 -45.5 -202t-124 -140.5t-176 -78.5t-209.5 -26zM503 -579l-157 74l169 376h283z" />
    <glyph glyph-name="scommaaccent" unicode="&#x219;" horiz-adv-x="1008" 
d="M518 -20q-187 0 -311 72.5t-152 217.5l271 76q45 -142 194 -142q55 0 92.5 19.5t36.5 66.5q0 30 -18.5 51.5t-54.5 36t-74 25.5t-94 26.5t-97 31.5q-50 19 -87 40t-72 54t-53.5 81t-18.5 110q0 156 116 236.5t305 80.5q167 0 280 -66.5t143 -210.5l-250 -55
q-45 119 -172 119q-56 0 -91 -18.5t-35 -55.5q0 -15 6.5 -27.5t21 -22.5t29.5 -17.5t40.5 -14.5t45.5 -12.5t52.5 -13.5t54.5 -14q55 -15 97 -31t90 -44t78.5 -62.5t51 -87.5t20.5 -118q0 -89 -36 -154.5t-99.5 -103t-140.5 -55.5t-169 -18zM353 -577l-157 74l169 376h283z
" />
    <glyph glyph-name="uni021A" unicode="&#x21a;" horiz-adv-x="1083" 
d="M1048 1458v-298h-337v-1160h-337v1160h-340v298h1014zM230 -505l169 376h283l-295 -450z" />
    <glyph glyph-name="uni021B" unicode="&#x21b;" horiz-adv-x="827" 
d="M545 0q-159 0 -245 88.5t-86 250.5v456h-202v249h62q90 0 134.5 45t44.5 165v122h293v-332h207v-249h-207v-420q0 -130 114 -130h93v-245h-208zM447 -579l-157 74l169 376h283z" />
    <glyph glyph-name="uni0237" unicode="&#x237;" horiz-adv-x="612" 
d="M-64 -490v252q66 0 106 14.5t62 51.5t29 85t7 129v1002h332v-1002q0 -272 -126.5 -402t-409.5 -130z" />
    <glyph glyph-name="circumflex" unicode="&#x2c6;" horiz-adv-x="716" 
d="M228 1236h-197l232 300h190l232 -300h-198l-129 151z" />
    <glyph glyph-name="caron" unicode="&#x2c7;" horiz-adv-x="721" 
d="M266 1236l-233 300h198l129 -151l130 151h197l-232 -300h-189z" />
    <glyph glyph-name="breve" unicode="&#x2d8;" horiz-adv-x="896" 
d="M447 1174q-171 0 -271.5 92t-100.5 270h202q0 -97 43 -154.5t127 -57.5q85 0 128.5 57.5t43.5 154.5h203q0 -178 -101 -270t-274 -92z" />
    <glyph glyph-name="dotaccent" unicode="&#x2d9;" horiz-adv-x="551" 
d="M276 1172q-76 0 -130 53t-54 129q0 75 54 128t130 53q74 0 127.5 -53t53.5 -128t-53.5 -128.5t-127.5 -53.5z" />
    <glyph glyph-name="ring" unicode="&#x2da;" horiz-adv-x="657" 
d="M329 1129q-103 0 -176.5 73.5t-73.5 176.5q0 101 73.5 174t176.5 73q102 0 174.5 -73t72.5 -174q0 -103 -72.5 -176.5t-174.5 -73.5zM329 1263q50 0 82.5 32t32.5 84q0 47 -33.5 82.5t-81.5 35.5t-80.5 -35t-32.5 -83q0 -52 32 -84t81 -32z" />
    <glyph glyph-name="ogonek" unicode="&#x2db;" horiz-adv-x="522" 
d="M255 -438q-87 0 -143 29.5t-56 84.5q0 68 74.5 164t188.5 195l91 -35q-68 -58 -120 -120t-52 -98q0 -33 54 -33q30 0 64 12t54 32v-201q-68 -30 -155 -30z" />
    <glyph glyph-name="tilde" unicode="&#x2dc;" horiz-adv-x="842" 
d="M539 1168q-115 0 -180 104q-22 35 -51 35q-32 0 -47.5 -34.5t-15.5 -92.5h-150q0 122 56 198t152 76q114 0 180 -105q21 -34 52 -34q60 0 60 126h152q0 -120 -54.5 -196.5t-153.5 -76.5z" />
    <glyph glyph-name="hungarumlaut" unicode="&#x2dd;" horiz-adv-x="871" 
d="M22 1191l266 382l158 -112l-227 -270h-197zM405 1191l267 382l157 -112l-226 -270h-198z" />
    <glyph glyph-name="gravecomb" unicode="&#x300;" 
d="M-219 1191l-227 270l158 112l266 -382h-197z" />
    <glyph glyph-name="acutecomb" unicode="&#x301;" 
d="M-466 1191l266 382l158 -112l-227 -270h-197z" />
    <glyph glyph-name="uni0302" unicode="&#x302;" 
d="M-488 1236h-197l232 300h190l232 -300h-198l-129 151z" />
    <glyph glyph-name="tildecomb" unicode="&#x303;" 
d="M-303 1168q-115 0 -180 104q-22 35 -51 35q-32 0 -47.5 -34.5t-15.5 -92.5h-150q0 122 56 198t152 76q114 0 180 -105q21 -34 52 -34q60 0 60 126h152q0 -120 -54.5 -196.5t-153.5 -76.5z" />
    <glyph glyph-name="uni0304" unicode="&#x304;" 
d="M-806 1219v189h670v-189h-670z" />
    <glyph glyph-name="uni0306" unicode="&#x306;" 
d="M-449 1174q-171 0 -271.5 92t-100.5 270h202q0 -97 43 -154.5t127 -57.5q85 0 128.5 57.5t43.5 154.5h203q0 -178 -101 -270t-274 -92z" />
    <glyph glyph-name="uni0307" unicode="&#x307;" 
d="M-275 1172q-76 0 -130 53t-54 129q0 75 54 128t130 53q74 0 127.5 -53t53.5 -128t-53.5 -128.5t-127.5 -53.5z" />
    <glyph glyph-name="uni0308" unicode="&#x308;" 
d="M-725 1172q-76 0 -130 53t-54 129q0 75 54 128t130 53q74 0 127.5 -53t53.5 -128t-53.5 -128.5t-127.5 -53.5zM-275 1172q-76 0 -130 53t-54 129q0 75 54 128t130 53q74 0 127.5 -53t53.5 -128t-53.5 -128.5t-127.5 -53.5z" />
    <glyph glyph-name="hookabovecomb" unicode="&#x309;" 
d="M-351 1135v141q108 17 108 92q0 29 -15.5 46t-47.5 17q-48 0 -86 -41l-72 106q70 60 178 60q96 0 148.5 -48t52.5 -129q0 -69 -34.5 -104.5t-91.5 -53.5v-86h-140z" />
    <glyph glyph-name="uni030A" unicode="&#x30a;" 
d="M-328 1129q-103 0 -176.5 73.5t-73.5 176.5q0 101 73.5 174t176.5 73q102 0 174.5 -73t72.5 -174q0 -103 -72.5 -176.5t-174.5 -73.5zM-328 1263q50 0 82.5 32t32.5 84q0 47 -33.5 82.5t-81.5 35.5t-80.5 -35t-32.5 -83q0 -52 32 -84t81 -32z" />
    <glyph glyph-name="uni030B" unicode="&#x30b;" 
d="M-849 1191l266 382l158 -112l-227 -270h-197zM-466 1191l267 382l157 -112l-226 -270h-198z" />
    <glyph glyph-name="uni030C" unicode="&#x30c;" 
d="M-455 1236l-233 300h198l129 -151l130 151h197l-232 -300h-189z" />
    <glyph glyph-name="uni0312" unicode="&#x312;" 
d="M-309 1534h232l-126 -334h-334z" />
    <glyph glyph-name="uni031B" unicode="&#x31b;" 
d="M-308 743q-102 0 -206 65l51 107q53 -28 98 -28q56 0 76.5 28t20.5 109v135h151v-186q0 -230 -191 -230z" />
    <glyph glyph-name="dotbelowcomb" unicode="&#x323;" 
d="M-275 -512q-76 0 -130 53t-54 129q0 75 54 128t130 53q74 0 127.5 -53t53.5 -128t-53.5 -128.5t-127.5 -53.5z" />
    <glyph glyph-name="uni0326" unicode="&#x326;" 
d="M-313 -579l-157 74l169 376h283z" />
    <glyph glyph-name="uni0327" unicode="&#x327;" 
d="M-290 -532q-88 0 -152.5 44.5t-87.5 113.5l142 47q11 -29 36.5 -45t54.5 -16q35 0 60.5 22.5t25.5 60.5q0 39 -25 61t-62 22q-47 0 -71 -33l-115 65l125 224h151l-91 -152q23 5 43 5q84 0 138.5 -54t54.5 -138q0 -95 -66 -161t-161 -66z" />
    <glyph glyph-name="uni0328" unicode="&#x328;" 
d="M-267 -438q-87 0 -143 29.5t-56 84.5q0 68 74.5 164t188.5 195l91 -35q-68 -58 -120 -120t-52 -98q0 -33 54 -33q30 0 64 12t54 32v-201q-68 -30 -155 -30z" />
    <glyph glyph-name="uni0335" unicode="&#x335;" 
d="M-855 413v196h717v-196h-717z" />
    <glyph glyph-name="uni0336" unicode="&#x336;" 
d="M-1669 469v127h1533v-127h-1533z" />
    <glyph glyph-name="uni0337" unicode="&#x337;" 
d="M-697 238v200l666 494v-201z" />
    <glyph glyph-name="uni0338" unicode="&#x338;" 
d="M-910 206l805 1155l125 -74l-805 -1155z" />
    <glyph glyph-name="uni0394" unicode="&#x394;" horiz-adv-x="1619" 
d="M985 1536l617 -1536h-1584l616 1536h351zM473 306h673l-336 879z" />
    <glyph glyph-name="uni03A9" unicode="&#x3a9;" horiz-adv-x="1757" 
d="M98 0v281h237v3q-79 87 -140 238t-61 318q0 148 53.5 278t149.5 224.5t237 149.5t308 55q176 0 319.5 -59.5t234 -159t139 -225t48.5 -262.5q0 -157 -59 -309.5t-150 -247.5v-3h243v-281h-686v213q127 75 204 221.5t77 353.5q0 221 -96.5 347t-271.5 126
q-169 0 -274.5 -125t-105.5 -349q0 -208 81 -360.5t203 -213.5v-213h-690z" />
    <glyph glyph-name="uni03BC" unicode="&#x3bc;" horiz-adv-x="1245" 
d="M783 970h328v-970h-328v97q-112 -115 -269 -115q-74 0 -142 28v-483h-237v1443h329v-553q0 -63 43 -106.5t106 -43.5q72 0 121 43.5t49 106.5v553z" />
    <glyph glyph-name="pi" unicode="&#x3c0;" horiz-adv-x="1322" 
d="M130 0q49 156 86 374t37 356q-140 0 -204 -15l-32 182q86 66 362 66h915l-24 -233h-144v-438q0 -181 26 -292h-296q-36 49 -36 277v453l-266 -2q-7 -167 -42.5 -388.5t-83.5 -339.5h-298z" />
    <glyph glyph-name="Wgrave" unicode="&#x1e80;" horiz-adv-x="2219" 
d="M1011 1589l-227 269l158 112l266 -381h-197zM404 0l-369 1458h354l265 -1073l313 1073h285l311 -1073l267 1073h353l-368 -1458h-445l-261 829l-260 -829h-445z" />
    <glyph glyph-name="wgrave" unicode="&#x1e81;" horiz-adv-x="1804" 
d="M1014 1176h-197l-227 270l158 112zM1465 1044h336l-366 -1046h-305l-228 654l-231 -654h-308l-360 1046h336l202 -641l234 641h251l233 -638z" />
    <glyph glyph-name="Wacute" unicode="&#x1e82;" horiz-adv-x="2219" 
d="M1012 1589l266 381l158 -112l-227 -269h-197zM404 0l-369 1458h354l265 -1073l313 1073h285l311 -1073l267 1073h353l-368 -1458h-445l-261 829l-260 -829h-445z" />
    <glyph glyph-name="wacute" unicode="&#x1e83;" horiz-adv-x="1804" 
d="M1242 1446l-227 -270h-197l266 382zM1465 1044h336l-366 -1046h-305l-228 654l-231 -654h-308l-360 1046h336l202 -641l234 641h251l233 -638z" />
    <glyph glyph-name="Wdieresis" unicode="&#x1e84;" horiz-adv-x="2219" 
d="M884 1536q-76 0 -130 53t-54 129q0 75 54 128t130 53q74 0 127.5 -53t53.5 -128t-53.5 -128.5t-127.5 -53.5zM1334 1536q-76 0 -130 53t-54 129q0 75 54 128t130 53q74 0 127.5 -53t53.5 -128t-53.5 -128.5t-127.5 -53.5zM404 0l-369 1458h354l265 -1073l313 1073h285
l311 -1073l267 1073h353l-368 -1458h-445l-261 829l-260 -829h-445z" />
    <glyph glyph-name="wdieresis" unicode="&#x1e85;" horiz-adv-x="1804" 
d="M690 1172q-76 0 -130 53t-54 129q0 75 54 128t130 53q74 0 127.5 -53t53.5 -128t-53.5 -128.5t-127.5 -53.5zM1140 1172q-76 0 -130 53t-54 129q0 75 54 128t130 53q74 0 127.5 -53t53.5 -128t-53.5 -128.5t-127.5 -53.5zM1465 1044h336l-366 -1046h-305l-228 654
l-231 -654h-308l-360 1046h336l202 -641l234 641h251l233 -638z" />
    <glyph glyph-name="uni1EA0" unicode="&#x1ea0;" horiz-adv-x="1531" 
d="M1511 0h-347l-100 285h-597l-100 -285h-347l536 1458h419zM566 568h399l-199 571zM767 -149q74 0 127.5 -53t53.5 -128t-53.5 -128.5t-127.5 -53.5q-76 0 -130 53t-54 129q0 75 54 128t130 53z" />
    <glyph glyph-name="uni1EA1" unicode="&#x1ea1;" horiz-adv-x="1148" 
d="M1026 274q0 -161 25 -244v-30h-301l-23 111q-53 -65 -144.5 -98t-189.5 -33q-51 0 -96.5 9t-88.5 30t-74 53.5t-49.5 83t-18.5 114.5t19.5 114.5t51 85t82.5 62t102.5 45t122.5 33.5l169 41q57 13 80 32t23 51q0 41 -26.5 66.5t-59.5 33.5t-74 8q-167 0 -191 -150
l-288 50q35 166 157 243.5t342 77.5q70 0 128 -8t120 -32.5t104.5 -64.5t70 -110.5t27.5 -164.5v-409zM496 197q96 0 166.5 69.5t70.5 198.5l-241 -74q-56 -16 -85.5 -37.5t-29.5 -61.5q0 -45 34 -70t85 -25zM638 -149q74 0 127.5 -53t53.5 -128t-53.5 -128.5t-127.5 -53.5
q-76 0 -130 53t-54 129q0 75 54 128t130 53z" />
    <glyph glyph-name="uni1EA2" unicode="&#x1ea2;" horiz-adv-x="1531" 
d="M746 1831q-49 0 -86 -40l-72 105q71 61 178 61q96 0 148.5 -48t52.5 -130q0 -69 -34.5 -104.5t-91.5 -52.5v-86h-140v140q108 19 108 93q0 28 -15.5 45t-47.5 17zM1164 0l-100 285h-597l-100 -285h-347l536 1458h419l536 -1458h-347zM566 568h399l-199 571z" />
    <glyph glyph-name="uni1EA3" unicode="&#x1ea3;" horiz-adv-x="1148" 
d="M555 1416q-48 0 -86 -41l-72 106q70 60 178 60q96 0 148.5 -48t52.5 -129q0 -69 -34.5 -104.5t-91.5 -53.5v-86h-140v141q108 17 108 92q0 29 -15.5 46t-47.5 17zM1026 274q0 -161 25 -244v-30h-301l-23 111q-53 -65 -144.5 -98t-189.5 -33q-51 0 -96.5 9t-88.5 30
t-74 53.5t-49.5 83t-18.5 114.5t19.5 114.5t51 85t82.5 62t102.5 45t122.5 33.5l169 41q57 13 80 32t23 51q0 41 -26.5 66.5t-59.5 33.5t-74 8q-167 0 -191 -150l-288 50q35 166 157 243.5t342 77.5q70 0 128 -8t120 -32.5t104.5 -64.5t70 -110.5t27.5 -164.5v-409zM496 197
q96 0 166.5 69.5t70.5 198.5l-241 -74q-56 -16 -85.5 -37.5t-29.5 -61.5q0 -45 34 -70t85 -25z" />
    <glyph glyph-name="uni1EA4" unicode="&#x1ea4;" horiz-adv-x="1531" 
d="M1093 2246l-227 -269h-197l266 381zM766 1739l-130 -150h-197l232 300h190l232 -300h-198zM1164 0l-100 285h-597l-100 -285h-347l536 1458h419l536 -1458h-347zM566 568h399l-199 571z" />
    <glyph glyph-name="uni1EA5" unicode="&#x1ea5;" horiz-adv-x="1148" 
d="M902 1923l-227 -270h-197l266 382zM575 1372l-130 -151h-197l232 300h190l232 -300h-198zM1026 274q0 -161 25 -244v-30h-301l-23 111q-53 -65 -144.5 -98t-189.5 -33q-51 0 -96.5 9t-88.5 30t-74 53.5t-49.5 83t-18.5 114.5t19.5 114.5t51 85t82.5 62t102.5 45
t122.5 33.5l169 41q57 13 80 32t23 51q0 41 -26.5 66.5t-59.5 33.5t-74 8q-167 0 -191 -150l-288 50q35 166 157 243.5t342 77.5q70 0 128 -8t120 -32.5t104.5 -64.5t70 -110.5t27.5 -164.5v-409zM496 197q96 0 166.5 69.5t70.5 198.5l-241 -74q-56 -16 -85.5 -37.5
t-29.5 -61.5q0 -45 34 -70t85 -25z" />
    <glyph glyph-name="uni1EA6" unicode="&#x1ea6;" horiz-adv-x="1531" 
d="M865 1977h-197l-227 269l158 112zM766 1739l-130 -150h-197l232 300h190l232 -300h-198zM1164 0l-100 285h-597l-100 -285h-347l536 1458h419l536 -1458h-347zM566 568h399l-199 571z" />
    <glyph glyph-name="uni1EA7" unicode="&#x1ea7;" horiz-adv-x="1148" 
d="M674 1653h-197l-227 270l158 112zM575 1372l-130 -151h-197l232 300h190l232 -300h-198zM1026 274q0 -161 25 -244v-30h-301l-23 111q-53 -65 -144.5 -98t-189.5 -33q-51 0 -96.5 9t-88.5 30t-74 53.5t-49.5 83t-18.5 114.5t19.5 114.5t51 85t82.5 62t102.5 45
t122.5 33.5l169 41q57 13 80 32t23 51q0 41 -26.5 66.5t-59.5 33.5t-74 8q-167 0 -191 -150l-288 50q35 166 157 243.5t342 77.5q70 0 128 -8t120 -32.5t104.5 -64.5t70 -110.5t27.5 -164.5v-409zM496 197q96 0 166.5 69.5t70.5 198.5l-241 -74q-56 -16 -85.5 -37.5
t-29.5 -61.5q0 -45 34 -70t85 -25z" />
    <glyph glyph-name="uni1EA8" unicode="&#x1ea8;" horiz-adv-x="1531" 
d="M746 2219q-49 0 -86 -40l-72 105q71 61 178 61q96 0 148.5 -48t52.5 -130q0 -69 -34.5 -104.5t-91.5 -52.5v-86h-140v140q108 19 108 93q0 28 -15.5 45t-47.5 17zM766 1739l-130 -150h-197l232 300h190l232 -300h-198zM1164 0l-100 285h-597l-100 -285h-347l536 1458h419
l536 -1458h-347zM566 568h399l-199 571z" />
    <glyph glyph-name="uni1EA9" unicode="&#x1ea9;" horiz-adv-x="1148" 
d="M555 1893q-48 0 -86 -41l-72 106q70 60 178 60q96 0 148.5 -48t52.5 -129q0 -69 -34.5 -104.5t-91.5 -53.5v-86h-140v141q108 17 108 92q0 29 -15.5 46t-47.5 17zM575 1372l-130 -151h-197l232 300h190l232 -300h-198zM1026 274q0 -161 25 -244v-30h-301l-23 111
q-53 -65 -144.5 -98t-189.5 -33q-51 0 -96.5 9t-88.5 30t-74 53.5t-49.5 83t-18.5 114.5t19.5 114.5t51 85t82.5 62t102.5 45t122.5 33.5l169 41q57 13 80 32t23 51q0 41 -26.5 66.5t-59.5 33.5t-74 8q-167 0 -191 -150l-288 50q35 166 157 243.5t342 77.5q70 0 128 -8
t120 -32.5t104.5 -64.5t70 -110.5t27.5 -164.5v-409zM496 197q96 0 166.5 69.5t70.5 198.5l-241 -74q-56 -16 -85.5 -37.5t-29.5 -61.5q0 -45 34 -70t85 -25z" />
    <glyph glyph-name="uni1EAA" unicode="&#x1eaa;" horiz-adv-x="1531" 
d="M655 2136q-38 0 -57 -36.5t-19 -94.5h-170q0 122 64 198t175 76q105 0 169 -66q10 -9 25 -26.5t23.5 -26.5t23 -16.5t29.5 -7.5q68 0 68 130h172q0 -120 -63 -197t-177 -77q-64 0 -102 20t-68 55q-3 4 -16 20t-18 20.5t-15.5 13.5t-21 12t-22.5 3zM671 1889h190l232 -300
h-198l-129 150l-130 -150h-197zM1164 0l-100 285h-597l-100 -285h-347l536 1458h419l536 -1458h-347zM566 568h399l-199 571z" />
    <glyph glyph-name="uni1EAB" unicode="&#x1eab;" horiz-adv-x="1148" 
d="M480 1784q-32 0 -47.5 -34.5t-15.5 -92.5h-150q0 122 56 198t152 76q114 0 180 -105q21 -34 52 -34q60 0 60 126h152q0 -120 -54.5 -196.5t-153.5 -76.5q-115 0 -180 104q-22 35 -51 35zM575 1372l-130 -151h-197l232 300h190l232 -300h-198zM1026 274q0 -161 25 -244
v-30h-301l-23 111q-53 -65 -144.5 -98t-189.5 -33q-51 0 -96.5 9t-88.5 30t-74 53.5t-49.5 83t-18.5 114.5t19.5 114.5t51 85t82.5 62t102.5 45t122.5 33.5l169 41q57 13 80 32t23 51q0 41 -26.5 66.5t-59.5 33.5t-74 8q-167 0 -191 -150l-288 50q35 166 157 243.5t342 77.5
q70 0 128 -8t120 -32.5t104.5 -64.5t70 -110.5t27.5 -164.5v-409zM496 197q96 0 166.5 69.5t70.5 198.5l-241 -74q-56 -16 -85.5 -37.5t-29.5 -61.5q0 -45 34 -70t85 -25z" />
    <glyph glyph-name="uni1EAC" unicode="&#x1eac;" horiz-adv-x="1531" 
d="M766 1739l-130 -150h-197l232 300h190l232 -300h-198zM1511 0h-347l-100 285h-597l-100 -285h-347l536 1458h419zM566 568h399l-199 571zM767 -149q74 0 127.5 -53t53.5 -128t-53.5 -128.5t-127.5 -53.5q-76 0 -130 53t-54 129q0 75 54 128t130 53z" />
    <glyph glyph-name="uni1EAD" unicode="&#x1ead;" horiz-adv-x="1148" 
d="M575 1372l-130 -151h-197l232 300h190l232 -300h-198zM1026 274q0 -161 25 -244v-30h-301l-23 111q-53 -65 -144.5 -98t-189.5 -33q-51 0 -96.5 9t-88.5 30t-74 53.5t-49.5 83t-18.5 114.5t19.5 114.5t51 85t82.5 62t102.5 45t122.5 33.5l169 41q57 13 80 32t23 51
q0 41 -26.5 66.5t-59.5 33.5t-74 8q-167 0 -191 -150l-288 50q35 166 157 243.5t342 77.5q70 0 128 -8t120 -32.5t104.5 -64.5t70 -110.5t27.5 -164.5v-409zM496 197q96 0 166.5 69.5t70.5 198.5l-241 -74q-56 -16 -85.5 -37.5t-29.5 -61.5q0 -45 34 -70t85 -25zM638 -149
q74 0 127.5 -53t53.5 -128t-53.5 -128.5t-127.5 -53.5q-76 0 -130 53t-54 129q0 75 54 128t130 53z" />
    <glyph glyph-name="uni1EAE" unicode="&#x1eae;" horiz-adv-x="1531" 
d="M1095 2231l-227 -269h-197l266 381zM766 1589q-177 0 -275 70.5t-98 232.5h186q0 -154 187 -154q189 0 189 154h185q0 -162 -97.5 -232.5t-276.5 -70.5zM1164 0l-100 285h-597l-100 -285h-347l536 1458h419l536 -1458h-347zM566 568h399l-199 571z" />
    <glyph glyph-name="uni1EAF" unicode="&#x1eaf;" horiz-adv-x="1148" 
d="M902 1923l-227 -270h-197l266 382zM575 1159q-171 0 -271.5 92t-100.5 270h202q0 -97 43 -154.5t127 -57.5q85 0 128.5 57.5t43.5 154.5h203q0 -178 -101 -270t-274 -92zM1026 274q0 -161 25 -244v-30h-301l-23 111q-53 -65 -144.5 -98t-189.5 -33q-51 0 -96.5 9
t-88.5 30t-74 53.5t-49.5 83t-18.5 114.5t19.5 114.5t51 85t82.5 62t102.5 45t122.5 33.5l169 41q57 13 80 32t23 51q0 41 -26.5 66.5t-59.5 33.5t-74 8q-167 0 -191 -150l-288 50q35 166 157 243.5t342 77.5q70 0 128 -8t120 -32.5t104.5 -64.5t70 -110.5t27.5 -164.5v-409
zM496 197q96 0 166.5 69.5t70.5 198.5l-241 -74q-56 -16 -85.5 -37.5t-29.5 -61.5q0 -45 34 -70t85 -25z" />
    <glyph glyph-name="uni1EB0" unicode="&#x1eb0;" horiz-adv-x="1531" 
d="M867 1962h-197l-227 269l158 112zM766 1589q-177 0 -275 70.5t-98 232.5h186q0 -154 187 -154q189 0 189 154h185q0 -162 -97.5 -232.5t-276.5 -70.5zM1164 0l-100 285h-597l-100 -285h-347l536 1458h419l536 -1458h-347zM566 568h399l-199 571z" />
    <glyph glyph-name="uni1EB1" unicode="&#x1eb1;" horiz-adv-x="1148" 
d="M674 1653h-197l-227 270l158 112zM575 1159q-171 0 -271.5 92t-100.5 270h202q0 -97 43 -154.5t127 -57.5q85 0 128.5 57.5t43.5 154.5h203q0 -178 -101 -270t-274 -92zM1026 274q0 -161 25 -244v-30h-301l-23 111q-53 -65 -144.5 -98t-189.5 -33q-51 0 -96.5 9t-88.5 30
t-74 53.5t-49.5 83t-18.5 114.5t19.5 114.5t51 85t82.5 62t102.5 45t122.5 33.5l169 41q57 13 80 32t23 51q0 41 -26.5 66.5t-59.5 33.5t-74 8q-167 0 -191 -150l-288 50q35 166 157 243.5t342 77.5q70 0 128 -8t120 -32.5t104.5 -64.5t70 -110.5t27.5 -164.5v-409zM496 197
q96 0 166.5 69.5t70.5 198.5l-241 -74q-56 -16 -85.5 -37.5t-29.5 -61.5q0 -45 34 -70t85 -25z" />
    <glyph glyph-name="uni1EB2" unicode="&#x1eb2;" horiz-adv-x="1531" 
d="M748 2204q-49 0 -86 -40l-72 105q71 61 178 61q96 0 148.5 -48t52.5 -130q0 -69 -34.5 -104.5t-91.5 -52.5v-86h-140v140q108 19 108 93q0 28 -15.5 45t-47.5 17zM766 1589q-177 0 -275 70.5t-98 232.5h186q0 -154 187 -154q189 0 189 154h185q0 -162 -97.5 -232.5
t-276.5 -70.5zM1164 0l-100 285h-597l-100 -285h-347l536 1458h419l536 -1458h-347zM566 568h399l-199 571z" />
    <glyph glyph-name="uni1EB3" unicode="&#x1eb3;" horiz-adv-x="1148" 
d="M555 1893q-48 0 -86 -41l-72 106q70 60 178 60q96 0 148.5 -48t52.5 -129q0 -69 -34.5 -104.5t-91.5 -53.5v-86h-140v141q108 17 108 92q0 29 -15.5 46t-47.5 17zM575 1159q-171 0 -271.5 92t-100.5 270h202q0 -97 43 -154.5t127 -57.5q85 0 128.5 57.5t43.5 154.5h203
q0 -178 -101 -270t-274 -92zM1026 274q0 -161 25 -244v-30h-301l-23 111q-53 -65 -144.5 -98t-189.5 -33q-51 0 -96.5 9t-88.5 30t-74 53.5t-49.5 83t-18.5 114.5t19.5 114.5t51 85t82.5 62t102.5 45t122.5 33.5l169 41q57 13 80 32t23 51q0 41 -26.5 66.5t-59.5 33.5t-74 8
q-167 0 -191 -150l-288 50q35 166 157 243.5t342 77.5q70 0 128 -8t120 -32.5t104.5 -64.5t70 -110.5t27.5 -164.5v-409zM496 197q96 0 166.5 69.5t70.5 198.5l-241 -74q-56 -16 -85.5 -37.5t-29.5 -61.5q0 -45 34 -70t85 -25z" />
    <glyph glyph-name="uni1EB4" unicode="&#x1eb4;" horiz-adv-x="1531" 
d="M657 2121q-38 0 -57 -36.5t-19 -94.5h-170q0 122 64 198t175 76q105 0 169 -66q10 -9 25 -26.5t23.5 -26.5t23 -16.5t29.5 -7.5q68 0 68 130h172q0 -120 -63 -197t-177 -77q-64 0 -102 20t-68 55q-3 4 -16 20t-18 20.5t-15.5 13.5t-21 12t-22.5 3zM766 1589
q-177 0 -275 70.5t-98 232.5h186q0 -154 187 -154q189 0 189 154h185q0 -162 -97.5 -232.5t-276.5 -70.5zM1164 0l-100 285h-597l-100 -285h-347l536 1458h419l536 -1458h-347zM566 568h399l-199 571z" />
    <glyph glyph-name="uni1EB5" unicode="&#x1eb5;" horiz-adv-x="1148" 
d="M480 1784q-32 0 -47.5 -34.5t-15.5 -92.5h-150q0 122 56 198t152 76q114 0 180 -105q21 -34 52 -34q60 0 60 126h152q0 -120 -54.5 -196.5t-153.5 -76.5q-115 0 -180 104q-22 35 -51 35zM575 1159q-171 0 -271.5 92t-100.5 270h202q0 -97 43 -154.5t127 -57.5
q85 0 128.5 57.5t43.5 154.5h203q0 -178 -101 -270t-274 -92zM1026 274q0 -161 25 -244v-30h-301l-23 111q-53 -65 -144.5 -98t-189.5 -33q-51 0 -96.5 9t-88.5 30t-74 53.5t-49.5 83t-18.5 114.5t19.5 114.5t51 85t82.5 62t102.5 45t122.5 33.5l169 41q57 13 80 32t23 51
q0 41 -26.5 66.5t-59.5 33.5t-74 8q-167 0 -191 -150l-288 50q35 166 157 243.5t342 77.5q70 0 128 -8t120 -32.5t104.5 -64.5t70 -110.5t27.5 -164.5v-409zM496 197q96 0 166.5 69.5t70.5 198.5l-241 -74q-56 -16 -85.5 -37.5t-29.5 -61.5q0 -45 34 -70t85 -25z" />
    <glyph glyph-name="uni1EB6" unicode="&#x1eb6;" horiz-adv-x="1531" 
d="M766 1589q-177 0 -275 70.5t-98 232.5h186q0 -154 187 -154q189 0 189 154h185q0 -162 -97.5 -232.5t-276.5 -70.5zM1511 0h-347l-100 285h-597l-100 -285h-347l536 1458h419zM566 568h399l-199 571zM767 -149q74 0 127.5 -53t53.5 -128t-53.5 -128.5t-127.5 -53.5
q-76 0 -130 53t-54 129q0 75 54 128t130 53z" />
    <glyph glyph-name="uni1EB7" unicode="&#x1eb7;" horiz-adv-x="1148" 
d="M575 1159q-171 0 -271.5 92t-100.5 270h202q0 -97 43 -154.5t127 -57.5q85 0 128.5 57.5t43.5 154.5h203q0 -178 -101 -270t-274 -92zM1026 274q0 -161 25 -244v-30h-301l-23 111q-53 -65 -144.5 -98t-189.5 -33q-51 0 -96.5 9t-88.5 30t-74 53.5t-49.5 83t-18.5 114.5
t19.5 114.5t51 85t82.5 62t102.5 45t122.5 33.5l169 41q57 13 80 32t23 51q0 41 -26.5 66.5t-59.5 33.5t-74 8q-167 0 -191 -150l-288 50q35 166 157 243.5t342 77.5q70 0 128 -8t120 -32.5t104.5 -64.5t70 -110.5t27.5 -164.5v-409zM496 197q96 0 166.5 69.5t70.5 198.5
l-241 -74q-56 -16 -85.5 -37.5t-29.5 -61.5q0 -45 34 -70t85 -25zM638 -149q74 0 127.5 -53t53.5 -128t-53.5 -128.5t-127.5 -53.5q-76 0 -130 53t-54 129q0 75 54 128t130 53z" />
    <glyph glyph-name="uni1EB8" unicode="&#x1eb8;" horiz-adv-x="1163" 
d="M1041 1160h-524v-284h466v-294h-466v-282h524v-300h-866v1458h866v-298zM618 -149q74 0 127.5 -53t53.5 -128t-53.5 -128.5t-127.5 -53.5q-76 0 -130 53t-54 129q0 75 54 128t130 53z" />
    <glyph glyph-name="uni1EB9" unicode="&#x1eb9;" horiz-adv-x="1205" 
d="M1143 535l-4 -77h-759q10 -109 77.5 -166t167.5 -57q152 0 204 125l300 -41q-50 -161 -184 -250t-318 -89q-264 0 -417 143t-153 398q0 254 153.5 399.5t405.5 145.5q115 0 209 -31.5t166 -94.5t111.5 -166.5t40.5 -238.5zM618 838q-189 0 -229 -170h433q-13 82 -68 126
t-136 44zM641 -151q74 0 127.5 -53t53.5 -128t-53.5 -128.5t-127.5 -53.5q-76 0 -130 53t-54 129q0 75 54 128t130 53z" />
    <glyph glyph-name="uni1EBA" unicode="&#x1eba;" horiz-adv-x="1163" 
d="M597 1831q-49 0 -86 -40l-72 105q71 61 178 61q96 0 148.5 -48t52.5 -130q0 -69 -34.5 -104.5t-91.5 -52.5v-86h-140v140q108 19 108 93q0 28 -15.5 45t-47.5 17zM1041 1160h-524v-284h466v-294h-466v-282h524v-300h-866v1458h866v-298z" />
    <glyph glyph-name="uni1EBB" unicode="&#x1ebb;" horiz-adv-x="1205" 
d="M605 1418q-48 0 -86 -41l-72 106q70 60 178 60q96 0 148.5 -48t52.5 -129q0 -69 -34.5 -104.5t-91.5 -53.5v-86h-140v141q108 17 108 92q0 29 -15.5 46t-47.5 17zM1143 535l-4 -77h-759q10 -109 77.5 -166t167.5 -57q152 0 204 125l300 -41q-50 -161 -184 -250t-318 -89
q-264 0 -417 143t-153 398q0 254 153.5 399.5t405.5 145.5q115 0 209 -31.5t166 -94.5t111.5 -166.5t40.5 -238.5zM618 838q-189 0 -229 -170h433q-13 82 -68 126t-136 44z" />
    <glyph glyph-name="uni1EBC" unicode="&#x1ebc;" horiz-adv-x="1163" 
d="M506 1748q-38 0 -57 -36.5t-19 -94.5h-170q0 122 64 198t175 76q105 0 169 -66q10 -9 25 -26.5t23.5 -26.5t23 -16.5t29.5 -7.5q68 0 68 130h172q0 -120 -63 -197t-177 -77q-64 0 -102 20t-68 55q-3 4 -16 20t-18 20.5t-15.5 13.5t-21 12t-22.5 3zM1041 1160h-524v-284
h466v-294h-466v-282h524v-300h-866v1458h866v-298z" />
    <glyph glyph-name="uni1EBD" unicode="&#x1ebd;" horiz-adv-x="1205" 
d="M530 1309q-32 0 -47.5 -34.5t-15.5 -92.5h-150q0 122 56 198t152 76q114 0 180 -105q21 -34 52 -34q60 0 60 126h152q0 -120 -54.5 -196.5t-153.5 -76.5q-115 0 -180 104q-22 35 -51 35zM1143 535l-4 -77h-759q10 -109 77.5 -166t167.5 -57q152 0 204 125l300 -41
q-50 -161 -184 -250t-318 -89q-264 0 -417 143t-153 398q0 254 153.5 399.5t405.5 145.5q115 0 209 -31.5t166 -94.5t111.5 -166.5t40.5 -238.5zM618 838q-189 0 -229 -170h433q-13 82 -68 126t-136 44z" />
    <glyph glyph-name="uni1EBE" unicode="&#x1ebe;" horiz-adv-x="1163" 
d="M944 2246l-227 -269h-197l266 381zM617 1739l-130 -150h-197l232 300h190l232 -300h-198zM1041 1160h-524v-284h466v-294h-466v-282h524v-300h-866v1458h866v-298z" />
    <glyph glyph-name="uni1EBF" unicode="&#x1ebf;" horiz-adv-x="1205" 
d="M952 1925l-227 -270h-197l266 382zM625 1374l-130 -151h-197l232 300h190l232 -300h-198zM1143 535l-4 -77h-759q10 -109 77.5 -166t167.5 -57q152 0 204 125l300 -41q-50 -161 -184 -250t-318 -89q-264 0 -417 143t-153 398q0 254 153.5 399.5t405.5 145.5
q115 0 209 -31.5t166 -94.5t111.5 -166.5t40.5 -238.5zM618 838q-189 0 -229 -170h433q-13 82 -68 126t-136 44z" />
    <glyph glyph-name="uni1EC0" unicode="&#x1ec0;" horiz-adv-x="1163" 
d="M716 1977h-197l-227 269l158 112zM617 1739l-130 -150h-197l232 300h190l232 -300h-198zM1041 1160h-524v-284h466v-294h-466v-282h524v-300h-866v1458h866v-298z" />
    <glyph glyph-name="uni1EC1" unicode="&#x1ec1;" horiz-adv-x="1205" 
d="M724 1655h-197l-227 270l158 112zM625 1374l-130 -151h-197l232 300h190l232 -300h-198zM1143 535l-4 -77h-759q10 -109 77.5 -166t167.5 -57q152 0 204 125l300 -41q-50 -161 -184 -250t-318 -89q-264 0 -417 143t-153 398q0 254 153.5 399.5t405.5 145.5
q115 0 209 -31.5t166 -94.5t111.5 -166.5t40.5 -238.5zM618 838q-189 0 -229 -170h433q-13 82 -68 126t-136 44z" />
    <glyph glyph-name="uni1EC2" unicode="&#x1ec2;" horiz-adv-x="1163" 
d="M597 2219q-49 0 -86 -40l-72 105q71 61 178 61q96 0 148.5 -48t52.5 -130q0 -69 -34.5 -104.5t-91.5 -52.5v-86h-140v140q108 19 108 93q0 28 -15.5 45t-47.5 17zM617 1739l-130 -150h-197l232 300h190l232 -300h-198zM1041 1160h-524v-284h466v-294h-466v-282h524v-300
h-866v1458h866v-298z" />
    <glyph glyph-name="uni1EC3" unicode="&#x1ec3;" horiz-adv-x="1205" 
d="M605 1895q-48 0 -86 -41l-72 106q70 60 178 60q96 0 148.5 -48t52.5 -129q0 -69 -34.5 -104.5t-91.5 -53.5v-86h-140v141q108 17 108 92q0 29 -15.5 46t-47.5 17zM625 1374l-130 -151h-197l232 300h190l232 -300h-198zM1143 535l-4 -77h-759q10 -109 77.5 -166t167.5 -57
q152 0 204 125l300 -41q-50 -161 -184 -250t-318 -89q-264 0 -417 143t-153 398q0 254 153.5 399.5t405.5 145.5q115 0 209 -31.5t166 -94.5t111.5 -166.5t40.5 -238.5zM618 838q-189 0 -229 -170h433q-13 82 -68 126t-136 44z" />
    <glyph glyph-name="uni1EC4" unicode="&#x1ec4;" horiz-adv-x="1163" 
d="M506 2136q-38 0 -57 -36.5t-19 -94.5h-170q0 122 64 198t175 76q105 0 169 -66q10 -9 25 -26.5t23.5 -26.5t23 -16.5t29.5 -7.5q68 0 68 130h172q0 -120 -63 -197t-177 -77q-64 0 -102 20t-68 55q-3 4 -16 20t-18 20.5t-15.5 13.5t-21 12t-22.5 3zM522 1889h190l232 -300
h-198l-129 150l-130 -150h-197zM1041 1160h-524v-284h466v-294h-466v-282h524v-300h-866v1458h866v-298z" />
    <glyph glyph-name="uni1EC5" unicode="&#x1ec5;" horiz-adv-x="1205" 
d="M530 1786q-32 0 -47.5 -34.5t-15.5 -92.5h-150q0 122 56 198t152 76q114 0 180 -105q21 -34 52 -34q60 0 60 126h152q0 -120 -54.5 -196.5t-153.5 -76.5q-115 0 -180 104q-22 35 -51 35zM625 1374l-130 -151h-197l232 300h190l232 -300h-198zM1143 535l-4 -77h-759
q10 -109 77.5 -166t167.5 -57q152 0 204 125l300 -41q-50 -161 -184 -250t-318 -89q-264 0 -417 143t-153 398q0 254 153.5 399.5t405.5 145.5q115 0 209 -31.5t166 -94.5t111.5 -166.5t40.5 -238.5zM618 838q-189 0 -229 -170h433q-13 82 -68 126t-136 44z" />
    <glyph glyph-name="uni1EC6" unicode="&#x1ec6;" horiz-adv-x="1163" 
d="M617 1739l-130 -150h-197l232 300h190l232 -300h-198zM1041 1160h-524v-284h466v-294h-466v-282h524v-300h-866v1458h866v-298zM618 -149q74 0 127.5 -53t53.5 -128t-53.5 -128.5t-127.5 -53.5q-76 0 -130 53t-54 129q0 75 54 128t130 53z" />
    <glyph glyph-name="uni1EC7" unicode="&#x1ec7;" horiz-adv-x="1205" 
d="M625 1374l-130 -151h-197l232 300h190l232 -300h-198zM1143 535l-4 -77h-759q10 -109 77.5 -166t167.5 -57q152 0 204 125l300 -41q-50 -161 -184 -250t-318 -89q-264 0 -417 143t-153 398q0 254 153.5 399.5t405.5 145.5q115 0 209 -31.5t166 -94.5t111.5 -166.5
t40.5 -238.5zM618 838q-189 0 -229 -170h433q-13 82 -68 126t-136 44zM641 -151q74 0 127.5 -53t53.5 -128t-53.5 -128.5t-127.5 -53.5q-76 0 -130 53t-54 129q0 75 54 128t130 53z" />
    <glyph glyph-name="uni1EC8" unicode="&#x1ec8;" horiz-adv-x="691" 
d="M279 1536v140q108 19 108 93q0 28 -15.5 45t-47.5 17q-49 0 -86 -40l-72 105q71 61 178 61q96 0 148.5 -48t52.5 -130q0 -69 -34.5 -104.5t-91.5 -52.5v-86h-140zM175 0v1458h341v-1458h-341z" />
    <glyph glyph-name="uni1EC9" unicode="&#x1ec9;" horiz-adv-x="608" 
d="M240 1120v141q108 17 108 92q0 29 -15.5 46t-47.5 17q-48 0 -86 -41l-72 106q70 60 178 60q96 0 148.5 -48t52.5 -129q0 -69 -34.5 -104.5t-91.5 -53.5v-86h-140zM140 0v1044h328v-1044h-328z" />
    <glyph glyph-name="uni1ECA" unicode="&#x1eca;" horiz-adv-x="691" 
d="M175 0v1458h341v-1458h-341zM345 -512q-76 0 -130 53t-54 129q0 75 54 128t130 53q74 0 127.5 -53t53.5 -128t-53.5 -128.5t-127.5 -53.5z" />
    <glyph glyph-name="uni1ECB" unicode="&#x1ecb;" horiz-adv-x="608" 
d="M306 1172q-76 0 -130 53t-54 129q0 75 54 128t130 53q74 0 127.5 -53t53.5 -128t-53.5 -128.5t-127.5 -53.5zM140 0v1044h328v-1044h-328zM306 -512q-76 0 -130 53t-54 129q0 75 54 128t130 53q74 0 127.5 -53t53.5 -128t-53.5 -128.5t-127.5 -53.5z" />
    <glyph glyph-name="uni1ECC" unicode="&#x1ecc;" horiz-adv-x="1656" 
d="M828 -20q-162 0 -300.5 53.5t-238 150t-156 237.5t-56.5 308q0 223 97 394.5t267.5 263t386.5 91.5t386.5 -91.5t267.5 -263t97 -394.5q0 -167 -56.5 -308t-156 -237.5t-238 -150t-300.5 -53.5zM828 291q180 0 297 119t117 319t-117 319t-297 119t-296 -119t-116 -319
t116 -319t296 -119zM829 -512q-76 0 -130 53t-54 129q0 75 54 128t130 53q74 0 127.5 -53t53.5 -128t-53.5 -128.5t-127.5 -53.5z" />
    <glyph glyph-name="uni1ECD" unicode="&#x1ecd;" horiz-adv-x="1283" 
d="M641 -20q-262 0 -424 145t-162 398q0 252 161.5 396.5t424.5 144.5q264 0 425.5 -144.5t161.5 -396.5q0 -253 -162 -398t-425 -145zM637 236q120 0 193.5 79t73.5 208q0 128 -73.5 207t-193.5 79q-115 0 -186.5 -79t-71.5 -207t71.5 -207.5t186.5 -79.5zM642 -512
q-76 0 -130 53t-54 129q0 75 54 128t130 53q74 0 127.5 -53t53.5 -128t-53.5 -128.5t-127.5 -53.5z" />
    <glyph glyph-name="uni1ECE" unicode="&#x1ece;" horiz-adv-x="1656" 
d="M763 1536v140q108 19 108 93q0 28 -15.5 45t-47.5 17q-49 0 -86 -40l-72 105q71 61 178 61q96 0 148.5 -48t52.5 -130q0 -69 -34.5 -104.5t-91.5 -52.5v-86h-140zM828 -20q-162 0 -300.5 53.5t-238 150t-156 237.5t-56.5 308q0 223 97 394.5t267.5 263t386.5 91.5
t386.5 -91.5t267.5 -263t97 -394.5q0 -167 -56.5 -308t-156 -237.5t-238 -150t-300.5 -53.5zM828 291q180 0 297 119t117 319t-117 319t-297 119t-296 -119t-116 -319t116 -319t296 -119z" />
    <glyph glyph-name="uni1ECF" unicode="&#x1ecf;" horiz-adv-x="1283" 
d="M576 1118v141q108 17 108 92q0 29 -15.5 46t-47.5 17q-48 0 -86 -41l-72 106q70 60 178 60q96 0 148.5 -48t52.5 -129q0 -69 -34.5 -104.5t-91.5 -53.5v-86h-140zM641 -20q-262 0 -424 145t-162 398q0 252 161.5 396.5t424.5 144.5q264 0 425.5 -144.5t161.5 -396.5
q0 -253 -162 -398t-425 -145zM637 236q120 0 193.5 79t73.5 208q0 128 -73.5 207t-193.5 79q-115 0 -186.5 -79t-71.5 -207t71.5 -207.5t186.5 -79.5z" />
    <glyph glyph-name="uni1ED0" unicode="&#x1ed0;" horiz-adv-x="1656" 
d="M731 1977l266 381l158 -112l-227 -269h-197zM698 1589h-197l232 300h190l232 -300h-198l-129 150zM828 -20q-162 0 -300.5 53.5t-238 150t-156 237.5t-56.5 308q0 223 97 394.5t267.5 263t386.5 91.5t386.5 -91.5t267.5 -263t97 -394.5q0 -167 -56.5 -308t-156 -237.5
t-238 -150t-300.5 -53.5zM828 291q180 0 297 119t117 319t-117 319t-297 119t-296 -119t-116 -319t116 -319t296 -119z" />
    <glyph glyph-name="uni1ED1" unicode="&#x1ed1;" horiz-adv-x="1283" 
d="M544 1651l266 382l158 -112l-227 -270h-197zM511 1219h-197l232 300h190l232 -300h-198l-129 151zM641 -20q-262 0 -424 145t-162 398q0 252 161.5 396.5t424.5 144.5q264 0 425.5 -144.5t161.5 -396.5q0 -253 -162 -398t-425 -145zM637 236q120 0 193.5 79t73.5 208
q0 128 -73.5 207t-193.5 79q-115 0 -186.5 -79t-71.5 -207t71.5 -207.5t186.5 -79.5z" />
    <glyph glyph-name="uni1ED2" unicode="&#x1ed2;" horiz-adv-x="1656" 
d="M730 1977l-227 269l158 112l266 -381h-197zM698 1589h-197l232 300h190l232 -300h-198l-129 150zM828 -20q-162 0 -300.5 53.5t-238 150t-156 237.5t-56.5 308q0 223 97 394.5t267.5 263t386.5 91.5t386.5 -91.5t267.5 -263t97 -394.5q0 -167 -56.5 -308t-156 -237.5
t-238 -150t-300.5 -53.5zM828 291q180 0 297 119t117 319t-117 319t-297 119t-296 -119t-116 -319t116 -319t296 -119z" />
    <glyph glyph-name="uni1ED3" unicode="&#x1ed3;" horiz-adv-x="1283" 
d="M543 1651l-227 270l158 112l266 -382h-197zM511 1219h-197l232 300h190l232 -300h-198l-129 151zM641 -20q-262 0 -424 145t-162 398q0 252 161.5 396.5t424.5 144.5q264 0 425.5 -144.5t161.5 -396.5q0 -253 -162 -398t-425 -145zM637 236q120 0 193.5 79t73.5 208
q0 128 -73.5 207t-193.5 79q-115 0 -186.5 -79t-71.5 -207t71.5 -207.5t186.5 -79.5z" />
    <glyph glyph-name="uni1ED4" unicode="&#x1ed4;" horiz-adv-x="1656" 
d="M763 1924v140q108 19 108 93q0 28 -15.5 45t-47.5 17q-49 0 -86 -40l-72 105q71 61 178 61q96 0 148.5 -48t52.5 -130q0 -69 -34.5 -104.5t-91.5 -52.5v-86h-140zM698 1589h-197l232 300h190l232 -300h-198l-129 150zM828 -20q-162 0 -300.5 53.5t-238 150t-156 237.5
t-56.5 308q0 223 97 394.5t267.5 263t386.5 91.5t386.5 -91.5t267.5 -263t97 -394.5q0 -167 -56.5 -308t-156 -237.5t-238 -150t-300.5 -53.5zM828 291q180 0 297 119t117 319t-117 319t-297 119t-296 -119t-116 -319t116 -319t296 -119z" />
    <glyph glyph-name="uni1ED5" unicode="&#x1ed5;" horiz-adv-x="1283" 
d="M576 1595v141q108 17 108 92q0 29 -15.5 46t-47.5 17q-48 0 -86 -41l-72 106q70 60 178 60q96 0 148.5 -48t52.5 -129q0 -69 -34.5 -104.5t-91.5 -53.5v-86h-140zM511 1219h-197l232 300h190l232 -300h-198l-129 151zM641 -20q-262 0 -424 145t-162 398
q0 252 161.5 396.5t424.5 144.5q264 0 425.5 -144.5t161.5 -396.5q0 -253 -162 -398t-425 -145zM637 236q120 0 193.5 79t73.5 208q0 128 -73.5 207t-193.5 79q-115 0 -186.5 -79t-71.5 -207t71.5 -207.5t186.5 -79.5z" />
    <glyph glyph-name="uni1ED6" unicode="&#x1ed6;" horiz-adv-x="1656" 
d="M980 1992q-64 0 -102 20t-68 55q-3 4 -16 20t-18 20.5t-15.5 13.5t-21 12t-22.5 3q-38 0 -57 -36.5t-19 -94.5h-170q0 122 64 198t175 76q105 0 169 -66q10 -9 25 -26.5t23.5 -26.5t23 -16.5t29.5 -7.5q68 0 68 130h172q0 -120 -63 -197t-177 -77zM698 1589h-197l232 300
h190l232 -300h-198l-129 150zM828 -20q-162 0 -300.5 53.5t-238 150t-156 237.5t-56.5 308q0 223 97 394.5t267.5 263t386.5 91.5t386.5 -91.5t267.5 -263t97 -394.5q0 -167 -56.5 -308t-156 -237.5t-238 -150t-300.5 -53.5zM828 291q180 0 297 119t117 319t-117 319
t-297 119t-296 -119t-116 -319t116 -319t296 -119z" />
    <glyph glyph-name="uni1ED7" unicode="&#x1ed7;" horiz-adv-x="1283" 
d="M777 1643q-115 0 -180 104q-22 35 -51 35q-32 0 -47.5 -34.5t-15.5 -92.5h-150q0 122 56 198t152 76q114 0 180 -105q21 -34 52 -34q60 0 60 126h152q0 -120 -54.5 -196.5t-153.5 -76.5zM511 1219h-197l232 300h190l232 -300h-198l-129 151zM641 -20q-262 0 -424 145
t-162 398q0 252 161.5 396.5t424.5 144.5q264 0 425.5 -144.5t161.5 -396.5q0 -253 -162 -398t-425 -145zM637 236q120 0 193.5 79t73.5 208q0 128 -73.5 207t-193.5 79q-115 0 -186.5 -79t-71.5 -207t71.5 -207.5t186.5 -79.5z" />
    <glyph glyph-name="uni1ED8" unicode="&#x1ed8;" horiz-adv-x="1656" 
d="M698 1589h-197l232 300h190l232 -300h-198l-129 150zM828 -20q-162 0 -300.5 53.5t-238 150t-156 237.5t-56.5 308q0 223 97 394.5t267.5 263t386.5 91.5t386.5 -91.5t267.5 -263t97 -394.5q0 -167 -56.5 -308t-156 -237.5t-238 -150t-300.5 -53.5zM828 291
q180 0 297 119t117 319t-117 319t-297 119t-296 -119t-116 -319t116 -319t296 -119zM829 -512q-76 0 -130 53t-54 129q0 75 54 128t130 53q74 0 127.5 -53t53.5 -128t-53.5 -128.5t-127.5 -53.5z" />
    <glyph glyph-name="uni1ED9" unicode="&#x1ed9;" horiz-adv-x="1283" 
d="M511 1219h-197l232 300h190l232 -300h-198l-129 151zM641 -20q-262 0 -424 145t-162 398q0 252 161.5 396.5t424.5 144.5q264 0 425.5 -144.5t161.5 -396.5q0 -253 -162 -398t-425 -145zM637 236q120 0 193.5 79t73.5 208q0 128 -73.5 207t-193.5 79q-115 0 -186.5 -79
t-71.5 -207t71.5 -207.5t186.5 -79.5zM642 -512q-76 0 -130 53t-54 129q0 75 54 128t130 53q74 0 127.5 -53t53.5 -128t-53.5 -128.5t-127.5 -53.5z" />
    <glyph glyph-name="uni1EDA" unicode="&#x1eda;" horiz-adv-x="1656" 
d="M1155 1858l-227 -269h-197l266 381zM1502 1562h151v-186q0 -226 -184 -230q110 -181 110 -417q0 -167 -56.5 -308t-156 -237.5t-238 -150t-300.5 -53.5t-300.5 53.5t-238 150t-156 237.5t-56.5 308q0 223 97 394.5t267.5 263t386.5 91.5q298 0 502 -171q42 -17 75 -17
q56 0 76.5 28t20.5 109v135zM828 291q180 0 297 119t117 319t-117 319t-297 119t-296 -119t-116 -319t116 -319t296 -119z" />
    <glyph glyph-name="uni1EDB" unicode="&#x1edb;" horiz-adv-x="1283" 
d="M968 1444l-227 -270h-197l266 382zM1162 1216h151v-186q0 -205 -153 -227q68 -121 68 -280q0 -253 -162 -398t-425 -145q-262 0 -424 145t-162 398q0 252 161.5 396.5t424.5 144.5q235 0 391 -116q16 -4 33 -4q56 0 76.5 28t20.5 109v135zM637 236q120 0 193.5 79
t73.5 208q0 128 -73.5 207t-193.5 79q-115 0 -186.5 -79t-71.5 -207t71.5 -207.5t186.5 -79.5z" />
    <glyph glyph-name="uni1EDC" unicode="&#x1edc;" horiz-adv-x="1656" 
d="M927 1589h-197l-227 269l158 112zM1502 1562h151v-186q0 -226 -184 -230q110 -181 110 -417q0 -167 -56.5 -308t-156 -237.5t-238 -150t-300.5 -53.5t-300.5 53.5t-238 150t-156 237.5t-56.5 308q0 223 97 394.5t267.5 263t386.5 91.5q298 0 502 -171q42 -17 75 -17
q56 0 76.5 28t20.5 109v135zM828 291q180 0 297 119t117 319t-117 319t-297 119t-296 -119t-116 -319t116 -319t296 -119z" />
    <glyph glyph-name="uni1EDD" unicode="&#x1edd;" horiz-adv-x="1283" 
d="M740 1174h-197l-227 270l158 112zM1162 1216h151v-186q0 -205 -153 -227q68 -121 68 -280q0 -253 -162 -398t-425 -145q-262 0 -424 145t-162 398q0 252 161.5 396.5t424.5 144.5q235 0 391 -116q16 -4 33 -4q56 0 76.5 28t20.5 109v135zM637 236q120 0 193.5 79
t73.5 208q0 128 -73.5 207t-193.5 79q-115 0 -186.5 -79t-71.5 -207t71.5 -207.5t186.5 -79.5z" />
    <glyph glyph-name="uni1EDE" unicode="&#x1ede;" horiz-adv-x="1656" 
d="M808 1831q-49 0 -86 -40l-72 105q71 61 178 61q96 0 148.5 -48t52.5 -130q0 -69 -34.5 -104.5t-91.5 -52.5v-86h-140v140q108 19 108 93q0 28 -15.5 45t-47.5 17zM1502 1562h151v-186q0 -226 -184 -230q110 -181 110 -417q0 -167 -56.5 -308t-156 -237.5t-238 -150
t-300.5 -53.5t-300.5 53.5t-238 150t-156 237.5t-56.5 308q0 223 97 394.5t267.5 263t386.5 91.5q298 0 502 -171q42 -17 75 -17q56 0 76.5 28t20.5 109v135zM828 291q180 0 297 119t117 319t-117 319t-297 119t-296 -119t-116 -319t116 -319t296 -119z" />
    <glyph glyph-name="uni1EDF" unicode="&#x1edf;" horiz-adv-x="1283" 
d="M621 1414q-48 0 -86 -41l-72 106q70 60 178 60q96 0 148.5 -48t52.5 -129q0 -69 -34.5 -104.5t-91.5 -53.5v-86h-140v141q108 17 108 92q0 29 -15.5 46t-47.5 17zM1162 1216h151v-186q0 -205 -153 -227q68 -121 68 -280q0 -253 -162 -398t-425 -145q-262 0 -424 145
t-162 398q0 252 161.5 396.5t424.5 144.5q235 0 391 -116q16 -4 33 -4q56 0 76.5 28t20.5 109v135zM637 236q120 0 193.5 79t73.5 208q0 128 -73.5 207t-193.5 79q-115 0 -186.5 -79t-71.5 -207t71.5 -207.5t186.5 -79.5z" />
    <glyph glyph-name="uni1EE0" unicode="&#x1ee0;" horiz-adv-x="1656" 
d="M717 1748q-38 0 -57 -36.5t-19 -94.5h-170q0 122 64 198t175 76q105 0 169 -66q10 -9 25 -26.5t23.5 -26.5t23 -16.5t29.5 -7.5q68 0 68 130h172q0 -120 -63 -197t-177 -77q-64 0 -102 20t-68 55q-3 4 -16 20t-18 20.5t-15.5 13.5t-21 12t-22.5 3zM1502 1562h151v-186
q0 -226 -184 -230q110 -181 110 -417q0 -167 -56.5 -308t-156 -237.5t-238 -150t-300.5 -53.5t-300.5 53.5t-238 150t-156 237.5t-56.5 308q0 223 97 394.5t267.5 263t386.5 91.5q298 0 502 -171q42 -17 75 -17q56 0 76.5 28t20.5 109v135zM828 291q180 0 297 119t117 319
t-117 319t-297 119t-296 -119t-116 -319t116 -319t296 -119z" />
    <glyph glyph-name="uni1EE1" unicode="&#x1ee1;" horiz-adv-x="1283" 
d="M546 1305q-32 0 -47.5 -34.5t-15.5 -92.5h-150q0 122 56 198t152 76q114 0 180 -105q21 -34 52 -34q60 0 60 126h152q0 -120 -54.5 -196.5t-153.5 -76.5q-115 0 -180 104q-22 35 -51 35zM1162 1216h151v-186q0 -205 -153 -227q68 -121 68 -280q0 -253 -162 -398
t-425 -145q-262 0 -424 145t-162 398q0 252 161.5 396.5t424.5 144.5q235 0 391 -116q16 -4 33 -4q56 0 76.5 28t20.5 109v135zM637 236q120 0 193.5 79t73.5 208q0 128 -73.5 207t-193.5 79q-115 0 -186.5 -79t-71.5 -207t71.5 -207.5t186.5 -79.5z" />
    <glyph glyph-name="uni1EE2" unicode="&#x1ee2;" horiz-adv-x="1656" 
d="M1502 1562h151v-186q0 -226 -184 -230q110 -181 110 -417q0 -167 -56.5 -308t-156 -237.5t-238 -150t-300.5 -53.5t-300.5 53.5t-238 150t-156 237.5t-56.5 308q0 223 97 394.5t267.5 263t386.5 91.5q298 0 502 -171q42 -17 75 -17q56 0 76.5 28t20.5 109v135zM828 291
q180 0 297 119t117 319t-117 319t-297 119t-296 -119t-116 -319t116 -319t296 -119zM829 -149q74 0 127.5 -53t53.5 -128t-53.5 -128.5t-127.5 -53.5q-76 0 -130 53t-54 129q0 75 54 128t130 53z" />
    <glyph glyph-name="uni1EE3" unicode="&#x1ee3;" horiz-adv-x="1283" 
d="M1162 1216h151v-186q0 -205 -153 -227q68 -121 68 -280q0 -253 -162 -398t-425 -145q-262 0 -424 145t-162 398q0 252 161.5 396.5t424.5 144.5q235 0 391 -116q16 -4 33 -4q56 0 76.5 28t20.5 109v135zM637 236q120 0 193.5 79t73.5 208q0 128 -73.5 207t-193.5 79
q-115 0 -186.5 -79t-71.5 -207t71.5 -207.5t186.5 -79.5zM642 -149q74 0 127.5 -53t53.5 -128t-53.5 -128.5t-127.5 -53.5q-76 0 -130 53t-54 129q0 75 54 128t130 53z" />
    <glyph glyph-name="uni1EE4" unicode="&#x1ee4;" horiz-adv-x="1458" 
d="M729 -20q-100 0 -186.5 19t-160 61t-126 104.5t-82 152.5t-29.5 202v939h340v-893q0 -151 66.5 -218.5t177.5 -67.5t177.5 67.5t66.5 218.5v893h340v-939q0 -112 -29.5 -202t-82 -152.5t-126 -104.5t-160 -61t-186.5 -19zM730 -512q-76 0 -130 53t-54 129q0 75 54 128
t130 53q74 0 127.5 -53t53.5 -128t-53.5 -128.5t-127.5 -53.5z" />
    <glyph glyph-name="uni1EE5" unicode="&#x1ee5;" horiz-adv-x="1310" 
d="M844 1044h326v-1044h-308l-8 123q-119 -143 -338 -143q-195 0 -296.5 94t-101.5 267v703h328v-633q0 -89 48.5 -130t125.5 -41q46 0 83.5 11.5t70 38t51 76t19.5 118.5v560zM658 -149q74 0 127.5 -53t53.5 -128t-53.5 -128.5t-127.5 -53.5q-76 0 -130 53t-54 129
q0 75 54 128t130 53z" />
    <glyph glyph-name="uni1EE6" unicode="&#x1ee6;" horiz-adv-x="1458" 
d="M664 1536v140q108 19 108 93q0 28 -15.5 45t-47.5 17q-49 0 -86 -40l-72 105q71 61 178 61q96 0 148.5 -48t52.5 -130q0 -69 -34.5 -104.5t-91.5 -52.5v-86h-140zM729 -20q-100 0 -186.5 19t-160 61t-126 104.5t-82 152.5t-29.5 202v939h340v-893q0 -151 66.5 -218.5
t177.5 -67.5t177.5 67.5t66.5 218.5v893h340v-939q0 -112 -29.5 -202t-82 -152.5t-126 -104.5t-160 -61t-186.5 -19z" />
    <glyph glyph-name="uni1EE7" unicode="&#x1ee7;" horiz-adv-x="1310" 
d="M637 1416q-48 0 -86 -41l-72 106q70 60 178 60q96 0 148.5 -48t52.5 -129q0 -69 -34.5 -104.5t-91.5 -53.5v-86h-140v141q108 17 108 92q0 29 -15.5 46t-47.5 17zM844 1044h326v-1044h-308l-8 123q-119 -143 -338 -143q-195 0 -296.5 94t-101.5 267v703h328v-633
q0 -89 48.5 -130t125.5 -41q46 0 83.5 11.5t70 38t51 76t19.5 118.5v560z" />
    <glyph glyph-name="uni1EE8" unicode="&#x1ee8;" horiz-adv-x="1458" 
d="M1056 1858l-227 -269h-197l266 381zM1464 1644h151v-186q0 -230 -191 -230q-49 0 -111 20v-729q0 -112 -29.5 -202t-82 -152.5t-126 -104.5t-160 -61t-186.5 -19t-186.5 19t-160 61t-126 104.5t-82 152.5t-29.5 202v939h340v-893q0 -151 66.5 -218.5t177.5 -67.5
t177.5 67.5t66.5 218.5v893h340v-77q31 -9 54 -9q56 0 76.5 28t20.5 109v135z" />
    <glyph glyph-name="uni1EE9" unicode="&#x1ee9;" horiz-adv-x="1310" 
d="M984 1446l-227 -270h-197l266 382zM1311 1230h151v-186q0 -230 -191 -230q-45 0 -101 17v-831h-308l-8 123q-119 -143 -338 -143q-195 0 -296.5 94t-101.5 267v703h328v-633q0 -89 48.5 -130t125.5 -41q46 0 83.5 11.5t70 38t51 76t19.5 118.5v560h326v-80q25 -6 44 -6
q56 0 76.5 28t20.5 109v135z" />
    <glyph glyph-name="uni1EEA" unicode="&#x1eea;" horiz-adv-x="1458" 
d="M828 1589h-197l-227 269l158 112zM1464 1644h151v-186q0 -230 -191 -230q-49 0 -111 20v-729q0 -112 -29.5 -202t-82 -152.5t-126 -104.5t-160 -61t-186.5 -19t-186.5 19t-160 61t-126 104.5t-82 152.5t-29.5 202v939h340v-893q0 -151 66.5 -218.5t177.5 -67.5
t177.5 67.5t66.5 218.5v893h340v-77q31 -9 54 -9q56 0 76.5 28t20.5 109v135z" />
    <glyph glyph-name="uni1EEB" unicode="&#x1eeb;" horiz-adv-x="1310" 
d="M756 1176h-197l-227 270l158 112zM1311 1230h151v-186q0 -230 -191 -230q-45 0 -101 17v-831h-308l-8 123q-119 -143 -338 -143q-195 0 -296.5 94t-101.5 267v703h328v-633q0 -89 48.5 -130t125.5 -41q46 0 83.5 11.5t70 38t51 76t19.5 118.5v560h326v-80q25 -6 44 -6
q56 0 76.5 28t20.5 109v135z" />
    <glyph glyph-name="uni1EEC" unicode="&#x1eec;" horiz-adv-x="1458" 
d="M709 1831q-49 0 -86 -40l-72 105q71 61 178 61q96 0 148.5 -48t52.5 -130q0 -69 -34.5 -104.5t-91.5 -52.5v-86h-140v140q108 19 108 93q0 28 -15.5 45t-47.5 17zM1464 1644h151v-186q0 -230 -191 -230q-49 0 -111 20v-729q0 -112 -29.5 -202t-82 -152.5t-126 -104.5
t-160 -61t-186.5 -19t-186.5 19t-160 61t-126 104.5t-82 152.5t-29.5 202v939h340v-893q0 -151 66.5 -218.5t177.5 -67.5t177.5 67.5t66.5 218.5v893h340v-77q31 -9 54 -9q56 0 76.5 28t20.5 109v135z" />
    <glyph glyph-name="uni1EED" unicode="&#x1eed;" horiz-adv-x="1310" 
d="M637 1416q-48 0 -86 -41l-72 106q70 60 178 60q96 0 148.5 -48t52.5 -129q0 -69 -34.5 -104.5t-91.5 -53.5v-86h-140v141q108 17 108 92q0 29 -15.5 46t-47.5 17zM1311 1230h151v-186q0 -230 -191 -230q-45 0 -101 17v-831h-308l-8 123q-119 -143 -338 -143
q-195 0 -296.5 94t-101.5 267v703h328v-633q0 -89 48.5 -130t125.5 -41q46 0 83.5 11.5t70 38t51 76t19.5 118.5v560h326v-80q25 -6 44 -6q56 0 76.5 28t20.5 109v135z" />
    <glyph glyph-name="uni1EEE" unicode="&#x1eee;" horiz-adv-x="1458" 
d="M618 1748q-38 0 -57 -36.5t-19 -94.5h-170q0 122 64 198t175 76q105 0 169 -66q10 -9 25 -26.5t23.5 -26.5t23 -16.5t29.5 -7.5q68 0 68 130h172q0 -120 -63 -197t-177 -77q-64 0 -102 20t-68 55q-3 4 -16 20t-18 20.5t-15.5 13.5t-21 12t-22.5 3zM1464 1644h151v-186
q0 -230 -191 -230q-49 0 -111 20v-729q0 -112 -29.5 -202t-82 -152.5t-126 -104.5t-160 -61t-186.5 -19t-186.5 19t-160 61t-126 104.5t-82 152.5t-29.5 202v939h340v-893q0 -151 66.5 -218.5t177.5 -67.5t177.5 67.5t66.5 218.5v893h340v-77q31 -9 54 -9q56 0 76.5 28
t20.5 109v135z" />
    <glyph glyph-name="uni1EEF" unicode="&#x1eef;" horiz-adv-x="1310" 
d="M562 1307q-32 0 -47.5 -34.5t-15.5 -92.5h-150q0 122 56 198t152 76q114 0 180 -105q21 -34 52 -34q60 0 60 126h152q0 -120 -54.5 -196.5t-153.5 -76.5q-115 0 -180 104q-22 35 -51 35zM1311 1230h151v-186q0 -230 -191 -230q-45 0 -101 17v-831h-308l-8 123
q-119 -143 -338 -143q-195 0 -296.5 94t-101.5 267v703h328v-633q0 -89 48.5 -130t125.5 -41q46 0 83.5 11.5t70 38t51 76t19.5 118.5v560h326v-80q25 -6 44 -6q56 0 76.5 28t20.5 109v135z" />
    <glyph glyph-name="uni1EF0" unicode="&#x1ef0;" horiz-adv-x="1458" 
d="M1464 1644h151v-186q0 -230 -191 -230q-49 0 -111 20v-729q0 -112 -29.5 -202t-82 -152.5t-126 -104.5t-160 -61t-186.5 -19t-186.5 19t-160 61t-126 104.5t-82 152.5t-29.5 202v939h340v-893q0 -151 66.5 -218.5t177.5 -67.5t177.5 67.5t66.5 218.5v893h340v-77
q31 -9 54 -9q56 0 76.5 28t20.5 109v135zM730 -149q74 0 127.5 -53t53.5 -128t-53.5 -128.5t-127.5 -53.5q-76 0 -130 53t-54 129q0 75 54 128t130 53z" />
    <glyph glyph-name="uni1EF1" unicode="&#x1ef1;" horiz-adv-x="1310" 
d="M1311 1230h151v-186q0 -230 -191 -230q-45 0 -101 17v-831h-308l-8 123q-119 -143 -338 -143q-195 0 -296.5 94t-101.5 267v703h328v-633q0 -89 48.5 -130t125.5 -41q46 0 83.5 11.5t70 38t51 76t19.5 118.5v560h326v-80q25 -6 44 -6q56 0 76.5 28t20.5 109v135z
M658 -149q74 0 127.5 -53t53.5 -128t-53.5 -128.5t-127.5 -53.5q-76 0 -130 53t-54 129q0 75 54 128t130 53z" />
    <glyph glyph-name="Ygrave" unicode="&#x1ef2;" horiz-adv-x="1317" 
d="M758 1589h-197l-227 269l158 112zM1310 1458l-479 -761v-697h-341v692l-483 766h375l277 -463l278 463h373z" />
    <glyph glyph-name="ygrave" unicode="&#x1ef3;" horiz-adv-x="1161" 
d="M681 1176h-197l-227 270l158 112zM835 1044h333l-656 -1535h-329l247 540l-437 995h355l234 -646z" />
    <glyph glyph-name="uni1EF4" unicode="&#x1ef4;" horiz-adv-x="1317" 
d="M490 0v692l-483 766h375l277 -463l278 463h373l-479 -761v-697h-341zM662 -149q74 0 127.5 -53t53.5 -128t-53.5 -128.5t-127.5 -53.5q-76 0 -130 53t-54 129q0 75 54 128t130 53z" />
    <glyph glyph-name="uni1EF5" unicode="&#x1ef5;" horiz-adv-x="1161" 
d="M835 1044h333l-656 -1535h-329l247 540l-437 995h355l234 -646zM1004 -149q74 0 127.5 -53t53.5 -128t-53.5 -128.5t-127.5 -53.5q-76 0 -130 53t-54 129q0 75 54 128t130 53z" />
    <glyph glyph-name="uni1EF6" unicode="&#x1ef6;" horiz-adv-x="1317" 
d="M639 1831q-49 0 -86 -40l-72 105q71 61 178 61q96 0 148.5 -48t52.5 -130q0 -69 -34.5 -104.5t-91.5 -52.5v-86h-140v140q108 19 108 93q0 28 -15.5 45t-47.5 17zM1310 1458l-479 -761v-697h-341v692l-483 766h375l277 -463l278 463h373z" />
    <glyph glyph-name="uni1EF7" unicode="&#x1ef7;" horiz-adv-x="1161" 
d="M562 1416q-48 0 -86 -41l-72 106q70 60 178 60q96 0 148.5 -48t52.5 -129q0 -69 -34.5 -104.5t-91.5 -53.5v-86h-140v141q108 17 108 92q0 29 -15.5 46t-47.5 17zM835 1044h333l-656 -1535h-329l247 540l-437 995h355l234 -646z" />
    <glyph glyph-name="uni1EF8" unicode="&#x1ef8;" horiz-adv-x="1317" 
d="M548 1748q-38 0 -57 -36.5t-19 -94.5h-170q0 122 64 198t175 76q105 0 169 -66q10 -9 25 -26.5t23.5 -26.5t23 -16.5t29.5 -7.5q68 0 68 130h172q0 -120 -63 -197t-177 -77q-64 0 -102 20t-68 55q-3 4 -16 20t-18 20.5t-15.5 13.5t-21 12t-22.5 3zM1310 1458l-479 -761
v-697h-341v692l-483 766h375l277 -463l278 463h373z" />
    <glyph glyph-name="uni1EF9" unicode="&#x1ef9;" horiz-adv-x="1161" 
d="M487 1307q-32 0 -47.5 -34.5t-15.5 -92.5h-150q0 122 56 198t152 76q114 0 180 -105q21 -34 52 -34q60 0 60 126h152q0 -120 -54.5 -196.5t-153.5 -76.5q-115 0 -180 104q-22 35 -51 35zM835 1044h333l-656 -1535h-329l247 540l-437 995h355l234 -646z" />
    <glyph glyph-name="endash" unicode="&#x2013;" horiz-adv-x="1299" 
d="M138 395v275h1024v-275h-1024z" />
    <glyph glyph-name="emdash" unicode="&#x2014;" horiz-adv-x="2323" 
d="M138 395v275h2048v-275h-2048z" />
    <glyph glyph-name="quoteleft" unicode="&#x2018;" horiz-adv-x="624" 
d="M287 1457h232l-126 -664h-334z" />
    <glyph glyph-name="quoteright" unicode="&#x2019;" horiz-adv-x="623" 
d="M336 794h-232l126 664h334z" />
    <glyph glyph-name="quotesinglbase" unicode="&#x201a;" horiz-adv-x="623" 
d="M336 -370h-232l126 664h334z" />
    <glyph glyph-name="quotedblleft" unicode="&#x201c;" horiz-adv-x="1114" 
d="M288 1457h232l-126 -664h-334zM778 1457h232l-126 -664h-334z" />
    <glyph glyph-name="quotedblright" unicode="&#x201d;" horiz-adv-x="1114" 
d="M336 794h-232l126 664h334zM826 794h-232l126 664h334z" />
    <glyph glyph-name="quotedblbase" unicode="&#x201e;" horiz-adv-x="1106" 
d="M336 -370h-232l126 664h334zM818 -370h-232l126 664h334z" />
    <glyph glyph-name="dagger" unicode="&#x2020;" horiz-adv-x="987" 
d="M928 1110v-205h-335v-1167h-207v1167h-327v205h327v348h207v-348h335z" />
    <glyph glyph-name="daggerdbl" unicode="&#x2021;" horiz-adv-x="1073" 
d="M971 905h-335v-597h335v-205h-335v-365h-207v365h-327v205h327v597h-327v205h327v348h207v-348h335v-205z" />
    <glyph glyph-name="bullet" unicode="&#x2022;" horiz-adv-x="932" 
d="M467 331q-141 0 -243.5 100t-102.5 244q0 139 103.5 242.5t242.5 103.5q138 0 241 -103.5t103 -242.5q0 -144 -102 -244t-242 -100z" />
    <glyph glyph-name="ellipsis" unicode="&#x2026;" horiz-adv-x="2060" 
d="M329 -20q-73 0 -126.5 53.5t-53.5 126.5q0 75 53.5 128.5t126.5 53.5q75 0 129 -53.5t54 -128.5q0 -74 -54 -127t-129 -53zM1031 -20q-73 0 -126.5 53.5t-53.5 126.5q0 75 53.5 128.5t126.5 53.5q75 0 129 -53.5t54 -128.5q0 -74 -54 -127t-129 -53zM1728 -20
q-73 0 -126.5 53.5t-53.5 126.5q0 75 53.5 128.5t126.5 53.5q75 0 129 -53.5t54 -128.5q0 -74 -54 -127t-129 -53z" />
    <glyph glyph-name="perthousand" unicode="&#x2030;" horiz-adv-x="2568" 
d="M428 772q-147 0 -250 103t-103 251q0 145 104 248.5t249 103.5q146 0 249 -103.5t103 -248.5q0 -147 -102.5 -250.5t-249.5 -103.5zM365 0l757 1458h269l-759 -1458h-267zM428 986q60 0 99.5 40t39.5 100q0 58 -41 98.5t-98 40.5q-58 0 -99 -40t-41 -99t41 -99.5
t99 -40.5zM1337 -17q-148 0 -251 103t-103 250t103.5 250t250.5 103q146 0 248.5 -103t102.5 -250q0 -146 -103 -249.5t-248 -103.5zM2143 -17q-148 0 -251.5 103t-103.5 250t104 250t251 103q146 0 248.5 -103t102.5 -250q0 -146 -103 -249.5t-248 -103.5zM1337 198
q58 0 99 40t41 98q0 57 -41.5 98.5t-98.5 41.5q-59 0 -100 -40.5t-41 -99.5q0 -58 41 -98t100 -40zM2143 198q58 0 99 40t41 98q0 57 -42 98.5t-98 41.5q-59 0 -100 -40.5t-41 -99.5q0 -58 41 -98t100 -40z" />
    <glyph glyph-name="guilsinglleft" unicode="&#x2039;" horiz-adv-x="647" 
d="M344 290l-312 377l312 377h259l-312 -377l312 -377h-259z" />
    <glyph glyph-name="guilsinglright" unicode="&#x203a;" horiz-adv-x="647" 
d="M44 290l312 377l-312 377h259l312 -377l-312 -377h-259z" />
    <glyph glyph-name="fraction" unicode="&#x2044;" horiz-adv-x="463" 
d="M-281 0l823 1458h202l-822 -1458h-203z" />
    <glyph glyph-name="Euro" unicode="&#x20ac;" horiz-adv-x="1549" 
d="M879 287q105 0 178.5 54.5t113.5 152.5l291 -176q-90 -156 -240.5 -247t-340.5 -91q-236 0 -405 134t-225 384h-142v171h120q-2 40 -2 62q0 40 1 60h-119v172h142q56 250 225 382.5t405 132.5q190 0 341 -89.5t240 -244.5l-291 -176q-83 206 -292 206q-216 0 -284 -211
h370v-172h-399q-2 -38 -2 -60t2 -62h399v-171h-370q68 -211 284 -211z" />
    <glyph glyph-name="uni2113" unicode="&#x2113;" horiz-adv-x="1171" 
d="M637 -14q-327 0 -396 298q0 12 -1 18q-9 -6 -44 -31.5t-57 -38.5l-83 159q139 99 177 129v451q0 264 110.5 396.5t295.5 132.5q83 0 146.5 -28.5t102.5 -79t58.5 -114t19.5 -138.5q0 -168 -106.5 -327.5t-319.5 -341.5l4 -68q4 -77 50.5 -122.5t120.5 -45.5
q75 0 146.5 51t125.5 128l129 -135q-59 -106 -141 -173.5t-164 -93.5t-174 -26zM542 740q99 105 156.5 212.5t57.5 194.5q0 144 -99 144q-115 0 -115 -283v-268z" />
    <glyph glyph-name="uni2116" unicode="&#x2116;" horiz-adv-x="2974" 
d="M1241 526v1010h342v-1536h-355l-678 1017v-1017h-340v1536h353zM2310 378q-246 0 -400.5 152t-154.5 399q0 245 154 397t401 152t400.5 -152t153.5 -397q0 -246 -154 -398.5t-400 -152.5zM2307 1205q-104 0 -163.5 -73t-59.5 -203q0 -131 59.5 -204t163.5 -73
q106 0 167 73t61 204q0 130 -61 203t-167 73zM1848 0v207h924v-207h-924z" />
    <glyph glyph-name="trademark" unicode="&#x2122;" horiz-adv-x="1602" 
d="M99 1401v135h470v-135h-159v-581h-152v581h-159zM1233 1536h158v-716h-149v466l-210 -347l-212 348v-467h-151v716h164l198 -335z" />
    <glyph glyph-name="estimated" unicode="&#x212e;" horiz-adv-x="1917" 
d="M973 -18q-178 0 -340 62t-279 167.5t-186 250.5t-69 304q0 215 117 397t318 287.5t439 105.5q239 0 440.5 -105.5t319 -287.5t117.5 -397v-21h-1418q-12 0 -12 -8v-430q0 -25 19 -49q106 -109 244.5 -171t291.5 -62q167 0 313.5 69.5t251.5 192.5h125
q-118 -141 -300.5 -223t-391.5 -82zM432 788h1088q8 0 8 15v430q0 34 -20 51q-107 105 -244 165t-289 60q-151 0 -288.5 -61.5t-245.5 -169.5q-21 -23 -21 -53v-422q0 -15 12 -15z" />
    <glyph glyph-name="partialdiff" unicode="&#x2202;" horiz-adv-x="1214" 
d="M325 1459q157 39 302.5 -6t250 -152.5t165 -272.5t54.5 -356q-5 -201 -78.5 -354t-202 -236t-293.5 -83q-126 0 -223.5 47.5t-150 132.5t-60.5 201t45 253q85 227 260 330t369 50q-53 140 -164.5 200t-273.5 18v228zM808 672q3 56 0 108q-129 69 -239.5 10t-165.5 -229
q-39 -119 -23.5 -198t58.5 -117.5t101 -38.5q44 0 87 27t82.5 80.5t66.5 146t33 211.5z" />
    <glyph glyph-name="emptyset" unicode="&#x2205;" horiz-adv-x="1473" 
d="M738 -16q-220 0 -388 139l-90 -90l-86 86l90 90q-139 170 -139 387q0 166 82 307t223.5 223t307.5 82q219 0 387 -139l90 90l86 -86l-90 -90q139 -170 139 -387q0 -166 -82 -307t-223 -223t-307 -82zM448 392l493 494q-90 63 -203 63q-148 0 -250.5 -103t-102.5 -250
q0 -113 63 -204zM738 243q147 0 249.5 103t102.5 250q0 115 -63 204l-493 -494q90 -63 204 -63z" />
    <glyph glyph-name="product" unicode="&#x220f;" horiz-adv-x="1708" 
d="M235 0v1170h-108v288h1455v-288h-109v-1170h-286v1170h-662v-1170h-290z" />
    <glyph glyph-name="summation" unicode="&#x2211;" horiz-adv-x="1412" 
d="M97 0v202l580 564l-580 564v206h1209v-248h-779l517 -522l-517 -521h779v-245h-1209z" />
    <glyph glyph-name="minus" unicode="&#x2212;" horiz-adv-x="1338" 
d="M208 584v245h922v-245h-922z" />
    <glyph glyph-name="radical" unicode="&#x221a;" horiz-adv-x="1477" 
d="M441 0l-210 647h-158v271h350l171 -517l542 1135h297l-738 -1536h-254z" />
    <glyph glyph-name="infinity" unicode="&#x221e;" horiz-adv-x="1688" 
d="M468 252q-142 0 -233.5 95.5t-96.5 248.5q5 153 96.5 248.5t233.5 95.5q181 0 374 -191q194 191 375 191q149 0 236.5 -91t91.5 -253q-4 -162 -91.5 -253t-236.5 -91q-182 0 -375 191q-193 -191 -374 -191zM468 461q103 0 235 135q-132 135 -235 135q-51 0 -87 -38
t-36 -97t36 -97t87 -38zM1217 461q53 0 87 36t34 99t-34 99t-87 36q-100 0 -237 -135q137 -135 237 -135z" />
    <glyph glyph-name="integral" unicode="&#x222b;" horiz-adv-x="937" 
d="M59 -457v306q143 0 189 43t46 169v1072q0 151 101 248t253 97q67 0 134 -20.5t111 -65.5l-114 -244q-48 48 -96 48q-80 0 -80 -130v-1036q0 -224 -151.5 -355.5t-392.5 -131.5z" />
    <glyph glyph-name="approxequal" unicode="&#x2248;" horiz-adv-x="1362" 
d="M890 693q-27 0 -52.5 3.5t-48.5 11.5t-42 15.5t-38.5 21t-32 22t-29.5 24t-24 22t-21 21.5t-16 17q-41 42 -85 42q-57 0 -87.5 -50.5t-34.5 -135.5h-229q5 191 97.5 303.5t257.5 112.5q82 0 145 -34t126 -114q15 -19 23 -28t29 -20.5t44 -11.5q49 0 80 47.5t37 135.5h224
q-6 -180 -89.5 -292.5t-233.5 -112.5zM890 178q-159 0 -297 154q-3 2 -4.5 3.5t-2.5 3.5q-22 23 -40 32t-45 8q-114 -7 -122 -186h-229q5 192 98.5 305t256.5 113q77 0 139.5 -34.5t131.5 -113.5q1 -1 6 -7.5t7 -9t8 -9t9.5 -9.5t10 -8t12 -7.5t12.5 -5.5t15 -4.5t16 -1.5
q50 0 80.5 47.5t36.5 137.5h224q-6 -180 -90 -294t-233 -114z" />
    <glyph glyph-name="notequal" unicode="&#x2260;" horiz-adv-x="1258" 
d="M134 0l185 362h-157v244h281l105 204h-386v245h510l154 301h241l-154 -301h201v-245h-325l-105 -204h430v-244h-554l-185 -362h-241z" />
    <glyph glyph-name="lessequal" unicode="&#x2264;" horiz-adv-x="1389" 
d="M1246 1526v-270l-854 -361l854 -362v-272l-1130 487v295zM116 0v205h1130v-205h-1130z" />
    <glyph glyph-name="greaterequal" unicode="&#x2265;" horiz-adv-x="1389" 
d="M142 1526l1131 -483v-295l-1131 -487v272l855 362l-855 361v270zM142 0v205h1131v-205h-1131z" />
    <glyph glyph-name="lozenge" unicode="&#x25ca;" horiz-adv-x="1330" 
d="M665 106l-618 617l618 618l617 -616zM666 465l257 260l-257 258l-260 -260z" />
    <glyph glyph-name="uniF8FF" unicode="&#xf8ff;" horiz-adv-x="1758" 
d="M879 0q-158 0 -302 62t-248 166t-166 248t-62 302t62 302.5t166 248.5t248 165.5t302 61.5t302.5 -61.5t248.5 -165.5t165.5 -248.5t61.5 -302.5t-61.5 -302t-165.5 -248t-248.5 -166t-302.5 -62zM879 74q143 0 273.5 56t225 150.5t150.5 224.5t56 273q0 191 -94.5 353.5
t-257 257t-353.5 94.5q-143 0 -273 -56t-224.5 -150.5t-150.5 -225t-56 -273.5t56 -273t150.5 -224.5t224.5 -150.5t273 -56zM1287 444q-14 0 -25 13l-297 295q-11 12 -11 27t11 26l297 297q10 10 25 10t26 -10q11 -11 11 -26.5t-11 -26.5l-270 -271l270 -270q24 -22 0 -51
q-10 -13 -26 -13zM472 444q-16 0 -26.5 11t-10.5 26v594q0 16 10.5 26.5t26.5 10.5q15 0 25.5 -10.5t10.5 -26.5v-594q0 -15 -10.5 -26t-25.5 -11zM879 444q-15 0 -26 11t-11 26v594q0 16 11 26.5t26 10.5q16 0 26.5 -10.5t10.5 -26.5v-594q0 -15 -10.5 -26t-26.5 -11z
M582 741q-15 0 -26 11t-11 26q0 16 11 26.5t26 10.5h187q15 0 25.5 -10.5t10.5 -26.5q0 -15 -10.5 -26t-25.5 -11h-187z" />
    <glyph glyph-name="G.ss02" horiz-adv-x="1612" 
d="M834 -20q-224 0 -395.5 91.5t-266.5 261t-95 392.5q0 225 97 397t267.5 264t386.5 92q214 0 383.5 -90.5t265.5 -253.5l-299 -159q-52 104 -142 157t-208 53q-181 0 -295.5 -120t-114.5 -331q0 -210 116 -335.5t324 -125.5q143 0 239.5 66.5t113.5 196.5h-369v271h690
q11 -93 8 -170q-2 -138 -42.5 -250t-107 -186.5t-157.5 -125t-190.5 -73t-208.5 -22.5z" />
    <glyph glyph-name="Gbreve.ss02" horiz-adv-x="1612" 
d="M823 1589q-177 0 -275 70.5t-98 232.5h186q0 -154 187 -154q189 0 189 154h185q0 -162 -97.5 -232.5t-276.5 -70.5zM834 -20q-224 0 -395.5 91.5t-266.5 261t-95 392.5q0 225 97 397t267.5 264t386.5 92q214 0 383.5 -90.5t265.5 -253.5l-299 -159q-52 104 -142 157
t-208 53q-181 0 -295.5 -120t-114.5 -331q0 -210 116 -335.5t324 -125.5q143 0 239.5 66.5t113.5 196.5h-369v271h690q11 -93 8 -170q-2 -138 -42.5 -250t-107 -186.5t-157.5 -125t-190.5 -73t-208.5 -22.5z" />
    <glyph glyph-name="Gcommaaccent.ss02" horiz-adv-x="1612" 
d="M834 -20q-224 0 -395.5 91.5t-266.5 261t-95 392.5q0 225 97 397t267.5 264t386.5 92q214 0 383.5 -90.5t265.5 -253.5l-299 -159q-52 104 -142 157t-208 53q-181 0 -295.5 -120t-114.5 -331q0 -210 116 -335.5t324 -125.5q143 0 239.5 66.5t113.5 196.5h-369v271h690
q11 -93 8 -170q-2 -138 -42.5 -250t-107 -186.5t-157.5 -125t-190.5 -73t-208.5 -22.5zM668 -579l-157 74l169 376h283z" />
    <glyph glyph-name="Gdotaccent.ss02" horiz-adv-x="1612" 
d="M824 1536q-76 0 -130 53t-54 129q0 75 54 128t130 53q74 0 127.5 -53t53.5 -128t-53.5 -128.5t-127.5 -53.5zM834 -20q-224 0 -395.5 91.5t-266.5 261t-95 392.5q0 225 97 397t267.5 264t386.5 92q214 0 383.5 -90.5t265.5 -253.5l-299 -159q-52 104 -142 157t-208 53
q-181 0 -295.5 -120t-114.5 -331q0 -210 116 -335.5t324 -125.5q143 0 239.5 66.5t113.5 196.5h-369v271h690q11 -93 8 -170q-2 -138 -42.5 -250t-107 -186.5t-157.5 -125t-190.5 -73t-208.5 -22.5z" />
    <glyph glyph-name="G.ss03" horiz-adv-x="1612" 
d="M834 -20q-224 0 -395.5 91.5t-266.5 261t-95 392.5q0 225 97 397t267.5 264t386.5 92q214 0 383.5 -90.5t265.5 -253.5l-299 -159q-52 104 -142 157t-208 53q-181 0 -295.5 -120t-114.5 -331q0 -210 116 -335.5t324 -125.5q143 0 239.5 66.5t113.5 196.5h-369v271h690
q11 -93 8 -170q-2 -138 -42.5 -250t-107 -186.5t-157.5 -125t-190.5 -73t-208.5 -22.5z" />
    <glyph glyph-name="Gbreve.ss03" horiz-adv-x="1612" 
d="M823 1589q-177 0 -275 70.5t-98 232.5h186q0 -154 187 -154q189 0 189 154h185q0 -162 -97.5 -232.5t-276.5 -70.5zM834 -20q-224 0 -395.5 91.5t-266.5 261t-95 392.5q0 225 97 397t267.5 264t386.5 92q214 0 383.5 -90.5t265.5 -253.5l-299 -159q-52 104 -142 157
t-208 53q-181 0 -295.5 -120t-114.5 -331q0 -210 116 -335.5t324 -125.5q143 0 239.5 66.5t113.5 196.5h-369v271h690q11 -93 8 -170q-2 -138 -42.5 -250t-107 -186.5t-157.5 -125t-190.5 -73t-208.5 -22.5z" />
    <glyph glyph-name="Gcommaaccent.ss03" horiz-adv-x="1612" 
d="M834 -20q-224 0 -395.5 91.5t-266.5 261t-95 392.5q0 225 97 397t267.5 264t386.5 92q214 0 383.5 -90.5t265.5 -253.5l-299 -159q-52 104 -142 157t-208 53q-181 0 -295.5 -120t-114.5 -331q0 -210 116 -335.5t324 -125.5q143 0 239.5 66.5t113.5 196.5h-369v271h690
q11 -93 8 -170q-2 -138 -42.5 -250t-107 -186.5t-157.5 -125t-190.5 -73t-208.5 -22.5zM668 -579l-157 74l169 376h283z" />
    <glyph glyph-name="Gdotaccent.ss03" horiz-adv-x="1612" 
d="M824 1536q-76 0 -130 53t-54 129q0 75 54 128t130 53q74 0 127.5 -53t53.5 -128t-53.5 -128.5t-127.5 -53.5zM834 -20q-224 0 -395.5 91.5t-266.5 261t-95 392.5q0 225 97 397t267.5 264t386.5 92q214 0 383.5 -90.5t265.5 -253.5l-299 -159q-52 104 -142 157t-208 53
q-181 0 -295.5 -120t-114.5 -331q0 -210 116 -335.5t324 -125.5q143 0 239.5 66.5t113.5 196.5h-369v271h690q11 -93 8 -170q-2 -138 -42.5 -250t-107 -186.5t-157.5 -125t-190.5 -73t-208.5 -22.5z" />
    <glyph glyph-name="i.loclTRK" horiz-adv-x="608" 
d="M306 1172q-76 0 -130 53t-54 129q0 75 54 128t130 53q74 0 127.5 -53t53.5 -128t-53.5 -128.5t-127.5 -53.5zM140 0v1044h328v-1044h-328z" />
    <glyph glyph-name="g.ss01" horiz-adv-x="1171" 
d="M1131 1044v-225h-138q33 -75 33 -161q0 -91 -35.5 -160t-98.5 -110t-141.5 -61t-170.5 -20q-110 0 -200 27q-15 -27 -15 -52q0 -20 8.5 -35t27 -26t38.5 -18t54.5 -12t62 -8.5t73.5 -7.5q34 -3 52 -5q79 -8 135.5 -17.5t119.5 -31t102 -52.5t64.5 -83t25.5 -122
q0 -91 -40.5 -160.5t-113.5 -112t-168.5 -64t-211.5 -21.5q-237 0 -375.5 81.5t-138.5 204.5q0 109 109 215q-106 70 -106 203q0 139 106 236q-89 94 -89 234q0 90 37.5 164t101 121.5t145 73t172.5 25.5q81 0 156 -20h419zM569 535q75 0 116 40.5t41 106.5t-41 108.5
t-116 42.5q-74 0 -116.5 -43t-42.5 -110q0 -65 41.5 -105t117.5 -40zM813 -185q0 20 -8 35t-26.5 25.5t-38.5 17.5t-54.5 12.5t-63.5 9t-75 7.5q-21 2 -32 3q-87 8 -125 15q-33 -46 -33 -86q0 -61 74 -97t202 -36q180 0 180 94z" />
    <glyph glyph-name="gbreve.ss01" horiz-adv-x="1171" 
d="M584 1159q-171 0 -271.5 92t-100.5 270h202q0 -97 43 -154.5t127 -57.5q85 0 128.5 57.5t43.5 154.5h203q0 -178 -101 -270t-274 -92zM1131 1044v-225h-138q33 -75 33 -161q0 -91 -35.5 -160t-98.5 -110t-141.5 -61t-170.5 -20q-110 0 -200 27q-15 -27 -15 -52
q0 -20 8.5 -35t27 -26t38.5 -18t54.5 -12t62 -8.5t73.5 -7.5q34 -3 52 -5q79 -8 135.5 -17.5t119.5 -31t102 -52.5t64.5 -83t25.5 -122q0 -91 -40.5 -160.5t-113.5 -112t-168.5 -64t-211.5 -21.5q-237 0 -375.5 81.5t-138.5 204.5q0 109 109 215q-106 70 -106 203
q0 139 106 236q-89 94 -89 234q0 90 37.5 164t101 121.5t145 73t172.5 25.5q81 0 156 -20h419zM569 535q75 0 116 40.5t41 106.5t-41 108.5t-116 42.5q-74 0 -116.5 -43t-42.5 -110q0 -65 41.5 -105t117.5 -40zM813 -185q0 20 -8 35t-26.5 25.5t-38.5 17.5t-54.5 12.5
t-63.5 9t-75 7.5q-21 2 -32 3q-87 8 -125 15q-33 -46 -33 -86q0 -61 74 -97t202 -36q180 0 180 94z" />
    <glyph glyph-name="gcommaaccent.ss01" horiz-adv-x="1171" 
d="M822 1519l-126 -334h-334l228 334h232zM1131 1044v-225h-138q33 -75 33 -161q0 -91 -35.5 -160t-98.5 -110t-141.5 -61t-170.5 -20q-110 0 -200 27q-15 -27 -15 -52q0 -20 8.5 -35t27 -26t38.5 -18t54.5 -12t62 -8.5t73.5 -7.5q34 -3 52 -5q79 -8 135.5 -17.5t119.5 -31
t102 -52.5t64.5 -83t25.5 -122q0 -91 -40.5 -160.5t-113.5 -112t-168.5 -64t-211.5 -21.5q-237 0 -375.5 81.5t-138.5 204.5q0 109 109 215q-106 70 -106 203q0 139 106 236q-89 94 -89 234q0 90 37.5 164t101 121.5t145 73t172.5 25.5q81 0 156 -20h419zM569 535
q75 0 116 40.5t41 106.5t-41 108.5t-116 42.5q-74 0 -116.5 -43t-42.5 -110q0 -65 41.5 -105t117.5 -40zM813 -185q0 20 -8 35t-26.5 25.5t-38.5 17.5t-54.5 12.5t-63.5 9t-75 7.5q-21 2 -32 3q-87 8 -125 15q-33 -46 -33 -86q0 -61 74 -97t202 -36q180 0 180 94z" />
    <glyph glyph-name="gdotaccent.ss01" horiz-adv-x="1171" 
d="M585 1172q-76 0 -130 53t-54 129q0 75 54 128t130 53q74 0 127.5 -53t53.5 -128t-53.5 -128.5t-127.5 -53.5zM1131 1044v-225h-138q33 -75 33 -161q0 -91 -35.5 -160t-98.5 -110t-141.5 -61t-170.5 -20q-110 0 -200 27q-15 -27 -15 -52q0 -20 8.5 -35t27 -26t38.5 -18
t54.5 -12t62 -8.5t73.5 -7.5q34 -3 52 -5q79 -8 135.5 -17.5t119.5 -31t102 -52.5t64.5 -83t25.5 -122q0 -91 -40.5 -160.5t-113.5 -112t-168.5 -64t-211.5 -21.5q-237 0 -375.5 81.5t-138.5 204.5q0 109 109 215q-106 70 -106 203q0 139 106 236q-89 94 -89 234
q0 90 37.5 164t101 121.5t145 73t172.5 25.5q81 0 156 -20h419zM569 535q75 0 116 40.5t41 106.5t-41 108.5t-116 42.5q-74 0 -116.5 -43t-42.5 -110q0 -65 41.5 -105t117.5 -40zM813 -185q0 20 -8 35t-26.5 25.5t-38.5 17.5t-54.5 12.5t-63.5 9t-75 7.5q-21 2 -32 3
q-87 8 -125 15q-33 -46 -33 -86q0 -61 74 -97t202 -36q180 0 180 94z" />
    <glyph glyph-name="a.ss02" horiz-adv-x="1336" 
d="M888 1044h308v-1044h-308l-8 117q-42 -68 -126.5 -105t-188.5 -37t-196 37t-161 105.5t-109 172t-40 229.5t40 230t109.5 172t161 105.5t195.5 37.5q109 0 196 -41t127 -115v136zM641 244q111 0 183.5 75t72.5 200q0 126 -72.5 201t-183.5 75t-183.5 -74.5t-72.5 -201.5
t72.5 -201t183.5 -74z" />
    <glyph glyph-name="aacute.ss02" horiz-adv-x="1336" 
d="M996 1446l-227 -270h-197l266 382zM888 1044h308v-1044h-308l-8 117q-42 -68 -126.5 -105t-188.5 -37t-196 37t-161 105.5t-109 172t-40 229.5t40 230t109.5 172t161 105.5t195.5 37.5q109 0 196 -41t127 -115v136zM641 244q111 0 183.5 75t72.5 200q0 126 -72.5 201
t-183.5 75t-183.5 -74.5t-72.5 -201.5t72.5 -201t183.5 -74z" />
    <glyph glyph-name="abreve.ss02" horiz-adv-x="1336" 
d="M669 1159q-171 0 -271.5 92t-100.5 270h202q0 -97 43 -154.5t127 -57.5q85 0 128.5 57.5t43.5 154.5h203q0 -178 -101 -270t-274 -92zM888 1044h308v-1044h-308l-8 117q-42 -68 -126.5 -105t-188.5 -37t-196 37t-161 105.5t-109 172t-40 229.5t40 230t109.5 172
t161 105.5t195.5 37.5q109 0 196 -41t127 -115v136zM641 244q111 0 183.5 75t72.5 200q0 126 -72.5 201t-183.5 75t-183.5 -74.5t-72.5 -201.5t72.5 -201t183.5 -74z" />
    <glyph glyph-name="uni1EAF.ss02" horiz-adv-x="1336" 
d="M996 1923l-227 -270h-197l266 382zM669 1159q-171 0 -271.5 92t-100.5 270h202q0 -97 43 -154.5t127 -57.5q85 0 128.5 57.5t43.5 154.5h203q0 -178 -101 -270t-274 -92zM888 1044h308v-1044h-308l-8 117q-42 -68 -126.5 -105t-188.5 -37t-196 37t-161 105.5t-109 172
t-40 229.5t40 230t109.5 172t161 105.5t195.5 37.5q109 0 196 -41t127 -115v136zM641 244q111 0 183.5 75t72.5 200q0 126 -72.5 201t-183.5 75t-183.5 -74.5t-72.5 -201.5t72.5 -201t183.5 -74z" />
    <glyph glyph-name="uni1EB7.ss02" horiz-adv-x="1336" 
d="M669 1159q-171 0 -271.5 92t-100.5 270h202q0 -97 43 -154.5t127 -57.5q85 0 128.5 57.5t43.5 154.5h203q0 -178 -101 -270t-274 -92zM888 1044h308v-1044h-308l-8 117q-42 -68 -126.5 -105t-188.5 -37t-196 37t-161 105.5t-109 172t-40 229.5t40 230t109.5 172
t161 105.5t195.5 37.5q109 0 196 -41t127 -115v136zM641 244q111 0 183.5 75t72.5 200q0 126 -72.5 201t-183.5 75t-183.5 -74.5t-72.5 -201.5t72.5 -201t183.5 -74zM670 -149q74 0 127.5 -53t53.5 -128t-53.5 -128.5t-127.5 -53.5q-76 0 -130 53t-54 129q0 75 54 128
t130 53z" />
    <glyph glyph-name="uni1EB1.ss02" horiz-adv-x="1336" 
d="M768 1653h-197l-227 270l158 112zM669 1159q-171 0 -271.5 92t-100.5 270h202q0 -97 43 -154.5t127 -57.5q85 0 128.5 57.5t43.5 154.5h203q0 -178 -101 -270t-274 -92zM888 1044h308v-1044h-308l-8 117q-42 -68 -126.5 -105t-188.5 -37t-196 37t-161 105.5t-109 172
t-40 229.5t40 230t109.5 172t161 105.5t195.5 37.5q109 0 196 -41t127 -115v136zM641 244q111 0 183.5 75t72.5 200q0 126 -72.5 201t-183.5 75t-183.5 -74.5t-72.5 -201.5t72.5 -201t183.5 -74z" />
    <glyph glyph-name="uni1EB3.ss02" horiz-adv-x="1336" 
d="M649 1893q-48 0 -86 -41l-72 106q70 60 178 60q96 0 148.5 -48t52.5 -129q0 -69 -34.5 -104.5t-91.5 -53.5v-86h-140v141q108 17 108 92q0 29 -15.5 46t-47.5 17zM669 1159q-171 0 -271.5 92t-100.5 270h202q0 -97 43 -154.5t127 -57.5q85 0 128.5 57.5t43.5 154.5h203
q0 -178 -101 -270t-274 -92zM888 1044h308v-1044h-308l-8 117q-42 -68 -126.5 -105t-188.5 -37t-196 37t-161 105.5t-109 172t-40 229.5t40 230t109.5 172t161 105.5t195.5 37.5q109 0 196 -41t127 -115v136zM641 244q111 0 183.5 75t72.5 200q0 126 -72.5 201t-183.5 75
t-183.5 -74.5t-72.5 -201.5t72.5 -201t183.5 -74z" />
    <glyph glyph-name="uni1EB5.ss02" horiz-adv-x="1336" 
d="M574 1784q-32 0 -47.5 -34.5t-15.5 -92.5h-150q0 122 56 198t152 76q114 0 180 -105q21 -34 52 -34q60 0 60 126h152q0 -120 -54.5 -196.5t-153.5 -76.5q-115 0 -180 104q-22 35 -51 35zM669 1159q-171 0 -271.5 92t-100.5 270h202q0 -97 43 -154.5t127 -57.5
q85 0 128.5 57.5t43.5 154.5h203q0 -178 -101 -270t-274 -92zM888 1044h308v-1044h-308l-8 117q-42 -68 -126.5 -105t-188.5 -37t-196 37t-161 105.5t-109 172t-40 229.5t40 230t109.5 172t161 105.5t195.5 37.5q109 0 196 -41t127 -115v136zM641 244q111 0 183.5 75
t72.5 200q0 126 -72.5 201t-183.5 75t-183.5 -74.5t-72.5 -201.5t72.5 -201t183.5 -74z" />
    <glyph glyph-name="uni01CE.ss02" horiz-adv-x="1336" 
d="M764 1221h-189l-233 300h198l129 -151l130 151h197zM888 1044h308v-1044h-308l-8 117q-42 -68 -126.5 -105t-188.5 -37t-196 37t-161 105.5t-109 172t-40 229.5t40 230t109.5 172t161 105.5t195.5 37.5q109 0 196 -41t127 -115v136zM641 244q111 0 183.5 75t72.5 200
q0 126 -72.5 201t-183.5 75t-183.5 -74.5t-72.5 -201.5t72.5 -201t183.5 -74z" />
    <glyph glyph-name="acircumflex.ss02" horiz-adv-x="1336" 
d="M669 1372l-130 -151h-197l232 300h190l232 -300h-198zM888 1044h308v-1044h-308l-8 117q-42 -68 -126.5 -105t-188.5 -37t-196 37t-161 105.5t-109 172t-40 229.5t40 230t109.5 172t161 105.5t195.5 37.5q109 0 196 -41t127 -115v136zM641 244q111 0 183.5 75t72.5 200
q0 126 -72.5 201t-183.5 75t-183.5 -74.5t-72.5 -201.5t72.5 -201t183.5 -74z" />
    <glyph glyph-name="uni1EA5.ss02" horiz-adv-x="1336" 
d="M996 1923l-227 -270h-197l266 382zM669 1372l-130 -151h-197l232 300h190l232 -300h-198zM888 1044h308v-1044h-308l-8 117q-42 -68 -126.5 -105t-188.5 -37t-196 37t-161 105.5t-109 172t-40 229.5t40 230t109.5 172t161 105.5t195.5 37.5q109 0 196 -41t127 -115v136z
M641 244q111 0 183.5 75t72.5 200q0 126 -72.5 201t-183.5 75t-183.5 -74.5t-72.5 -201.5t72.5 -201t183.5 -74z" />
    <glyph glyph-name="uni1EAD.ss02" horiz-adv-x="1336" 
d="M669 1372l-130 -151h-197l232 300h190l232 -300h-198zM888 1044h308v-1044h-308l-8 117q-42 -68 -126.5 -105t-188.5 -37t-196 37t-161 105.5t-109 172t-40 229.5t40 230t109.5 172t161 105.5t195.5 37.5q109 0 196 -41t127 -115v136zM641 244q111 0 183.5 75t72.5 200
q0 126 -72.5 201t-183.5 75t-183.5 -74.5t-72.5 -201.5t72.5 -201t183.5 -74zM670 -149q74 0 127.5 -53t53.5 -128t-53.5 -128.5t-127.5 -53.5q-76 0 -130 53t-54 129q0 75 54 128t130 53z" />
    <glyph glyph-name="uni1EA7.ss02" horiz-adv-x="1336" 
d="M768 1653h-197l-227 270l158 112zM669 1372l-130 -151h-197l232 300h190l232 -300h-198zM888 1044h308v-1044h-308l-8 117q-42 -68 -126.5 -105t-188.5 -37t-196 37t-161 105.5t-109 172t-40 229.5t40 230t109.5 172t161 105.5t195.5 37.5q109 0 196 -41t127 -115v136z
M641 244q111 0 183.5 75t72.5 200q0 126 -72.5 201t-183.5 75t-183.5 -74.5t-72.5 -201.5t72.5 -201t183.5 -74z" />
    <glyph glyph-name="uni1EA9.ss02" horiz-adv-x="1336" 
d="M649 1893q-48 0 -86 -41l-72 106q70 60 178 60q96 0 148.5 -48t52.5 -129q0 -69 -34.5 -104.5t-91.5 -53.5v-86h-140v141q108 17 108 92q0 29 -15.5 46t-47.5 17zM669 1372l-130 -151h-197l232 300h190l232 -300h-198zM888 1044h308v-1044h-308l-8 117
q-42 -68 -126.5 -105t-188.5 -37t-196 37t-161 105.5t-109 172t-40 229.5t40 230t109.5 172t161 105.5t195.5 37.5q109 0 196 -41t127 -115v136zM641 244q111 0 183.5 75t72.5 200q0 126 -72.5 201t-183.5 75t-183.5 -74.5t-72.5 -201.5t72.5 -201t183.5 -74z" />
    <glyph glyph-name="uni1EAB.ss02" horiz-adv-x="1336" 
d="M574 1784q-32 0 -47.5 -34.5t-15.5 -92.5h-150q0 122 56 198t152 76q114 0 180 -105q21 -34 52 -34q60 0 60 126h152q0 -120 -54.5 -196.5t-153.5 -76.5q-115 0 -180 104q-22 35 -51 35zM669 1372l-130 -151h-197l232 300h190l232 -300h-198zM888 1044h308v-1044h-308
l-8 117q-42 -68 -126.5 -105t-188.5 -37t-196 37t-161 105.5t-109 172t-40 229.5t40 230t109.5 172t161 105.5t195.5 37.5q109 0 196 -41t127 -115v136zM641 244q111 0 183.5 75t72.5 200q0 126 -72.5 201t-183.5 75t-183.5 -74.5t-72.5 -201.5t72.5 -201t183.5 -74z" />
    <glyph glyph-name="adieresis.ss02" horiz-adv-x="1336" 
d="M444 1172q-76 0 -130 53t-54 129q0 75 54 128t130 53q74 0 127.5 -53t53.5 -128t-53.5 -128.5t-127.5 -53.5zM894 1172q-76 0 -130 53t-54 129q0 75 54 128t130 53q74 0 127.5 -53t53.5 -128t-53.5 -128.5t-127.5 -53.5zM888 1044h308v-1044h-308l-8 117
q-42 -68 -126.5 -105t-188.5 -37t-196 37t-161 105.5t-109 172t-40 229.5t40 230t109.5 172t161 105.5t195.5 37.5q109 0 196 -41t127 -115v136zM641 244q111 0 183.5 75t72.5 200q0 126 -72.5 201t-183.5 75t-183.5 -74.5t-72.5 -201.5t72.5 -201t183.5 -74z" />
    <glyph glyph-name="uni1EA1.ss02" horiz-adv-x="1336" 
d="M888 1044h308v-1044h-308l-8 117q-42 -68 -126.5 -105t-188.5 -37t-196 37t-161 105.5t-109 172t-40 229.5t40 230t109.5 172t161 105.5t195.5 37.5q109 0 196 -41t127 -115v136zM641 244q111 0 183.5 75t72.5 200q0 126 -72.5 201t-183.5 75t-183.5 -74.5t-72.5 -201.5
t72.5 -201t183.5 -74zM670 -149q74 0 127.5 -53t53.5 -128t-53.5 -128.5t-127.5 -53.5q-76 0 -130 53t-54 129q0 75 54 128t130 53z" />
    <glyph glyph-name="agrave.ss02" horiz-adv-x="1336" 
d="M768 1176h-197l-227 270l158 112zM888 1044h308v-1044h-308l-8 117q-42 -68 -126.5 -105t-188.5 -37t-196 37t-161 105.5t-109 172t-40 229.5t40 230t109.5 172t161 105.5t195.5 37.5q109 0 196 -41t127 -115v136zM641 244q111 0 183.5 75t72.5 200q0 126 -72.5 201
t-183.5 75t-183.5 -74.5t-72.5 -201.5t72.5 -201t183.5 -74z" />
    <glyph glyph-name="uni1EA3.ss02" horiz-adv-x="1336" 
d="M649 1416q-48 0 -86 -41l-72 106q70 60 178 60q96 0 148.5 -48t52.5 -129q0 -69 -34.5 -104.5t-91.5 -53.5v-86h-140v141q108 17 108 92q0 29 -15.5 46t-47.5 17zM888 1044h308v-1044h-308l-8 117q-42 -68 -126.5 -105t-188.5 -37t-196 37t-161 105.5t-109 172t-40 229.5
t40 230t109.5 172t161 105.5t195.5 37.5q109 0 196 -41t127 -115v136zM641 244q111 0 183.5 75t72.5 200q0 126 -72.5 201t-183.5 75t-183.5 -74.5t-72.5 -201.5t72.5 -201t183.5 -74z" />
    <glyph glyph-name="amacron.ss02" horiz-adv-x="1336" 
d="M1004 1393v-189h-670v189h670zM888 1044h308v-1044h-308l-8 117q-42 -68 -126.5 -105t-188.5 -37t-196 37t-161 105.5t-109 172t-40 229.5t40 230t109.5 172t161 105.5t195.5 37.5q109 0 196 -41t127 -115v136zM641 244q111 0 183.5 75t72.5 200q0 126 -72.5 201
t-183.5 75t-183.5 -74.5t-72.5 -201.5t72.5 -201t183.5 -74z" />
    <glyph glyph-name="aogonek.ss02" horiz-adv-x="1336" 
d="M1196 0q-68 -58 -120 -120t-52 -98q0 -33 54 -33q30 0 64 12t54 32v-201q-68 -30 -155 -30t-143 29.5t-56 84.5q0 117 224 324h-178l-8 117q-42 -68 -126.5 -105t-188.5 -37t-196 37t-161 105.5t-109 172t-40 229.5t40 230t109.5 172t161 105.5t195.5 37.5q109 0 196 -41
t127 -115v136h308v-1044zM641 244q111 0 183.5 75t72.5 200q0 126 -72.5 201t-183.5 75t-183.5 -74.5t-72.5 -201.5t72.5 -201t183.5 -74z" />
    <glyph glyph-name="aring.ss02" horiz-adv-x="1336" 
d="M669 1149q-103 0 -176.5 73.5t-73.5 176.5q0 101 73.5 174t176.5 73q102 0 174.5 -73t72.5 -174q0 -103 -72.5 -176.5t-174.5 -73.5zM669 1517q-48 0 -80.5 -35t-32.5 -83q0 -52 32 -84t81 -32q50 0 82.5 32t32.5 84q0 47 -33.5 82.5t-81.5 35.5zM888 1044h308v-1044
h-308l-8 117q-42 -68 -126.5 -105t-188.5 -37t-196 37t-161 105.5t-109 172t-40 229.5t40 230t109.5 172t161 105.5t195.5 37.5q109 0 196 -41t127 -115v136zM641 244q111 0 183.5 75t72.5 200q0 126 -72.5 201t-183.5 75t-183.5 -74.5t-72.5 -201.5t72.5 -201t183.5 -74z
" />
    <glyph glyph-name="atilde.ss02" horiz-adv-x="1336" 
d="M574 1307q-32 0 -47.5 -34.5t-15.5 -92.5h-150q0 122 56 198t152 76q114 0 180 -105q21 -34 52 -34q60 0 60 126h152q0 -120 -54.5 -196.5t-153.5 -76.5q-115 0 -180 104q-22 35 -51 35zM888 1044h308v-1044h-308l-8 117q-42 -68 -126.5 -105t-188.5 -37t-196 37
t-161 105.5t-109 172t-40 229.5t40 230t109.5 172t161 105.5t195.5 37.5q109 0 196 -41t127 -115v136zM641 244q111 0 183.5 75t72.5 200q0 126 -72.5 201t-183.5 75t-183.5 -74.5t-72.5 -201.5t72.5 -201t183.5 -74z" />
    <glyph glyph-name="f_t" horiz-adv-x="1508" 
d="M219 0v795h-205v249h205v79q0 76 14 136.5t37.5 103.5t62 74.5t81.5 50t102 29.5t116 15t131 4v-258q-97 0 -137 -15q-81 -32 -81 -141v-78h212q97 0 144.5 41.5t47.5 133.5v157h277v-332h208v-249h-208v-420q0 -130 115 -130h88v-245h-203q-159 0 -245 88.5t-86 250.5
v456h-350v-795h-326z" />
    <glyph glyph-name="t_t" horiz-adv-x="1556" 
d="M545 0q-159 0 -245 88.5t-86 250.5v456h-202v249h80q158 0 158 140v148h296v-288h275q157 0 157 140v148h296v-288h208v-249h-208v-420q0 -130 115 -130h88v-245h-203q-159 0 -245 88.5t-86 250.5v456h-397v-420q0 -130 114 -130h88v-245h-203z" />
    <glyph glyph-name="zero.subs" horiz-adv-x="774" 
d="M387 -381q-154 0 -248.5 130.5t-94.5 342.5t94.5 342.5t248.5 130.5q155 0 250.5 -130.5t95.5 -342.5q0 -211 -95.5 -342t-250.5 -131zM389 -194q69 0 111 77t42 209q0 133 -42 210t-111 77t-111 -77t-42 -210q0 -132 42 -209t111 -77z" />
    <glyph glyph-name="one.subs" horiz-adv-x="480" 
d="M194 553h174v-922h-187v748l-185 -144v178z" />
    <glyph glyph-name="two.subs" horiz-adv-x="720" 
d="M244 -222h426v-147h-633v178q139 88 231 161t134 128.5t56.5 93t14.5 75.5q0 84 -36 116.5t-88 29.5q-64 -5 -90 -48t-23 -105h-196q-4 133 88 220t234 87q132 0 212.5 -77.5t81.5 -202.5q1 -136 -102 -269.5t-310 -239.5z" />
    <glyph glyph-name="three.subs" horiz-adv-x="697" 
d="M529 135q130 -71 130 -218q0 -125 -91 -211.5t-231 -86.5q-133 0 -223.5 77t-90.5 193h184q4 -57 42 -86t94 -29q63 0 97.5 34.5t34.5 99.5q0 131 -143 131h-56v143h43q122 0 122 122q0 113 -107 113q-110 0 -116 -122h-178q0 122 82 196t208 74q122 0 200 -71t78 -183
q0 -111 -79 -176z" />
    <glyph glyph-name="four.subs" horiz-adv-x="734" 
d="M696 -34v-140h-95v-195h-182v195h-418v166l354 561h246v-587h95zM152 -34h267v446z" />
    <glyph glyph-name="five.subs" horiz-adv-x="766" 
d="M387 230q172 0 251.5 -79.5t79.5 -217.5q0 -144 -93.5 -227t-235.5 -83q-147 0 -244 77.5t-101 225.5h190q3 -76 46 -113t105 -37q67 0 106 41t39 111q0 79 -43 116t-136 37h-290l100 474h524v-155h-392l-34 -170h128z" />
    <glyph glyph-name="six.subs" horiz-adv-x="702" 
d="M690 -53q1 -149 -101 -237t-242 -89q-139 -1 -240 84.5t-102 235.5q-1 99 74 202l299 410h223l-238 -296q16 2 24 2q117 1 209.5 -93.5t93.5 -218.5zM347 -202q65 2 113 43.5t47 109.5q-1 70 -49 111t-113 40t-110.5 -43t-44.5 -113q1 -70 47 -109.5t110 -38.5z" />
    <glyph glyph-name="seven.subs" horiz-adv-x="639" 
d="M16 553h635v-139l-417 -783h-217l411 746h-412v176z" />
    <glyph glyph-name="eight.subs" horiz-adv-x="727" 
d="M561 140q60 -38 94 -98t34 -133q0 -124 -93 -207t-234 -83q-139 0 -231.5 83.5t-92.5 206.5q0 73 33.5 132.5t93.5 97.5q-72 62 -72 183q0 104 76.5 173.5t194.5 69.5q116 0 192 -69.5t76 -173.5q0 -121 -71 -182zM364 415q-48 0 -79 -31.5t-31 -79.5q0 -46 31 -77.5
t79 -31.5q47 0 78 31.5t31 77.5q0 48 -31 79.5t-78 31.5zM362 -216q60 0 100 42.5t40 103.5t-39.5 100.5t-100.5 39.5q-60 0 -98.5 -39.5t-38.5 -100.5t39 -103.5t98 -42.5z" />
    <glyph glyph-name="nine.subs" horiz-adv-x="704" 
d="M355 563q66 0 126.5 -20.5t109 -59.5t78 -101t29.5 -138q0 -101 -75 -203l-298 -410h-223l238 296q-16 -2 -25 -2q-117 0 -209.5 94t-93.5 218q0 100 50 176t127 112.5t166 37.5zM358 83q65 1 110.5 42.5t44.5 112.5q-1 70 -47 109.5t-110 38.5q-66 -1 -114 -42.5
t-47 -109.5q1 -71 49.5 -112t113.5 -39z" />
    <glyph glyph-name="zero.dnom" horiz-adv-x="774" 
d="M387 -12q-154 0 -248.5 130.5t-94.5 342.5t94.5 342.5t248.5 130.5q155 0 250.5 -131t95.5 -342q0 -212 -95.5 -342.5t-250.5 -130.5zM389 174q69 0 111 77t42 210q0 132 -42 209t-111 77t-111 -77t-42 -209q0 -133 42 -210t111 -77z" />
    <glyph glyph-name="one.dnom" horiz-adv-x="480" 
d="M194 922h174v-922h-187v748l-185 -144v177z" />
    <glyph glyph-name="two.dnom" horiz-adv-x="720" 
d="M244 147h426v-147h-633v178q112 70 194 132.5t128 108t72.5 88t34 71t7.5 58.5q0 84 -36 116.5t-88 28.5q-64 -5 -90 -47.5t-23 -104.5h-196q-4 133 88 220t234 87q132 0 212.5 -78t81.5 -203q1 -135 -102 -268.5t-310 -239.5z" />
    <glyph glyph-name="three.dnom" horiz-adv-x="697" 
d="M529 504q130 -71 130 -218q0 -126 -91 -212t-231 -86q-133 0 -223.5 77t-90.5 193h184q4 -57 42 -86.5t94 -29.5q63 0 97.5 35t34.5 100q0 130 -143 130h-56v144h43q122 0 122 121q0 114 -107 114q-109 0 -116 -122h-178q0 122 82 196t208 74q122 0 200 -71t78 -183
t-79 -176z" />
    <glyph glyph-name="four.dnom" horiz-adv-x="734" 
d="M696 334v-139h-95v-195h-182v195h-418v165l354 562h246v-588h95zM152 334h267v446z" />
    <glyph glyph-name="five.dnom" horiz-adv-x="766" 
d="M387 599q172 0 251.5 -79.5t79.5 -217.5q0 -145 -93.5 -228t-235.5 -83q-147 0 -244 77.5t-101 226.5h190q3 -76 46 -113.5t105 -37.5q67 0 106 41t39 111q0 79 -43 116.5t-136 37.5h-290l100 473h524v-154h-392l-34 -170h128z" />
    <glyph glyph-name="six.dnom" horiz-adv-x="702" 
d="M690 316q1 -150 -101 -237.5t-242 -88.5q-138 -1 -239.5 84.5t-102.5 234.5q-1 100 74 203l299 410h223l-238 -296q16 2 24 2q117 0 209.5 -94t93.5 -218zM347 167q65 1 113 42.5t47 109.5q-1 70 -49 111.5t-113 39.5q-65 -1 -110.5 -42.5t-44.5 -112.5q1 -70 47 -109.5
t110 -38.5z" />
    <glyph glyph-name="seven.dnom" horiz-adv-x="639" 
d="M16 922h635v-139l-417 -783h-217l411 746h-412v176z" />
    <glyph glyph-name="eight.dnom" horiz-adv-x="727" 
d="M560 508q61 -37 95 -97t34 -133q0 -124 -93 -207t-234 -83q-139 0 -231.5 83.5t-92.5 206.5q0 73 34 132.5t94 97.5q-73 62 -73 183q0 104 76.5 173.5t194.5 69.5q116 0 192 -70t76 -173q0 -121 -72 -183zM364 783q-48 0 -79 -31.5t-31 -79.5q0 -46 31.5 -77.5
t78.5 -31.5t78 31.5t31 77.5q0 48 -31 79.5t-78 31.5zM362 152q60 0 100 42.5t40 103.5t-39.5 100.5t-100.5 39.5q-60 0 -98.5 -39.5t-38.5 -100.5t39 -103.5t98 -42.5z" />
    <glyph glyph-name="nine.dnom" horiz-adv-x="704" 
d="M355 932q139 1 240.5 -84.5t102.5 -235.5q0 -100 -75 -202l-298 -410h-223l238 296q-16 -2 -25 -2q-117 -1 -209.5 93.5t-93.5 218.5q0 100 50 176t127 112.5t166 37.5zM358 451q65 1 110.5 42.5t44.5 113.5q-1 70 -47 109.5t-110 38.5q-66 -2 -114 -43.5t-47 -109.5
q1 -70 49.5 -111t113.5 -40z" />
    <glyph glyph-name="zero.numr" horiz-adv-x="774" 
d="M387 532q-154 0 -248.5 130.5t-94.5 342.5t94.5 342.5t248.5 130.5q155 0 250.5 -130.5t95.5 -342.5q0 -211 -95.5 -342t-250.5 -131zM389 719q69 0 111 77t42 209q0 133 -42 209.5t-111 76.5t-111 -76.5t-42 -209.5q0 -132 42 -209t111 -77z" />
    <glyph glyph-name="one.numr" horiz-adv-x="481" 
d="M195 1458h175v-922h-189l2 749l-185 -145l-2 177z" />
    <glyph glyph-name="two.numr" horiz-adv-x="720" 
d="M244 689h426v-147h-633v178q139 88 231 161t134 128.5t56.5 93t14.5 75.5q0 84 -36 116.5t-88 29.5q-64 -5 -90 -48t-23 -105h-196q-4 133 88 220t234 87q132 0 212.5 -77.5t81.5 -202.5q1 -136 -102 -269.5t-310 -239.5z" />
    <glyph glyph-name="three.numr" horiz-adv-x="697" 
d="M526 1048q133 -70 133 -218q0 -125 -91 -211.5t-229 -86.5q-135 0 -225.5 77t-90.5 194h196q0 -58 33 -87t87 -29q60 0 93.5 35t33.5 101q0 129 -151 129h-39v143h26q67 0 98.5 30.5t31.5 93.5q0 54 -27.5 83t-72.5 29q-102 0 -102 -123l-190 1q0 123 82 196t210 73
q121 0 198.5 -71t77.5 -184q0 -112 -82 -175z" />
    <glyph glyph-name="four.numr" horiz-adv-x="734" 
d="M696 871v-140h-95v-195h-182v195h-418v165l354 562h246v-587h95zM152 871h267v446z" />
    <glyph glyph-name="five.numr" horiz-adv-x="766" 
d="M387 1133q172 0 251.5 -79.5t79.5 -217.5q0 -144 -93.5 -227t-235.5 -83q-147 0 -244 77.5t-101 225.5h190q3 -76 46 -113t105 -37q67 0 106 41t39 111q0 79 -43 116.5t-136 37.5h-290l100 473h524v-155h-392l-34 -170h128z" />
    <glyph glyph-name="six.numr" horiz-adv-x="702" 
d="M690 852q1 -149 -101 -237t-242 -89q-139 -1 -240 84.5t-102 235.5q-1 99 74 202l299 410h223l-238 -296q16 2 24 2q117 1 209.5 -93.5t93.5 -218.5zM347 703q65 2 113 43.5t47 108.5q-1 70 -49 111.5t-113 40.5t-110.5 -43t-44.5 -113q1 -70 47 -109.5t110 -38.5z" />
    <glyph glyph-name="seven.numr" horiz-adv-x="639" 
d="M16 1458h635v-139l-417 -783h-217l411 746h-412v176z" />
    <glyph glyph-name="eight.numr" horiz-adv-x="727" 
d="M561 1053q60 -38 94 -98t34 -133q0 -123 -93 -206.5t-234 -83.5q-139 0 -231.5 83.5t-92.5 206.5q0 73 33.5 133t93.5 97q-72 62 -72 183q0 104 76.5 173.5t194.5 69.5q116 0 192 -69.5t76 -173.5q0 -121 -71 -182zM364 1328q-48 0 -79 -31.5t-31 -79.5q0 -46 31 -77.5
t79 -31.5q47 0 78 31.5t31 77.5q0 48 -31 79.5t-78 31.5zM362 697q60 0 100 42.5t40 103.5t-39.5 100.5t-100.5 39.5q-60 0 -98.5 -39.5t-38.5 -100.5t39 -103.5t98 -42.5z" />
    <glyph glyph-name="nine.numr" horiz-adv-x="702" 
d="M358 1478q89 0 164.5 -35.5t125.5 -110t50 -175.5q0 -99 -75 -201l-298 -409h-223l238 295q-16 -2 -26 -2q-117 0 -209.5 95t-92.5 219q0 100 51 175.5t128.5 112t166.5 36.5zM356 998q65 0 111 41t46 112t-45.5 110.5t-109.5 39.5q-66 0 -114.5 -41t-48.5 -108
q0 -71 48 -112.5t113 -41.5z" />
    <glyph glyph-name="zero.sups" horiz-adv-x="774" 
d="M387 972q-154 0 -248.5 130.5t-94.5 342.5t94.5 342.5t248.5 130.5q155 0 250.5 -130.5t95.5 -342.5t-95.5 -342.5t-250.5 -130.5zM389 1159q69 0 111 76.5t42 209.5t-42 209.5t-111 76.5t-111 -76.5t-42 -209.5t42 -209.5t111 -76.5z" />
    <glyph glyph-name="one.sups" horiz-adv-x="481" 
d="M195 1905h175v-922h-189l2 748l-185 -144l-2 177z" />
    <glyph glyph-name="two.sups" horiz-adv-x="720" 
d="M244 1130h426v-147h-633v178q112 70 194 132.5t128 108t72.5 88t34 71t7.5 58.5q0 84 -36 116.5t-88 28.5q-64 -5 -90 -47.5t-23 -104.5h-196q-4 133 88 220t234 87q132 0 212.5 -78t81.5 -203q1 -135 -102 -268.5t-310 -239.5z" />
    <glyph glyph-name="three.sups" horiz-adv-x="697" 
d="M526 1487q133 -71 133 -218q0 -125 -91 -211.5t-229 -86.5q-135 0 -225.5 77t-90.5 193h196q0 -57 33 -86t87 -29q60 0 93.5 35t33.5 101q0 128 -151 128h-39v144h26q67 0 98.5 30t31.5 93q0 54 -27.5 83t-72.5 29q-102 0 -102 -122h-190q0 123 82 196.5t210 73.5
q121 0 198.5 -71t77.5 -185q0 -112 -82 -174z" />
    <glyph glyph-name="four.sups" horiz-adv-x="734" 
d="M696 1317v-139h-95v-195h-182v195h-418v165l354 562h246v-588h95zM152 1317h267v446z" />
    <glyph glyph-name="five.sups" horiz-adv-x="766" 
d="M387 1582q172 0 251.5 -79.5t79.5 -217.5q0 -145 -93.5 -228t-235.5 -83q-147 0 -244 78t-101 226h190q3 -76 46 -113.5t105 -37.5q67 0 106 41t39 111q0 79 -43 116.5t-136 37.5h-290l100 473h524v-154h-392l-34 -170h128z" />
    <glyph glyph-name="six.sups" horiz-adv-x="702" 
d="M690 1299q1 -149 -101 -237t-242 -89q-138 -1 -239.5 84.5t-102.5 234.5q-1 100 74 203l299 410h223l-237 -296q14 2 23 2q117 0 209.5 -94t93.5 -218zM347 1150q65 1 113 42.5t47 109.5q-1 70 -49 111.5t-113 39.5q-65 -1 -110.5 -42.5t-44.5 -112.5q1 -70 47 -109.5
t110 -38.5z" />
    <glyph glyph-name="seven.sups" horiz-adv-x="639" 
d="M16 1905h635v-139l-417 -783h-217l411 746h-412v176z" />
    <glyph glyph-name="eight.sups" horiz-adv-x="727" 
d="M560 1491q61 -37 95 -97t34 -133q0 -124 -93 -207t-234 -83q-139 0 -231.5 83.5t-92.5 206.5q0 73 34 132.5t94 97.5q-73 62 -73 183q0 104 76.5 173.5t194.5 69.5q116 0 192 -70t76 -173q0 -121 -72 -183zM364 1766q-48 0 -79 -31.5t-31 -79.5q0 -46 31.5 -77.5
t78.5 -31.5t78 31.5t31 77.5q0 48 -31 79.5t-78 31.5zM362 1135q60 0 100 42.5t40 103.5t-39.5 100.5t-100.5 39.5q-60 0 -98.5 -39.5t-38.5 -100.5t39 -103.5t98 -42.5z" />
    <glyph glyph-name="nine.sups" horiz-adv-x="704" 
d="M355 1915q139 1 240.5 -84.5t102.5 -235.5q0 -100 -75 -202l-298 -410h-223l238 296q-16 -2 -25 -2q-117 -1 -209.5 93.5t-93.5 218.5q0 100 50 176t127 112.5t166 37.5zM358 1434q65 1 110.5 42.5t44.5 113.5q-1 70 -47 109.5t-110 38.5q-66 -2 -114 -43.5t-47 -109.5
q1 -70 49.5 -111t113.5 -40z" />
    <glyph glyph-name="uni0308.case" 
d="M-725 1536q-76 0 -130 53t-54 129q0 75 54 128t130 53q74 0 127.5 -53t53.5 -128t-53.5 -128.5t-127.5 -53.5zM-275 1536q-76 0 -130 53t-54 129q0 75 54 128t130 53q74 0 127.5 -53t53.5 -128t-53.5 -128.5t-127.5 -53.5z" />
    <glyph glyph-name="uni0307.case" 
d="M-275 1536q-76 0 -130 53t-54 129q0 75 54 128t130 53q74 0 127.5 -53t53.5 -128t-53.5 -128.5t-127.5 -53.5z" />
    <glyph glyph-name="gravecomb.case" 
d="M-219 1589l-227 269l158 112l266 -381h-197z" />
    <glyph glyph-name="acutecomb.case" 
d="M-466 1589l266 381l158 -112l-227 -269h-197z" />
    <glyph glyph-name="uni030B.case" 
d="M-849 1589l266 381l158 -112l-227 -269h-197zM-466 1589l267 381l157 -112l-226 -269h-198z" />
    <glyph glyph-name="uni0302.case" 
d="M-488 1589h-197l232 300h190l232 -300h-198l-129 150z" />
    <glyph glyph-name="uni030C.case" 
d="M-455 1589l-233 300h198l129 -151l130 151h197l-232 -300h-189z" />
    <glyph glyph-name="uni0306.case" 
d="M-456 1589q-177 0 -275 70.5t-98 232.5h186q0 -154 187 -154q189 0 189 154h185q0 -162 -97.5 -232.5t-276.5 -70.5z" />
    <glyph glyph-name="uni030A.case" 
d="M-328 1589q-104 0 -177 73.5t-73 176.5q0 101 73.5 173.5t176.5 72.5q102 0 174.5 -72.5t72.5 -173.5q0 -103 -72.5 -176.5t-174.5 -73.5zM-328 1722q49 0 82 32.5t33 84.5q0 47 -33.5 82t-81.5 35t-80.5 -35t-32.5 -82q0 -52 32 -84.5t81 -32.5z" />
    <glyph glyph-name="tildecomb.case" 
d="M-331 1604q-64 0 -102 20t-68 55q-3 4 -16 20t-18 20.5t-15.5 13.5t-21 12t-22.5 3q-38 0 -57 -36.5t-19 -94.5h-170q0 122 64 198t175 76q105 0 169 -66q10 -9 25 -26.5t23.5 -26.5t23 -16.5t29.5 -7.5q68 0 68 130h172q0 -120 -63 -197t-177 -77z" />
    <glyph glyph-name="uni0304.case" 
d="M-806 1589v189h670v-189h-670z" />
    <glyph glyph-name="hookabovecomb.case" 
d="M-351 1536v140q108 19 108 93q0 28 -15.5 45t-47.5 17q-49 0 -86 -40l-72 105q71 61 178 61q96 0 148.5 -48t52.5 -130q0 -69 -34.5 -104.5t-91.5 -52.5v-86h-140z" />
    <glyph glyph-name="uni0312.case" 
d="M-309 1924h232l-126 -335h-334z" />
    <glyph glyph-name="uni0338.case" 
d="M-1210 -24l1112 1596l126 -75l-1112 -1596z" />
    <glyph glyph-name="uni03060301" 
d="M-546 1668l266 382l158 -112l-227 -270h-197zM-449 1174q-171 0 -271.5 92t-100.5 270h202q0 -97 43 -154.5t127 -57.5q85 0 128.5 57.5t43.5 154.5h203q0 -178 -101 -270t-274 -92z" />
    <glyph glyph-name="uni03060300" 
d="M-547 1668l-227 270l158 112l266 -382h-197zM-449 1174q-171 0 -271.5 92t-100.5 270h202q0 -97 43 -154.5t127 -57.5q85 0 128.5 57.5t43.5 154.5h203q0 -178 -101 -270t-274 -92z" />
    <glyph glyph-name="uni03060309" 
d="M-514 1612v141q108 17 108 92q0 29 -15.5 46t-47.5 17q-48 0 -86 -41l-72 106q70 60 178 60q96 0 148.5 -48t52.5 -129q0 -69 -34.5 -104.5t-91.5 -53.5v-86h-140zM-449 1174q-171 0 -271.5 92t-100.5 270h202q0 -97 43 -154.5t127 -57.5q85 0 128.5 57.5t43.5 154.5h203
q0 -178 -101 -270t-274 -92z" />
    <glyph glyph-name="uni03060303" 
d="M-313 1660q-115 0 -180 104q-22 35 -51 35q-32 0 -47.5 -34.5t-15.5 -92.5h-150q0 122 56 198t152 76q114 0 180 -105q21 -34 52 -34q60 0 60 126h152q0 -120 -54.5 -196.5t-153.5 -76.5zM-449 1174q-171 0 -271.5 92t-100.5 270h202q0 -97 43 -154.5t127 -57.5
q85 0 128.5 57.5t43.5 154.5h203q0 -178 -101 -270t-274 -92z" />
    <glyph glyph-name="uni03020301" 
d="M-455 1668l266 382l158 -112l-227 -270h-197zM-488 1236h-197l232 300h190l232 -300h-198l-129 151z" />
    <glyph glyph-name="uni03020300" 
d="M-456 1668l-227 270l158 112l266 -382h-197zM-488 1236h-197l232 300h190l232 -300h-198l-129 151z" />
    <glyph glyph-name="uni03020309" 
d="M-423 1612v141q108 17 108 92q0 29 -15.5 46t-47.5 17q-48 0 -86 -41l-72 106q70 60 178 60q96 0 148.5 -48t52.5 -129q0 -69 -34.5 -104.5t-91.5 -53.5v-86h-140zM-488 1236h-197l232 300h190l232 -300h-198l-129 151z" />
    <glyph glyph-name="uni03020303" 
d="M-222 1660q-115 0 -180 104q-22 35 -51 35q-32 0 -47.5 -34.5t-15.5 -92.5h-150q0 122 56 198t152 76q114 0 180 -105q21 -34 52 -34q60 0 60 126h152q0 -120 -54.5 -196.5t-153.5 -76.5zM-488 1236h-197l232 300h190l232 -300h-198l-129 151z" />
    <glyph glyph-name="uni03060301.case" 
d="M-551 1962l266 381l158 -112l-227 -269h-197zM-456 1589q-177 0 -275 70.5t-98 232.5h186q0 -154 187 -154q189 0 189 154h185q0 -162 -97.5 -232.5t-276.5 -70.5z" />
    <glyph glyph-name="uni03060300.case" 
d="M-552 1962l-227 269l158 112l266 -381h-197zM-456 1589q-177 0 -275 70.5t-98 232.5h186q0 -154 187 -154q189 0 189 154h185q0 -162 -97.5 -232.5t-276.5 -70.5z" />
    <glyph glyph-name="uni03060309.case" 
d="M-519 1909v140q108 19 108 93q0 28 -15.5 45t-47.5 17q-49 0 -86 -40l-72 105q71 61 178 61q96 0 148.5 -48t52.5 -130q0 -69 -34.5 -104.5t-91.5 -52.5v-86h-140zM-456 1589q-177 0 -275 70.5t-98 232.5h186q0 -154 187 -154q189 0 189 154h185q0 -162 -97.5 -232.5
t-276.5 -70.5z" />
    <glyph glyph-name="uni03060303.case" 
d="M-302 1977q-64 0 -102 20t-68 55q-3 4 -16 20t-18 20.5t-15.5 13.5t-21 12t-22.5 3q-38 0 -57 -36.5t-19 -94.5h-170q0 122 64 198t175 76q105 0 169 -66q10 -9 25 -26.5t23.5 -26.5t23 -16.5t29.5 -7.5q68 0 68 130h172q0 -120 -63 -197t-177 -77zM-456 1589
q-177 0 -275 70.5t-98 232.5h186q0 -154 187 -154q189 0 189 154h185q0 -162 -97.5 -232.5t-276.5 -70.5z" />
    <glyph glyph-name="uni03020301.case" 
d="M-455 1977l266 381l158 -112l-227 -269h-197zM-488 1589h-197l232 300h190l232 -300h-198l-129 150z" />
    <glyph glyph-name="uni03020300.case" 
d="M-456 1977l-227 269l158 112l266 -381h-197zM-488 1589h-197l232 300h190l232 -300h-198l-129 150z" />
    <glyph glyph-name="uni03020309.case" 
d="M-423 1924v140q108 19 108 93q0 28 -15.5 45t-47.5 17q-49 0 -86 -40l-72 105q71 61 178 61q96 0 148.5 -48t52.5 -130q0 -69 -34.5 -104.5t-91.5 -52.5v-86h-140zM-488 1589h-197l232 300h190l232 -300h-198l-129 150z" />
    <glyph glyph-name="uni03020303.case" 
d="M-206 1992q-64 0 -102 20t-68 55q-3 4 -16 20t-18 20.5t-15.5 13.5t-21 12t-22.5 3q-38 0 -57 -36.5t-19 -94.5h-170q0 122 64 198t175 76q105 0 169 -66q10 -9 25 -26.5t23.5 -26.5t23 -16.5t29.5 -7.5q68 0 68 130h172q0 -120 -63 -197t-177 -77zM-488 1589h-197
l232 300h190l232 -300h-198l-129 150z" />
    </font>
</defs>
</svg>
